{"glyphs":{"0":{"ha":690,"x_min":53,"x_max":657,"o":"m 347 -19 q 217 19 272 -19 q 126 123 163 58 q 71 265 89 188 q 53 419 53 343 q 71 579 53 499 q 126 726 89 660 q 222 834 164 793 q 363 875 281 875 q 493 836 438 875 q 585 733 549 797 q 639 591 621 668 q 657 439 657 514 q 640 281 657 361 q 585 132 622 200 q 489 22 547 64 q 347 -19 431 -19 m 371 26 q 453 81 422 26 q 499 224 485 136 q 514 414 514 313 q 503 564 514 490 q 469 697 492 638 q 414 792 447 757 q 338 828 381 828 q 256 774 286 828 q 211 633 225 721 q 197 444 197 546 q 208 293 197 368 q 241 158 219 218 q 294 63 263 99 q 371 26 326 26 z "},"1":{"ha":690,"x_min":132,"x_max":604,"o":"m 153 -4 q 138 1 144 -4 q 132 14 132 7 q 154 35 132 29 q 233 59 201 49 q 281 90 265 69 q 297 147 297 110 l 297 668 q 281 711 297 696 q 237 733 264 726 q 179 742 210 739 q 155 749 167 743 q 143 768 143 756 q 154 788 143 781 q 181 797 165 796 q 305 822 250 806 q 414 882 360 838 q 418 884 415 883 q 424 885 421 885 q 438 881 432 885 q 444 871 444 876 q 440 828 442 851 q 438 772 438 804 l 438 135 q 452 85 438 103 q 498 58 467 68 q 581 35 529 47 q 597 27 590 32 q 604 13 604 22 q 585 -4 604 -4 q 512 -2 549 -4 q 440 1 475 0 q 369 3 404 3 q 299 1 335 3 q 226 -2 263 0 q 153 -4 189 -4 z "},"2":{"ha":690,"x_min":58,"x_max":676,"o":"m 597 -4 q 564 -3 589 -4 q 506 -1 539 -3 q 439 1 474 0 q 375 3 404 3 q 302 1 347 3 q 210 -1 257 0 q 130 -2 164 -1 q 86 -3 96 -3 q 70 6 82 -3 q 58 21 58 14 q 63 33 58 29 q 72 43 67 38 l 297 282 q 410 443 368 357 q 453 624 453 529 q 414 733 453 692 q 317 774 375 774 q 216 744 263 774 q 140 669 169 714 q 126 654 135 661 q 108 647 118 647 q 95 658 101 647 q 89 686 89 669 q 110 735 89 704 q 168 799 131 767 q 257 853 206 831 q 368 875 308 875 q 488 845 438 875 q 564 763 538 815 q 590 644 590 711 q 576 563 590 607 q 538 476 561 518 q 485 400 514 435 q 433 343 467 378 q 360 270 399 308 q 288 198 322 232 q 231 142 253 164 q 210 117 210 119 q 229 108 210 111 q 285 104 254 106 q 353 103 317 103 q 427 104 390 103 q 499 108 464 106 q 558 117 536 111 q 597 138 581 122 q 628 181 613 153 q 643 200 633 189 q 664 211 653 211 q 675 204 672 211 q 676 190 678 197 q 663 146 672 174 q 643 87 653 118 q 628 28 633 56 q 615 2 625 8 q 597 -4 604 -4 z "},"3":{"ha":690,"x_min":81,"x_max":625,"o":"m 229 -53 q 164 -43 199 -53 q 105 -19 129 -33 q 81 10 81 -4 q 90 39 81 22 q 113 68 99 56 q 138 81 126 81 q 163 74 151 81 q 186 56 174 67 q 228 20 204 38 q 290 3 253 3 q 381 28 339 3 q 451 100 424 54 q 478 204 478 146 q 460 307 478 258 q 410 385 443 356 q 326 415 376 415 q 280 408 304 415 q 236 390 256 401 q 217 392 228 386 q 208 406 206 397 q 227 442 214 428 q 256 463 240 456 q 307 491 278 474 q 364 533 336 508 q 410 588 392 557 q 428 654 428 618 q 393 747 428 707 q 304 786 358 786 q 224 768 254 786 q 174 726 193 750 q 143 685 154 703 q 125 667 132 667 q 109 676 118 667 q 100 696 100 685 q 115 741 100 711 q 163 801 131 771 q 247 853 196 832 q 372 875 299 875 q 464 854 421 875 q 534 797 507 833 q 561 713 561 761 q 545 642 561 681 q 494 569 529 604 q 400 507 458 533 q 396 502 396 506 q 401 499 396 499 q 515 470 465 499 q 595 393 565 442 q 625 282 625 344 q 592 142 625 204 q 501 37 558 81 q 374 -30 444 -7 q 229 -53 304 -53 z "},"4":{"ha":690,"x_min":28,"x_max":697,"o":"m 293 -4 q 276 1 286 -4 q 267 15 267 6 q 276 28 267 24 q 294 35 285 33 q 376 63 356 44 q 397 118 397 82 l 397 229 q 388 239 397 236 q 375 242 378 242 q 271 240 322 242 q 165 235 219 238 q 43 232 110 233 q 32 236 38 232 q 26 246 26 240 q 31 253 26 249 q 53 281 46 272 q 67 296 61 289 q 81 315 72 303 l 438 849 q 461 878 447 864 q 488 892 475 892 l 510 892 q 516 882 518 892 q 513 869 514 872 l 154 338 q 151 327 151 332 q 158 322 151 322 l 382 322 q 392 326 388 322 q 397 333 397 329 l 397 531 q 399 556 397 550 q 413 568 401 563 q 469 586 439 582 q 513 590 500 590 q 535 566 532 590 q 539 494 539 542 l 539 328 q 546 318 539 318 q 574 317 563 317 q 600 317 586 317 q 639 317 619 317 q 681 319 658 318 q 696 310 696 319 q 690 283 696 299 q 677 256 685 267 q 667 244 669 244 q 634 245 651 244 q 599 246 617 246 q 576 245 586 246 q 558 243 567 244 q 547 239 553 242 q 540 235 540 236 l 540 122 q 559 66 540 82 q 632 35 578 50 q 651 28 642 33 q 660 13 660 22 q 653 1 660 7 q 636 -4 646 -4 q 573 -2 600 -4 q 522 1 546 0 q 465 3 497 3 q 407 1 432 3 q 356 -2 382 0 q 293 -4 329 -4 z "},"5":{"ha":690,"x_min":106,"x_max":599,"o":"m 163 -53 q 126 -49 146 -53 q 106 -35 106 -46 q 124 -15 106 -22 q 158 -7 143 -8 q 328 33 258 -4 q 433 126 397 71 q 468 239 468 182 q 438 333 468 292 q 340 407 407 374 q 158 471 272 440 q 122 501 132 486 q 111 538 111 517 q 119 588 111 557 q 138 652 126 618 q 159 717 149 686 q 175 767 169 749 q 199 805 183 792 q 236 824 214 818 q 303 838 265 831 q 383 852 342 846 q 463 864 424 858 q 532 872 501 869 q 549 865 543 874 q 550 846 554 857 q 538 816 546 832 q 522 785 529 800 q 497 749 513 763 q 458 733 481 736 q 399 728 433 731 q 329 722 364 725 q 266 717 294 719 q 224 713 238 715 q 202 693 214 711 q 182 654 190 675 q 172 624 174 633 q 175 608 171 614 q 189 600 179 603 q 329 558 267 581 q 439 511 392 536 q 560 411 521 469 q 599 272 599 353 q 552 126 599 194 q 428 14 506 58 q 351 -19 394 -4 q 261 -44 308 -35 q 163 -53 214 -53 z "},"6":{"ha":690,"x_min":75,"x_max":660,"o":"m 363 -21 q 217 13 282 -21 q 113 110 151 46 q 74 268 74 175 q 92 409 74 346 q 137 522 110 472 q 192 606 164 571 q 239 661 219 640 q 326 740 272 697 q 450 823 379 783 q 603 886 521 863 q 631 889 618 892 q 640 879 643 886 q 625 859 638 867 q 600 846 613 851 q 451 758 513 808 q 339 635 389 708 q 289 544 318 601 q 239 417 260 488 q 218 272 218 346 q 246 143 219 196 q 313 63 272 90 q 393 35 353 35 q 483 75 444 33 q 521 201 521 117 q 506 280 521 244 q 464 338 490 315 q 404 361 438 361 q 353 358 375 361 q 313 344 332 354 q 292 345 296 336 q 299 367 289 354 q 316 383 308 376 q 335 397 324 390 q 393 430 351 411 q 472 449 435 449 q 565 425 522 449 q 633 361 607 401 q 660 268 660 321 q 635 154 660 207 q 569 62 611 101 q 474 1 528 22 q 363 -21 421 -21 z "},"7":{"ha":690,"x_min":50,"x_max":694,"o":"m 197 -43 q 172 -32 181 -43 q 164 -4 164 -21 q 175 21 164 1 q 196 57 186 40 l 568 724 q 570 734 572 731 q 554 739 568 738 l 214 739 q 156 727 179 739 q 110 679 133 715 q 100 663 107 674 q 83 642 93 651 q 65 632 74 632 q 54 639 58 632 q 50 653 50 646 q 54 675 50 661 q 60 696 58 689 q 75 776 67 732 q 86 851 83 821 q 94 867 86 864 q 106 869 101 871 q 149 863 113 869 q 228 857 185 857 q 282 856 254 857 q 340 855 310 856 q 400 854 369 854 q 522 855 463 854 q 625 858 581 856 q 685 861 669 860 q 692 853 689 861 q 694 839 694 846 q 685 813 694 829 q 664 778 676 796 q 643 743 651 760 l 225 -3 q 210 -29 219 -15 q 197 -43 201 -43 z "},"8":{"ha":690,"x_min":88,"x_max":639,"o":"m 347 -19 q 219 8 278 -19 q 124 85 160 36 q 88 197 88 133 q 119 296 88 256 q 196 364 151 336 q 276 413 240 392 q 284 422 288 418 q 272 432 281 425 q 194 501 231 467 q 134 577 157 535 q 111 675 111 619 q 151 778 111 733 q 252 849 190 822 q 379 875 314 875 q 491 851 438 875 q 578 785 544 828 q 611 685 611 743 q 586 601 611 633 q 535 550 561 569 q 501 526 517 536 q 465 500 486 515 q 446 482 446 488 q 458 469 446 476 q 551 399 510 433 q 615 326 592 365 q 638 232 638 286 q 596 101 638 158 q 488 13 554 44 q 347 -19 422 -19 m 368 28 q 463 70 425 28 q 501 169 501 113 q 477 249 501 211 q 417 319 453 286 q 344 379 381 353 q 331 390 336 386 q 318 393 325 393 q 301 383 314 393 q 243 314 261 350 q 225 215 225 278 q 242 126 225 168 q 291 56 258 83 q 368 28 324 28 m 415 508 q 468 589 456 542 q 481 693 481 636 q 453 791 481 750 q 368 832 426 832 q 309 815 338 832 q 262 771 281 799 q 243 707 243 743 q 263 629 243 660 q 316 573 282 599 q 393 511 350 547 q 405 506 399 507 q 415 508 411 504 z "},"9":{"ha":690,"x_min":75,"x_max":669,"o":"m 100 -53 q 81 -48 86 -53 q 75 -37 75 -43 q 83 -22 75 -28 q 101 -17 92 -17 q 199 13 146 -15 q 306 88 253 42 q 401 186 360 133 q 469 292 440 238 q 513 408 497 347 q 529 540 529 469 q 515 638 529 589 q 475 727 500 686 q 418 792 450 768 q 351 817 386 817 q 283 794 311 817 q 240 738 254 772 q 226 661 226 703 q 245 580 226 619 q 294 515 264 540 q 356 489 324 489 q 410 499 392 489 q 449 518 428 508 q 467 514 463 524 q 464 496 471 504 q 445 472 457 483 q 424 453 433 461 q 392 433 414 444 q 346 413 371 422 q 294 404 321 404 q 199 428 246 404 q 122 495 151 453 q 92 590 92 538 q 114 687 92 638 q 177 778 136 736 q 273 847 218 821 q 393 874 328 874 q 496 847 446 874 q 585 776 546 821 q 647 674 625 731 q 669 556 669 617 q 643 394 669 469 q 572 253 617 319 q 468 126 526 188 q 384 56 432 89 q 285 -1 336 24 q 186 -39 235 -25 q 100 -53 138 -53 z "},"A":{"ha":975,"x_min":-4,"x_max":983,"o":"m 35 -7 q 7 -2 18 -7 q -4 13 -4 3 q 7 31 -4 24 q 38 44 18 38 q 106 78 75 56 q 156 146 136 100 q 225 308 193 231 q 286 460 257 385 q 346 615 315 535 q 408 785 376 694 q 426 838 421 817 q 433 876 432 860 q 467 885 451 881 q 500 900 482 890 q 526 924 517 908 q 540 947 535 940 q 547 949 543 949 q 553 944 550 950 q 559 929 557 938 q 564 911 561 921 q 630 705 596 810 q 697 500 664 600 q 760 315 731 400 q 810 165 789 229 q 846 95 825 119 q 890 59 867 71 q 942 42 914 47 q 973 29 963 38 q 983 10 983 21 q 973 -2 983 1 q 947 -6 963 -6 q 889 -3 925 -6 q 814 0 853 -1 q 743 1 775 1 q 685 1 717 1 q 624 0 653 1 q 575 -1 596 -1 q 548 3 558 -1 q 538 17 538 8 q 550 35 538 28 q 579 44 563 42 q 648 69 626 53 q 665 114 669 86 q 656 173 664 138 q 636 248 647 208 q 615 321 625 288 q 606 335 613 332 q 582 338 599 338 l 325 338 q 313 333 318 338 q 301 314 307 328 q 288 272 297 297 q 271 217 279 246 q 256 165 263 189 q 249 129 250 140 q 266 74 244 94 q 331 43 288 54 q 372 15 372 32 q 362 2 372 6 q 335 -1 351 -1 q 274 0 308 -1 q 200 1 239 1 q 114 -3 156 1 q 35 -7 72 -7 m 364 394 l 567 394 q 586 401 586 394 q 585 408 586 406 q 583 417 585 411 l 481 746 q 469 768 474 768 q 460 747 467 768 l 339 417 q 336 406 336 408 q 344 397 336 399 q 364 394 351 394 z "},"Á":{"ha":975,"x_min":-4,"x_max":983,"o":"m 35 -7 q 7 -2 18 -7 q -4 13 -4 3 q 7 31 -4 24 q 38 44 18 38 q 106 78 75 56 q 156 146 136 100 q 225 308 193 231 q 286 460 257 385 q 346 615 315 535 q 408 785 376 694 q 426 838 421 817 q 433 876 432 860 q 467 885 451 881 q 500 900 482 890 q 526 924 517 908 q 540 947 535 940 q 547 949 543 949 q 553 944 550 950 q 559 929 557 938 q 564 911 561 921 q 630 705 596 810 q 697 500 664 600 q 760 315 731 400 q 810 165 789 229 q 846 95 825 119 q 890 59 867 71 q 942 42 914 47 q 973 29 963 38 q 983 10 983 21 q 973 -2 983 1 q 947 -6 963 -6 q 889 -3 925 -6 q 814 0 853 -1 q 743 1 775 1 q 685 1 717 1 q 624 0 653 1 q 575 -1 596 -1 q 548 3 558 -1 q 538 17 538 8 q 550 35 538 28 q 579 44 563 42 q 648 69 626 53 q 665 114 669 86 q 656 173 664 138 q 636 248 647 208 q 615 321 625 288 q 606 335 613 332 q 582 338 599 338 l 325 338 q 313 333 318 338 q 301 314 307 328 q 288 272 297 297 q 271 217 279 246 q 256 165 263 189 q 249 129 250 140 q 266 74 244 94 q 331 43 288 54 q 372 15 372 32 q 362 2 372 6 q 335 -1 351 -1 q 274 0 308 -1 q 200 1 239 1 q 114 -3 156 1 q 35 -7 72 -7 m 364 394 l 567 394 q 586 401 586 394 q 585 408 586 406 q 583 417 585 411 l 481 746 q 469 768 474 768 q 460 747 467 768 l 339 417 q 336 406 336 408 q 344 397 336 399 q 364 394 351 394 m 457 950 q 446 960 446 951 q 456 983 446 969 q 515 1069 485 1026 q 578 1151 544 1111 q 618 1169 592 1171 q 649 1163 628 1168 q 688 1149 671 1157 q 706 1131 706 1140 q 685 1103 704 1118 q 585 1031 639 1067 q 486 963 532 994 q 468 953 475 956 q 457 950 461 950 z "},"Ă":{"ha":975,"x_min":-4,"x_max":983,"o":"m 35 -7 q 7 -2 18 -7 q -4 13 -4 3 q 7 31 -4 24 q 38 44 18 38 q 106 78 75 56 q 156 146 136 100 q 225 308 193 231 q 286 460 257 385 q 346 615 315 535 q 408 785 376 694 q 426 838 421 817 q 433 876 432 860 q 467 885 451 881 q 500 900 482 890 q 526 924 517 908 q 540 947 535 940 q 547 949 543 949 q 553 944 550 950 q 559 929 557 938 q 564 911 561 921 q 630 705 596 810 q 697 500 664 600 q 760 315 731 400 q 810 165 789 229 q 846 95 825 119 q 890 59 867 71 q 942 42 914 47 q 973 29 963 38 q 983 10 983 21 q 973 -2 983 1 q 947 -6 963 -6 q 889 -3 925 -6 q 814 0 853 -1 q 743 1 775 1 q 685 1 717 1 q 624 0 653 1 q 575 -1 596 -1 q 548 3 558 -1 q 538 17 538 8 q 550 35 538 28 q 579 44 563 42 q 648 69 626 53 q 665 114 669 86 q 656 173 664 138 q 636 248 647 208 q 615 321 625 288 q 606 335 613 332 q 582 338 599 338 l 325 338 q 313 333 318 338 q 301 314 307 328 q 288 272 297 297 q 271 217 279 246 q 256 165 263 189 q 249 129 250 140 q 266 74 244 94 q 331 43 288 54 q 372 15 372 32 q 362 2 372 6 q 335 -1 351 -1 q 274 0 308 -1 q 200 1 239 1 q 114 -3 156 1 q 35 -7 72 -7 m 364 394 l 567 394 q 586 401 586 394 q 585 408 586 406 q 583 417 585 411 l 481 746 q 469 768 474 768 q 460 747 467 768 l 339 417 q 336 406 336 408 q 344 397 336 399 q 364 394 351 394 m 511 958 q 406 985 449 958 q 340 1047 363 1011 q 317 1113 317 1083 q 321 1138 317 1128 q 332 1147 325 1147 q 353 1138 344 1147 q 368 1118 361 1128 q 431 1068 397 1083 q 511 1053 465 1053 q 591 1068 557 1053 q 654 1118 625 1083 q 671 1138 663 1128 q 690 1147 679 1147 q 703 1138 701 1147 q 706 1113 706 1128 q 683 1047 706 1083 q 617 985 660 1011 q 511 958 575 958 z "},"Â":{"ha":975,"x_min":-4,"x_max":983,"o":"m 35 -7 q 7 -2 18 -7 q -4 13 -4 3 q 7 31 -4 24 q 38 44 18 38 q 106 78 75 56 q 156 146 136 100 q 225 308 193 231 q 286 460 257 385 q 346 615 315 535 q 408 785 376 694 q 426 838 421 817 q 433 876 432 860 q 467 885 451 881 q 500 900 482 890 q 526 924 517 908 q 540 947 535 940 q 547 949 543 949 q 553 944 550 950 q 559 929 557 938 q 564 911 561 921 q 630 705 596 810 q 697 500 664 600 q 760 315 731 400 q 810 165 789 229 q 846 95 825 119 q 890 59 867 71 q 942 42 914 47 q 973 29 963 38 q 983 10 983 21 q 973 -2 983 1 q 947 -6 963 -6 q 889 -3 925 -6 q 814 0 853 -1 q 743 1 775 1 q 685 1 717 1 q 624 0 653 1 q 575 -1 596 -1 q 548 3 558 -1 q 538 17 538 8 q 550 35 538 28 q 579 44 563 42 q 648 69 626 53 q 665 114 669 86 q 656 173 664 138 q 636 248 647 208 q 615 321 625 288 q 606 335 613 332 q 582 338 599 338 l 325 338 q 313 333 318 338 q 301 314 307 328 q 288 272 297 297 q 271 217 279 246 q 256 165 263 189 q 249 129 250 140 q 266 74 244 94 q 331 43 288 54 q 372 15 372 32 q 362 2 372 6 q 335 -1 351 -1 q 274 0 308 -1 q 200 1 239 1 q 114 -3 156 1 q 35 -7 72 -7 m 364 394 l 567 394 q 586 401 586 394 q 585 408 586 406 q 583 417 585 411 l 481 746 q 469 768 474 768 q 460 747 467 768 l 339 417 q 336 406 336 408 q 344 397 336 399 q 364 394 351 394 m 322 965 q 300 981 300 965 q 310 999 300 990 l 450 1119 q 483 1145 471 1138 q 511 1153 494 1153 q 540 1145 528 1153 q 572 1119 551 1138 l 713 999 q 721 981 721 992 q 700 964 721 964 q 671 972 693 964 q 621 993 649 981 q 567 1018 593 1006 q 526 1039 542 1031 q 511 1044 517 1044 q 496 1039 506 1044 q 456 1018 482 1031 q 402 994 429 1006 q 353 974 375 982 q 322 965 331 965 z "},"Ä":{"ha":975,"x_min":-4,"x_max":983,"o":"m 35 -7 q 7 -2 18 -7 q -4 13 -4 3 q 7 31 -4 24 q 38 44 18 38 q 106 78 75 56 q 156 146 136 100 q 225 308 193 231 q 286 460 257 385 q 346 615 315 535 q 408 785 376 694 q 426 838 421 817 q 433 876 432 860 q 467 885 451 881 q 500 900 482 890 q 526 924 517 908 q 540 947 535 940 q 547 949 543 949 q 553 944 550 950 q 559 929 557 938 q 564 911 561 921 q 630 705 596 810 q 697 500 664 600 q 760 315 731 400 q 810 165 789 229 q 846 95 825 119 q 890 59 867 71 q 942 42 914 47 q 973 29 963 38 q 983 10 983 21 q 973 -2 983 1 q 947 -6 963 -6 q 889 -3 925 -6 q 814 0 853 -1 q 743 1 775 1 q 685 1 717 1 q 624 0 653 1 q 575 -1 596 -1 q 548 3 558 -1 q 538 17 538 8 q 550 35 538 28 q 579 44 563 42 q 648 69 626 53 q 665 114 669 86 q 656 173 664 138 q 636 248 647 208 q 615 321 625 288 q 606 335 613 332 q 582 338 599 338 l 325 338 q 313 333 318 338 q 301 314 307 328 q 288 272 297 297 q 271 217 279 246 q 256 165 263 189 q 249 129 250 140 q 266 74 244 94 q 331 43 288 54 q 372 15 372 32 q 362 2 372 6 q 335 -1 351 -1 q 274 0 308 -1 q 200 1 239 1 q 114 -3 156 1 q 35 -7 72 -7 m 364 394 l 567 394 q 586 401 586 394 q 585 408 586 406 q 583 417 585 411 l 481 746 q 469 768 474 768 q 460 747 467 768 l 339 417 q 336 406 336 408 q 344 397 336 399 q 364 394 351 394 m 647 961 q 590 985 614 961 q 567 1042 567 1008 q 590 1099 567 1075 q 647 1122 614 1122 q 704 1099 681 1122 q 728 1042 728 1075 q 704 985 728 1008 q 647 961 681 961 m 375 961 q 318 985 342 961 q 294 1042 294 1008 q 318 1099 294 1075 q 375 1122 342 1122 q 433 1099 410 1122 q 457 1042 457 1075 q 433 985 457 1008 q 375 961 410 961 z "},"À":{"ha":975,"x_min":-4,"x_max":983,"o":"m 553 950 q 542 953 550 950 q 525 963 535 956 q 426 1031 481 994 q 326 1103 372 1067 q 306 1131 307 1118 q 323 1149 306 1140 q 362 1163 340 1157 q 393 1169 383 1168 q 433 1151 419 1171 q 497 1069 467 1111 q 554 983 526 1026 q 565 960 565 969 q 553 950 565 951 m 35 -7 q 7 -2 18 -7 q -4 13 -4 3 q 7 31 -4 24 q 38 44 18 38 q 106 78 75 56 q 156 146 136 100 q 225 308 193 231 q 286 460 257 385 q 346 615 315 535 q 408 785 376 694 q 426 838 421 817 q 433 876 432 860 q 467 885 451 881 q 500 900 482 890 q 526 924 517 908 q 540 947 535 940 q 547 949 543 949 q 553 944 550 950 q 559 929 557 938 q 564 911 561 921 q 630 705 596 810 q 697 500 664 600 q 760 315 731 400 q 810 165 789 229 q 846 95 825 119 q 890 59 867 71 q 942 42 914 47 q 973 29 963 38 q 983 10 983 21 q 973 -2 983 1 q 947 -6 963 -6 q 889 -3 925 -6 q 814 0 853 -1 q 743 1 775 1 q 685 1 717 1 q 624 0 653 1 q 575 -1 596 -1 q 548 3 558 -1 q 538 17 538 8 q 550 35 538 28 q 579 44 563 42 q 648 69 626 53 q 665 114 669 86 q 656 173 664 138 q 636 248 647 208 q 615 321 625 288 q 606 335 613 332 q 582 338 599 338 l 325 338 q 313 333 318 338 q 301 314 307 328 q 288 272 297 297 q 271 217 279 246 q 256 165 263 189 q 249 129 250 140 q 266 74 244 94 q 331 43 288 54 q 372 15 372 32 q 362 2 372 6 q 335 -1 351 -1 q 274 0 308 -1 q 200 1 239 1 q 114 -3 156 1 q 35 -7 72 -7 m 364 394 l 567 394 q 586 401 586 394 q 585 408 586 406 q 583 417 585 411 l 481 746 q 469 768 474 768 q 460 747 467 768 l 339 417 q 336 406 336 408 q 344 397 336 399 q 364 394 351 394 z "},"Ā":{"ha":975,"x_min":-4,"x_max":983,"o":"m 35 -7 q 7 -2 18 -7 q -4 13 -4 3 q 7 31 -4 24 q 38 44 18 38 q 106 78 75 56 q 156 146 136 100 q 225 308 193 231 q 286 460 257 385 q 346 615 315 535 q 408 785 376 694 q 426 838 421 817 q 433 876 432 860 q 467 885 451 881 q 500 900 482 890 q 526 924 517 908 q 540 947 535 940 q 547 949 543 949 q 553 944 550 950 q 559 929 557 938 q 564 911 561 921 q 630 705 596 810 q 697 500 664 600 q 760 315 731 400 q 810 165 789 229 q 846 95 825 119 q 890 59 867 71 q 942 42 914 47 q 973 29 963 38 q 983 10 983 21 q 973 -2 983 1 q 947 -6 963 -6 q 889 -3 925 -6 q 814 0 853 -1 q 743 1 775 1 q 685 1 717 1 q 624 0 653 1 q 575 -1 596 -1 q 548 3 558 -1 q 538 17 538 8 q 550 35 538 28 q 579 44 563 42 q 648 69 626 53 q 665 114 669 86 q 656 173 664 138 q 636 248 647 208 q 615 321 625 288 q 606 335 613 332 q 582 338 599 338 l 325 338 q 313 333 318 338 q 301 314 307 328 q 288 272 297 297 q 271 217 279 246 q 256 165 263 189 q 249 129 250 140 q 266 74 244 94 q 331 43 288 54 q 372 15 372 32 q 362 2 372 6 q 335 -1 351 -1 q 274 0 308 -1 q 200 1 239 1 q 114 -3 156 1 q 35 -7 72 -7 m 364 394 l 567 394 q 586 401 586 394 q 585 408 586 406 q 583 417 585 411 l 481 746 q 469 768 474 768 q 460 747 467 768 l 339 417 q 336 406 336 408 q 344 397 336 399 q 364 394 351 394 m 324 1001 q 308 1008 314 1001 q 301 1021 301 1014 q 306 1049 301 1033 q 319 1077 310 1065 q 340 1089 328 1089 l 708 1089 q 724 1083 718 1089 q 729 1069 729 1078 q 715 1023 729 1044 q 682 1001 700 1001 l 324 1001 z "},"Ą":{"ha":975,"x_min":-4,"x_max":983,"o":"m 35 -7 q 7 -2 18 -7 q -4 13 -4 3 q 7 31 -4 24 q 38 44 18 38 q 106 78 75 56 q 156 146 136 100 q 225 308 193 231 q 286 460 257 385 q 346 615 315 535 q 408 785 376 694 q 426 838 421 817 q 433 876 432 860 q 467 885 451 881 q 500 900 482 890 q 526 924 517 908 q 540 947 535 940 q 547 949 543 949 q 553 944 550 950 q 559 929 557 938 q 564 911 561 921 q 630 705 596 810 q 697 500 664 600 q 760 315 731 400 q 810 165 789 229 q 846 95 825 119 q 890 59 867 71 q 942 42 914 47 q 973 29 963 38 q 983 10 983 21 q 973 -2 983 1 q 947 -6 963 -6 q 889 -3 925 -6 q 814 0 853 -1 q 743 1 775 1 q 685 1 717 1 q 624 0 653 1 q 575 -1 596 -1 q 548 3 558 -1 q 538 17 538 8 q 550 35 538 28 q 579 44 563 42 q 648 69 626 53 q 665 114 669 86 q 656 173 664 138 q 636 248 647 208 q 615 321 625 288 q 606 335 613 332 q 582 338 599 338 l 325 338 q 313 333 318 338 q 301 314 307 328 q 288 272 297 297 q 271 217 279 246 q 256 165 263 189 q 249 129 250 140 q 266 74 244 94 q 331 43 288 54 q 372 15 372 32 q 362 2 372 6 q 335 -1 351 -1 q 274 0 308 -1 q 200 1 239 1 q 114 -3 156 1 q 35 -7 72 -7 m 364 394 l 567 394 q 586 401 586 394 q 585 408 586 406 q 583 417 585 411 l 481 746 q 469 768 474 768 q 460 747 467 768 l 339 417 q 336 406 336 408 q 344 397 336 399 q 364 394 351 394 m 733 -399 q 618 -354 664 -399 q 572 -242 572 -310 q 594 -165 572 -201 q 647 -96 615 -128 q 712 -38 678 -64 q 773 3 746 -12 q 810 25 800 19 l 853 25 q 820 -3 844 17 q 769 -54 796 -24 q 722 -124 742 -85 q 703 -211 703 -164 q 728 -270 703 -247 q 789 -293 754 -293 q 834 -283 813 -293 q 872 -260 856 -272 q 896 -242 888 -247 q 910 -239 901 -237 q 918 -254 918 -240 q 901 -302 918 -276 q 857 -350 885 -328 q 797 -385 829 -372 q 733 -399 764 -399 z "},"Å":{"ha":975,"x_min":-4,"x_max":983,"o":"m 35 -7 q 7 -2 18 -7 q -4 13 -4 3 q 7 31 -4 24 q 38 44 18 38 q 106 78 75 56 q 156 146 136 100 q 225 308 193 231 q 286 460 257 385 q 346 615 315 535 q 408 785 376 694 q 426 838 421 817 q 433 876 432 860 q 467 885 451 881 q 500 900 482 890 q 526 924 517 908 q 540 947 535 940 q 547 949 543 949 q 553 944 550 950 q 559 929 557 938 q 564 911 561 921 q 630 705 596 810 q 697 500 664 600 q 760 315 731 400 q 810 165 789 229 q 846 95 825 119 q 890 59 867 71 q 942 42 914 47 q 973 29 963 38 q 983 10 983 21 q 973 -2 983 1 q 947 -6 963 -6 q 889 -3 925 -6 q 814 0 853 -1 q 743 1 775 1 q 685 1 717 1 q 624 0 653 1 q 575 -1 596 -1 q 548 3 558 -1 q 538 17 538 8 q 550 35 538 28 q 579 44 563 42 q 648 69 626 53 q 665 114 669 86 q 656 173 664 138 q 636 248 647 208 q 615 321 625 288 q 606 335 613 332 q 582 338 599 338 l 325 338 q 313 333 318 338 q 301 314 307 328 q 288 272 297 297 q 271 217 279 246 q 256 165 263 189 q 249 129 250 140 q 266 74 244 94 q 331 43 288 54 q 372 15 372 32 q 362 2 372 6 q 335 -1 351 -1 q 274 0 308 -1 q 200 1 239 1 q 114 -3 156 1 q 35 -7 72 -7 m 364 394 l 567 394 q 586 401 586 394 q 585 408 586 406 q 583 417 585 411 l 481 746 q 469 768 474 768 q 460 747 467 768 l 339 417 q 336 406 336 408 q 344 397 336 399 q 364 394 351 394 m 442 1072 q 463 1022 442 1043 q 513 1001 483 1001 q 555 1024 540 1001 q 569 1072 569 1046 q 550 1121 569 1100 q 501 1142 531 1142 q 458 1121 474 1142 q 442 1072 442 1100 m 513 1178 q 599 1152 561 1178 q 638 1079 638 1126 q 618 1020 638 1046 q 567 981 599 994 q 500 967 536 967 q 413 994 451 967 q 374 1068 374 1021 q 393 1126 374 1101 q 444 1165 413 1151 q 513 1178 476 1178 z "},"Ǻ":{"ha":975,"x_min":-4,"x_max":983,"o":"m 35 -7 q 7 -2 18 -7 q -4 13 -4 3 q 7 31 -4 24 q 38 44 18 38 q 106 78 75 56 q 156 146 136 100 q 225 308 193 231 q 286 460 257 385 q 346 615 315 535 q 408 785 376 694 q 426 838 421 817 q 433 876 432 860 q 467 885 451 881 q 500 900 482 890 q 526 924 517 908 q 540 947 535 940 q 547 949 543 949 q 553 944 550 950 q 559 929 557 938 q 564 911 561 921 q 630 705 596 810 q 697 500 664 600 q 760 315 731 400 q 810 165 789 229 q 846 95 825 119 q 890 59 867 71 q 942 42 914 47 q 973 29 963 38 q 983 10 983 21 q 973 -2 983 1 q 947 -6 963 -6 q 889 -3 925 -6 q 814 0 853 -1 q 743 1 775 1 q 685 1 717 1 q 624 0 653 1 q 575 -1 596 -1 q 548 3 558 -1 q 538 17 538 8 q 550 35 538 28 q 579 44 563 42 q 648 69 626 53 q 665 114 669 86 q 656 173 664 138 q 636 248 647 208 q 615 321 625 288 q 606 335 613 332 q 582 338 599 338 l 325 338 q 313 333 318 338 q 301 314 307 328 q 288 272 297 297 q 271 217 279 246 q 256 165 263 189 q 249 129 250 140 q 266 74 244 94 q 331 43 288 54 q 372 15 372 32 q 362 2 372 6 q 335 -1 351 -1 q 274 0 308 -1 q 200 1 239 1 q 114 -3 156 1 q 35 -7 72 -7 m 364 394 l 567 394 q 586 401 586 394 q 585 408 586 406 q 583 417 585 411 l 481 746 q 469 768 474 768 q 460 747 467 768 l 339 417 q 336 406 336 408 q 344 397 336 399 q 364 394 351 394 m 442 1072 q 463 1022 442 1043 q 513 1001 483 1001 q 555 1024 540 1001 q 569 1072 569 1046 q 550 1121 569 1100 q 501 1142 531 1142 q 458 1121 474 1142 q 442 1072 442 1100 m 513 1178 q 599 1152 561 1178 q 638 1079 638 1126 q 618 1020 638 1046 q 567 981 599 994 q 500 967 536 967 q 413 994 451 967 q 374 1068 374 1021 q 393 1126 374 1101 q 444 1165 413 1151 q 513 1178 476 1178 m 401 1193 q 386 1197 393 1193 q 379 1207 379 1200 q 381 1216 379 1211 q 390 1228 383 1221 q 431 1258 403 1239 q 491 1299 458 1278 q 554 1338 524 1319 q 604 1365 585 1356 q 618 1371 611 1368 q 632 1374 625 1374 q 665 1358 651 1374 q 686 1324 679 1342 q 693 1297 693 1306 q 685 1281 693 1285 q 637 1263 667 1274 q 572 1240 607 1251 q 503 1218 536 1228 q 443 1201 469 1208 q 422 1197 433 1200 q 401 1193 411 1193 z "},"Ã":{"ha":975,"x_min":-4,"x_max":983,"o":"m 35 -7 q 7 -2 18 -7 q -4 13 -4 3 q 7 31 -4 24 q 38 44 18 38 q 106 78 75 56 q 156 146 136 100 q 225 308 193 231 q 286 460 257 385 q 346 615 315 535 q 408 785 376 694 q 426 838 421 817 q 433 876 432 860 q 467 885 451 881 q 500 900 482 890 q 526 924 517 908 q 540 947 535 940 q 547 949 543 949 q 553 944 550 950 q 559 929 557 938 q 564 911 561 921 q 630 705 596 810 q 697 500 664 600 q 760 315 731 400 q 810 165 789 229 q 846 95 825 119 q 890 59 867 71 q 942 42 914 47 q 973 29 963 38 q 983 10 983 21 q 973 -2 983 1 q 947 -6 963 -6 q 889 -3 925 -6 q 814 0 853 -1 q 743 1 775 1 q 685 1 717 1 q 624 0 653 1 q 575 -1 596 -1 q 548 3 558 -1 q 538 17 538 8 q 550 35 538 28 q 579 44 563 42 q 648 69 626 53 q 665 114 669 86 q 656 173 664 138 q 636 248 647 208 q 615 321 625 288 q 606 335 613 332 q 582 338 599 338 l 325 338 q 313 333 318 338 q 301 314 307 328 q 288 272 297 297 q 271 217 279 246 q 256 165 263 189 q 249 129 250 140 q 266 74 244 94 q 331 43 288 54 q 372 15 372 32 q 362 2 372 6 q 335 -1 351 -1 q 274 0 308 -1 q 200 1 239 1 q 114 -3 156 1 q 35 -7 72 -7 m 364 394 l 567 394 q 586 401 586 394 q 585 408 586 406 q 583 417 585 411 l 481 746 q 469 768 474 768 q 460 747 467 768 l 339 417 q 336 406 336 408 q 344 397 336 399 q 364 394 351 394 m 343 961 q 328 969 336 961 q 319 983 319 976 q 332 1008 319 989 q 363 1051 344 1028 q 401 1091 382 1074 q 431 1108 419 1108 q 483 1107 456 1108 q 533 1103 510 1106 q 583 1100 557 1101 q 632 1099 608 1099 q 660 1107 647 1099 q 683 1125 674 1115 q 701 1144 694 1135 q 711 1153 707 1153 q 731 1146 721 1153 q 740 1129 740 1139 q 734 1117 740 1125 q 718 1099 728 1108 q 686 1058 703 1081 q 657 1019 669 1036 q 635 1004 649 1008 q 615 1000 621 1000 q 580 1001 606 1000 q 522 1006 554 1003 q 460 1010 489 1008 q 415 1013 431 1013 q 392 1006 406 1013 q 371 992 379 1000 q 353 972 360 982 q 343 961 346 961 z "},"Æ":{"ha":1229,"x_min":-7,"x_max":1199,"o":"m 32 -7 q 4 -3 15 -7 q -7 11 -7 1 q 4 28 -7 22 q 35 42 15 35 q 109 87 72 53 q 172 164 146 121 l 561 826 q 560 841 567 835 q 543 849 554 847 l 447 867 q 433 875 438 869 q 429 888 429 881 q 447 906 429 906 q 553 903 492 906 q 678 901 615 901 q 802 902 736 901 q 930 904 868 903 q 1039 906 992 906 q 1107 907 1086 907 q 1124 903 1115 907 q 1135 890 1133 900 q 1148 809 1143 847 q 1154 735 1153 771 q 1148 722 1154 726 q 1135 717 1142 717 q 1124 721 1128 717 q 1115 733 1119 725 q 1097 785 1106 764 q 1074 819 1088 807 q 1033 847 1056 839 q 982 854 1010 854 l 828 854 q 790 844 810 854 q 769 811 769 833 l 769 496 q 777 474 769 483 q 797 465 785 465 q 869 466 838 465 q 926 467 900 467 q 965 481 950 468 q 993 510 981 493 q 1016 542 1008 525 q 1036 558 1024 558 q 1048 551 1042 558 q 1053 533 1054 544 q 1050 485 1051 507 q 1049 442 1049 463 q 1050 392 1049 417 q 1053 336 1051 367 q 1051 315 1054 322 q 1040 308 1047 308 q 1019 319 1028 308 q 1007 340 1011 331 q 978 392 997 375 q 940 410 960 410 q 870 413 901 413 q 801 413 839 413 q 778 404 788 413 q 769 381 769 396 l 769 149 q 790 81 769 110 q 854 53 810 53 l 992 53 q 1021 56 1000 53 q 1063 65 1042 60 q 1094 79 1085 71 q 1133 125 1117 96 q 1160 178 1149 154 q 1168 192 1164 188 q 1181 194 1172 196 q 1199 178 1199 193 q 1189 96 1199 139 q 1169 15 1179 53 q 1163 0 1168 7 q 1146 -7 1157 -7 q 1048 -6 1101 -7 q 936 -3 994 -4 q 816 0 878 -1 q 694 1 754 1 q 638 -1 664 1 q 585 -5 613 -3 q 522 -7 557 -7 q 497 -3 507 -7 q 486 10 486 1 q 528 36 486 28 q 600 67 576 47 q 624 133 624 88 l 624 358 q 619 376 624 368 q 594 383 614 383 l 399 383 q 376 376 385 383 q 360 353 367 368 q 310 258 335 307 q 257 154 285 210 q 246 113 246 132 q 273 67 246 82 q 336 43 300 51 q 376 15 376 32 q 367 2 376 6 q 340 -1 357 -1 q 278 0 314 -1 q 203 1 242 1 q 113 -3 157 1 q 32 -7 69 -7 m 442 449 l 601 449 q 619 453 614 449 q 624 468 624 457 l 624 790 q 619 813 624 811 q 603 793 615 815 l 424 471 q 419 456 418 461 q 426 450 419 451 q 442 449 432 449 z "},"Ǽ":{"ha":1229,"x_min":-7,"x_max":1199,"o":"m 32 -7 q 4 -3 15 -7 q -7 11 -7 1 q 4 28 -7 22 q 35 42 15 35 q 109 87 72 53 q 172 164 146 121 l 561 826 q 560 841 567 835 q 543 849 554 847 l 447 867 q 433 875 438 869 q 429 888 429 881 q 447 906 429 906 q 553 903 492 906 q 678 901 615 901 q 802 902 736 901 q 930 904 868 903 q 1039 906 992 906 q 1107 907 1086 907 q 1124 903 1115 907 q 1135 890 1133 900 q 1148 809 1143 847 q 1154 735 1153 771 q 1148 722 1154 726 q 1135 717 1142 717 q 1124 721 1128 717 q 1115 733 1119 725 q 1097 785 1106 764 q 1074 819 1088 807 q 1033 847 1056 839 q 982 854 1010 854 l 828 854 q 790 844 810 854 q 769 811 769 833 l 769 496 q 777 474 769 483 q 797 465 785 465 q 869 466 838 465 q 926 467 900 467 q 965 481 950 468 q 993 510 981 493 q 1016 542 1008 525 q 1036 558 1024 558 q 1048 551 1042 558 q 1053 533 1054 544 q 1050 485 1051 507 q 1049 442 1049 463 q 1050 392 1049 417 q 1053 336 1051 367 q 1051 315 1054 322 q 1040 308 1047 308 q 1019 319 1028 308 q 1007 340 1011 331 q 978 392 997 375 q 940 410 960 410 q 870 413 901 413 q 801 413 839 413 q 778 404 788 413 q 769 381 769 396 l 769 149 q 790 81 769 110 q 854 53 810 53 l 992 53 q 1021 56 1000 53 q 1063 65 1042 60 q 1094 79 1085 71 q 1133 125 1117 96 q 1160 178 1149 154 q 1168 192 1164 188 q 1181 194 1172 196 q 1199 178 1199 193 q 1189 96 1199 139 q 1169 15 1179 53 q 1163 0 1168 7 q 1146 -7 1157 -7 q 1048 -6 1101 -7 q 936 -3 994 -4 q 816 0 878 -1 q 694 1 754 1 q 638 -1 664 1 q 585 -5 613 -3 q 522 -7 557 -7 q 497 -3 507 -7 q 486 10 486 1 q 528 36 486 28 q 600 67 576 47 q 624 133 624 88 l 624 358 q 619 376 624 368 q 594 383 614 383 l 399 383 q 376 376 385 383 q 360 353 367 368 q 310 258 335 307 q 257 154 285 210 q 246 113 246 132 q 273 67 246 82 q 336 43 300 51 q 376 15 376 32 q 367 2 376 6 q 340 -1 357 -1 q 278 0 314 -1 q 203 1 242 1 q 113 -3 157 1 q 32 -7 69 -7 m 442 449 l 601 449 q 619 453 614 449 q 624 468 624 457 l 624 790 q 619 813 624 811 q 603 793 615 815 l 424 471 q 419 456 418 461 q 426 450 419 451 q 442 449 432 449 m 714 950 q 703 960 703 951 q 713 983 703 969 q 772 1069 742 1026 q 835 1151 801 1111 q 875 1169 849 1171 q 906 1163 885 1168 q 945 1149 928 1157 q 963 1131 963 1140 q 942 1103 961 1118 q 842 1031 896 1067 q 743 963 789 994 q 725 953 732 956 q 714 950 718 950 z "},"Ǣ":{"ha":1229,"x_min":-7,"x_max":1199,"o":"m 32 -7 q 4 -3 15 -7 q -7 11 -7 1 q 4 28 -7 22 q 35 42 15 35 q 109 87 72 53 q 172 164 146 121 l 561 826 q 560 841 567 835 q 543 849 554 847 l 447 867 q 433 875 438 869 q 429 888 429 881 q 447 906 429 906 q 553 903 492 906 q 678 901 615 901 q 802 902 736 901 q 930 904 868 903 q 1039 906 992 906 q 1107 907 1086 907 q 1124 903 1115 907 q 1135 890 1133 900 q 1148 809 1143 847 q 1154 735 1153 771 q 1148 722 1154 726 q 1135 717 1142 717 q 1124 721 1128 717 q 1115 733 1119 725 q 1097 785 1106 764 q 1074 819 1088 807 q 1033 847 1056 839 q 982 854 1010 854 l 828 854 q 790 844 810 854 q 769 811 769 833 l 769 496 q 777 474 769 483 q 797 465 785 465 q 869 466 838 465 q 926 467 900 467 q 965 481 950 468 q 993 510 981 493 q 1016 542 1008 525 q 1036 558 1024 558 q 1048 551 1042 558 q 1053 533 1054 544 q 1050 485 1051 507 q 1049 442 1049 463 q 1050 392 1049 417 q 1053 336 1051 367 q 1051 315 1054 322 q 1040 308 1047 308 q 1019 319 1028 308 q 1007 340 1011 331 q 978 392 997 375 q 940 410 960 410 q 870 413 901 413 q 801 413 839 413 q 778 404 788 413 q 769 381 769 396 l 769 149 q 790 81 769 110 q 854 53 810 53 l 992 53 q 1021 56 1000 53 q 1063 65 1042 60 q 1094 79 1085 71 q 1133 125 1117 96 q 1160 178 1149 154 q 1168 192 1164 188 q 1181 194 1172 196 q 1199 178 1199 193 q 1189 96 1199 139 q 1169 15 1179 53 q 1163 0 1168 7 q 1146 -7 1157 -7 q 1048 -6 1101 -7 q 936 -3 994 -4 q 816 0 878 -1 q 694 1 754 1 q 638 -1 664 1 q 585 -5 613 -3 q 522 -7 557 -7 q 497 -3 507 -7 q 486 10 486 1 q 528 36 486 28 q 600 67 576 47 q 624 133 624 88 l 624 358 q 619 376 624 368 q 594 383 614 383 l 399 383 q 376 376 385 383 q 360 353 367 368 q 310 258 335 307 q 257 154 285 210 q 246 113 246 132 q 273 67 246 82 q 336 43 300 51 q 376 15 376 32 q 367 2 376 6 q 340 -1 357 -1 q 278 0 314 -1 q 203 1 242 1 q 113 -3 157 1 q 32 -7 69 -7 m 442 449 l 601 449 q 619 453 614 449 q 624 468 624 457 l 624 790 q 619 813 624 811 q 603 793 615 815 l 424 471 q 419 456 418 461 q 426 450 419 451 q 442 449 432 449 m 579 1001 q 563 1008 569 1001 q 557 1021 557 1014 q 561 1049 557 1033 q 574 1077 565 1065 q 596 1089 583 1089 l 964 1089 q 979 1083 974 1089 q 985 1069 985 1078 q 970 1023 985 1044 q 938 1001 956 1001 l 579 1001 z "},"B":{"ha":835,"x_min":25,"x_max":783,"o":"m 61 -7 q 35 -3 44 -7 q 25 10 25 1 q 65 36 25 28 q 142 67 117 47 q 167 136 167 88 l 167 764 q 147 833 167 811 q 76 863 128 856 q 46 873 56 865 q 36 890 36 881 q 46 903 36 899 q 72 908 56 908 q 136 907 113 908 q 181 905 160 906 q 232 904 203 904 q 283 906 261 904 q 331 910 304 908 q 401 913 358 913 q 647 866 565 913 q 729 706 729 819 q 712 624 729 660 q 674 568 694 588 q 631 535 651 547 q 578 511 611 522 q 572 505 572 510 q 578 497 572 500 q 647 473 611 488 q 714 434 682 458 q 765 370 746 410 q 783 269 783 331 q 759 148 783 193 q 701 79 735 103 q 639 40 668 56 q 538 6 594 18 q 400 -6 481 -6 q 333 -3 372 -6 q 247 0 293 0 q 185 -1 214 0 q 128 -5 157 -3 q 61 -7 99 -7 m 413 58 q 515 85 468 58 q 590 158 561 111 q 618 261 618 204 q 602 348 618 314 q 565 403 586 382 q 528 433 544 424 q 476 456 511 444 q 386 467 442 467 q 331 451 350 467 q 313 418 313 436 l 313 153 q 339 79 313 100 q 413 58 365 58 m 374 514 q 448 522 410 514 q 524 554 486 531 q 558 594 538 563 q 579 683 579 625 q 565 772 579 731 q 510 838 550 813 q 397 864 471 864 q 330 849 347 864 q 313 803 313 833 l 313 565 q 335 523 313 532 q 374 514 357 514 z "},"C":{"ha":986,"x_min":56,"x_max":911,"o":"m 564 -21 q 372 13 464 -21 q 208 107 279 46 q 97 254 138 168 q 56 446 56 340 q 97 631 56 544 q 213 783 139 718 q 386 884 288 847 q 600 921 485 921 q 692 916 651 921 q 769 903 732 911 q 850 881 807 894 q 877 865 868 875 q 888 836 886 856 q 895 761 892 800 q 900 675 899 722 q 890 657 900 663 q 867 655 879 651 q 850 674 854 658 q 821 756 838 719 q 772 815 804 792 q 691 854 740 840 q 581 868 642 868 q 438 836 503 868 q 326 749 372 804 q 255 625 281 694 q 229 481 229 556 q 253 313 229 393 q 324 169 278 232 q 438 70 371 107 q 588 33 504 33 q 753 78 688 33 q 863 208 818 124 q 892 228 872 228 q 911 206 911 228 q 906 167 911 192 q 893 115 901 143 q 876 63 885 86 q 861 38 868 44 q 835 24 854 31 q 710 -10 782 1 q 564 -21 639 -21 z "},"Ć":{"ha":986,"x_min":56,"x_max":911,"o":"m 564 -21 q 372 13 464 -21 q 208 107 279 46 q 97 254 138 168 q 56 446 56 340 q 97 631 56 544 q 213 783 139 718 q 386 884 288 847 q 600 921 485 921 q 692 916 651 921 q 769 903 732 911 q 850 881 807 894 q 877 865 868 875 q 888 836 886 856 q 895 761 892 800 q 900 675 899 722 q 890 657 900 663 q 867 655 879 651 q 850 674 854 658 q 821 756 838 719 q 772 815 804 792 q 691 854 740 840 q 581 868 642 868 q 438 836 503 868 q 326 749 372 804 q 255 625 281 694 q 229 481 229 556 q 253 313 229 393 q 324 169 278 232 q 438 70 371 107 q 588 33 504 33 q 753 78 688 33 q 863 208 818 124 q 892 228 872 228 q 911 206 911 228 q 906 167 911 192 q 893 115 901 143 q 876 63 885 86 q 861 38 868 44 q 835 24 854 31 q 710 -10 782 1 q 564 -21 639 -21 m 504 950 q 493 960 493 951 q 503 983 493 969 q 562 1069 532 1026 q 625 1151 592 1111 q 665 1169 639 1171 q 697 1163 675 1168 q 735 1149 718 1157 q 753 1131 753 1140 q 732 1103 751 1118 q 633 1031 686 1067 q 533 963 579 994 q 515 953 522 956 q 504 950 508 950 z "},"Č":{"ha":986,"x_min":56,"x_max":911,"o":"m 564 -21 q 372 13 464 -21 q 208 107 279 46 q 97 254 138 168 q 56 446 56 340 q 97 631 56 544 q 213 783 139 718 q 386 884 288 847 q 600 921 485 921 q 692 916 651 921 q 769 903 732 911 q 850 881 807 894 q 877 865 868 875 q 888 836 886 856 q 895 761 892 800 q 900 675 899 722 q 890 657 900 663 q 867 655 879 651 q 850 674 854 658 q 821 756 838 719 q 772 815 804 792 q 691 854 740 840 q 581 868 642 868 q 438 836 503 868 q 326 749 372 804 q 255 625 281 694 q 229 481 229 556 q 253 313 229 393 q 324 169 278 232 q 438 70 371 107 q 588 33 504 33 q 753 78 688 33 q 863 208 818 124 q 892 228 872 228 q 911 206 911 228 q 906 167 911 192 q 893 115 901 143 q 876 63 885 86 q 861 38 868 44 q 835 24 854 31 q 710 -10 782 1 q 564 -21 639 -21 m 371 1154 q 401 1146 379 1154 q 451 1126 424 1138 q 504 1101 478 1114 q 544 1081 531 1089 q 560 1075 554 1075 q 575 1081 565 1075 q 616 1101 590 1089 q 669 1126 642 1114 q 719 1147 697 1139 q 749 1156 742 1156 q 769 1139 769 1156 q 761 1121 769 1128 l 621 1006 q 588 979 600 988 q 560 971 576 971 q 532 979 543 971 q 499 1006 521 988 l 358 1121 q 349 1139 349 1131 q 371 1154 349 1154 z "},"Ç":{"ha":986,"x_min":56,"x_max":911,"o":"m 564 -21 q 372 13 464 -21 q 208 107 279 46 q 97 254 138 168 q 56 446 56 340 q 97 631 56 544 q 213 783 139 718 q 386 884 288 847 q 600 921 485 921 q 692 916 651 921 q 769 903 732 911 q 850 881 807 894 q 877 865 868 875 q 888 836 886 856 q 895 761 892 800 q 900 675 899 722 q 890 657 900 663 q 867 655 879 651 q 850 674 854 658 q 821 756 838 719 q 772 815 804 792 q 691 854 740 840 q 581 868 642 868 q 438 836 503 868 q 326 749 372 804 q 255 625 281 694 q 229 481 229 556 q 253 313 229 393 q 324 169 278 232 q 438 70 371 107 q 588 33 504 33 q 753 78 688 33 q 863 208 818 124 q 892 228 872 228 q 911 206 911 228 q 906 167 911 192 q 893 115 901 143 q 876 63 885 86 q 861 38 868 44 q 835 24 854 31 q 710 -10 782 1 q 564 -21 639 -21 m 461 -382 q 412 -371 429 -382 q 394 -332 394 -360 q 403 -297 394 -308 q 419 -286 411 -286 q 442 -295 428 -286 q 506 -304 457 -304 q 549 -290 533 -304 q 565 -250 565 -276 q 547 -199 565 -215 q 499 -182 529 -182 q 481 -185 488 -182 q 464 -187 474 -187 q 435 -178 444 -187 q 426 -161 426 -168 q 428 -149 426 -154 q 435 -139 431 -143 l 551 11 l 603 11 l 551 -62 q 560 -93 536 -83 q 620 -135 590 -104 q 650 -212 650 -165 q 617 -299 650 -261 q 541 -360 585 -337 q 461 -382 497 -382 z "},"Ĉ":{"ha":986,"x_min":56,"x_max":911,"o":"m 564 -21 q 372 13 464 -21 q 208 107 279 46 q 97 254 138 168 q 56 446 56 340 q 97 631 56 544 q 213 783 139 718 q 386 884 288 847 q 600 921 485 921 q 692 916 651 921 q 769 903 732 911 q 850 881 807 894 q 877 865 868 875 q 888 836 886 856 q 895 761 892 800 q 900 675 899 722 q 890 657 900 663 q 867 655 879 651 q 850 674 854 658 q 821 756 838 719 q 772 815 804 792 q 691 854 740 840 q 581 868 642 868 q 438 836 503 868 q 326 749 372 804 q 255 625 281 694 q 229 481 229 556 q 253 313 229 393 q 324 169 278 232 q 438 70 371 107 q 588 33 504 33 q 753 78 688 33 q 863 208 818 124 q 892 228 872 228 q 911 206 911 228 q 906 167 911 192 q 893 115 901 143 q 876 63 885 86 q 861 38 868 44 q 835 24 854 31 q 710 -10 782 1 q 564 -21 639 -21 m 369 965 q 347 981 347 965 q 357 999 347 990 l 497 1119 q 530 1145 518 1138 q 558 1153 542 1153 q 587 1145 575 1153 q 619 1119 599 1138 l 760 999 q 768 981 768 992 q 747 964 768 964 q 718 972 740 964 q 668 993 696 981 q 615 1018 640 1006 q 574 1039 589 1031 q 558 1044 564 1044 q 543 1039 553 1044 q 503 1018 529 1031 q 449 994 476 1006 q 400 974 422 982 q 369 965 378 965 z "},"Ċ":{"ha":986,"x_min":56,"x_max":911,"o":"m 564 -21 q 372 13 464 -21 q 208 107 279 46 q 97 254 138 168 q 56 446 56 340 q 97 631 56 544 q 213 783 139 718 q 386 884 288 847 q 600 921 485 921 q 692 916 651 921 q 769 903 732 911 q 850 881 807 894 q 877 865 868 875 q 888 836 886 856 q 895 761 892 800 q 900 675 899 722 q 890 657 900 663 q 867 655 879 651 q 850 674 854 658 q 821 756 838 719 q 772 815 804 792 q 691 854 740 840 q 581 868 642 868 q 438 836 503 868 q 326 749 372 804 q 255 625 281 694 q 229 481 229 556 q 253 313 229 393 q 324 169 278 232 q 438 70 371 107 q 588 33 504 33 q 753 78 688 33 q 863 208 818 124 q 892 228 872 228 q 911 206 911 228 q 906 167 911 192 q 893 115 901 143 q 876 63 885 86 q 861 38 868 44 q 835 24 854 31 q 710 -10 782 1 q 564 -21 639 -21 m 558 964 q 496 990 522 964 q 469 1050 469 1015 q 496 1113 469 1088 q 558 1138 522 1138 q 624 1113 597 1138 q 650 1050 650 1088 q 624 990 650 1015 q 558 964 597 964 z "},"D":{"ha":1053,"x_min":35,"x_max":1008,"o":"m 521 -10 q 444 -7 494 -10 q 336 -2 393 -4 q 235 0 279 0 q 183 -1 207 0 q 132 -4 158 -3 q 71 -6 106 -6 q 45 -1 56 -6 q 35 13 35 3 q 44 28 35 24 q 75 38 54 33 q 148 68 128 47 q 168 136 168 89 l 168 764 q 148 831 168 811 q 75 863 128 851 q 44 872 54 867 q 35 889 35 878 q 45 903 35 899 q 71 908 56 908 q 132 907 106 908 q 183 905 158 906 q 240 904 208 904 q 297 906 263 904 q 371 910 332 907 q 443 914 410 913 q 494 915 476 915 q 719 882 622 915 q 879 788 815 849 q 976 647 943 728 q 1008 472 1008 567 q 973 288 1008 375 q 872 134 938 201 q 717 28 806 67 q 521 -10 628 -10 m 503 47 q 682 97 606 47 q 800 237 758 147 q 842 443 842 326 q 813 619 842 542 q 734 750 783 696 q 620 833 685 804 q 485 861 556 861 q 392 858 431 861 q 335 839 354 854 q 315 788 315 824 l 315 174 q 341 94 315 121 q 410 57 367 67 q 503 47 453 47 z "},"Ð":{"ha":1053,"x_min":35,"x_max":1008,"o":"m 82 435 q 64 446 69 435 q 58 465 58 457 q 69 487 58 478 q 94 496 81 496 l 518 496 q 533 490 526 496 q 540 476 540 485 q 540 474 540 475 q 539 472 539 474 q 522 446 533 457 q 492 435 510 435 l 82 435 m 521 -10 q 444 -7 494 -10 q 336 -2 393 -4 q 235 0 279 0 q 183 -1 207 0 q 132 -4 158 -3 q 71 -6 106 -6 q 45 -1 56 -6 q 35 13 35 3 q 44 28 35 24 q 75 38 54 33 q 148 68 128 47 q 168 136 168 89 l 168 764 q 148 831 168 811 q 75 863 128 851 q 44 872 54 867 q 35 889 35 878 q 45 903 35 899 q 71 908 56 908 q 132 907 106 908 q 183 905 158 906 q 240 904 208 904 q 297 906 263 904 q 371 910 332 907 q 443 914 410 913 q 494 915 476 915 q 719 882 622 915 q 879 788 815 849 q 976 647 943 728 q 1008 472 1008 567 q 973 288 1008 375 q 872 134 938 201 q 717 28 806 67 q 521 -10 628 -10 m 503 47 q 682 97 606 47 q 800 237 758 147 q 842 443 842 326 q 813 619 842 542 q 734 750 783 696 q 620 833 685 804 q 485 861 556 861 q 392 858 431 861 q 335 839 354 854 q 315 788 315 824 l 315 174 q 341 94 315 121 q 410 57 367 67 q 503 47 453 47 z "},"Ď":{"ha":1053,"x_min":35,"x_max":1008,"o":"m 521 -10 q 444 -7 494 -10 q 336 -2 393 -4 q 235 0 279 0 q 183 -1 207 0 q 132 -4 158 -3 q 71 -6 106 -6 q 45 -1 56 -6 q 35 13 35 3 q 44 28 35 24 q 75 38 54 33 q 148 68 128 47 q 168 136 168 89 l 168 764 q 148 831 168 811 q 75 863 128 851 q 44 872 54 867 q 35 889 35 878 q 45 903 35 899 q 71 908 56 908 q 132 907 106 908 q 183 905 158 906 q 240 904 208 904 q 297 906 263 904 q 371 910 332 907 q 443 914 410 913 q 494 915 476 915 q 719 882 622 915 q 879 788 815 849 q 976 647 943 728 q 1008 472 1008 567 q 973 288 1008 375 q 872 134 938 201 q 717 28 806 67 q 521 -10 628 -10 m 503 47 q 682 97 606 47 q 800 237 758 147 q 842 443 842 326 q 813 619 842 542 q 734 750 783 696 q 620 833 685 804 q 485 861 556 861 q 392 858 431 861 q 335 839 354 854 q 315 788 315 824 l 315 174 q 341 94 315 121 q 410 57 367 67 q 503 47 453 47 m 325 1154 q 356 1146 333 1154 q 405 1126 378 1138 q 458 1101 432 1114 q 499 1081 485 1089 q 514 1075 508 1075 q 529 1081 519 1075 q 570 1101 544 1089 q 624 1126 596 1114 q 674 1147 651 1139 q 703 1156 696 1156 q 724 1139 724 1156 q 715 1121 724 1128 l 575 1006 q 542 979 554 988 q 514 971 531 971 q 486 979 497 971 q 453 1006 475 988 l 313 1121 q 303 1139 303 1131 q 325 1154 303 1154 z "},"Đ":{"ha":1053,"x_min":35,"x_max":1008,"o":"m 82 435 q 64 446 69 435 q 58 465 58 457 q 69 487 58 478 q 94 496 81 496 l 518 496 q 533 490 526 496 q 540 476 540 485 q 540 474 540 475 q 539 472 539 474 q 522 446 533 457 q 492 435 510 435 l 82 435 m 521 -10 q 444 -7 494 -10 q 336 -2 393 -4 q 235 0 279 0 q 183 -1 207 0 q 132 -4 158 -3 q 71 -6 106 -6 q 45 -1 56 -6 q 35 13 35 3 q 44 28 35 24 q 75 38 54 33 q 148 68 128 47 q 168 136 168 89 l 168 764 q 148 831 168 811 q 75 863 128 851 q 44 872 54 867 q 35 889 35 878 q 45 903 35 899 q 71 908 56 908 q 132 907 106 908 q 183 905 158 906 q 240 904 208 904 q 297 906 263 904 q 371 910 332 907 q 443 914 410 913 q 494 915 476 915 q 719 882 622 915 q 879 788 815 849 q 976 647 943 728 q 1008 472 1008 567 q 973 288 1008 375 q 872 134 938 201 q 717 28 806 67 q 521 -10 628 -10 m 503 47 q 682 97 606 47 q 800 237 758 147 q 842 443 842 326 q 813 619 842 542 q 734 750 783 696 q 620 833 685 804 q 485 861 556 861 q 392 858 431 861 q 335 839 354 854 q 315 788 315 824 l 315 174 q 341 94 315 121 q 410 57 367 67 q 503 47 453 47 z "},"E":{"ha":789,"x_min":43,"x_max":758,"o":"m 79 -7 q 53 -3 63 -7 q 43 10 43 1 q 83 36 43 28 q 158 67 135 47 q 181 136 181 88 l 181 764 q 161 832 181 811 q 90 863 142 853 q 60 874 69 867 q 50 890 50 881 q 60 903 50 899 q 86 908 69 908 q 169 907 132 908 q 241 904 206 906 q 318 903 276 903 q 435 903 374 903 q 547 906 497 904 q 626 908 594 906 q 663 910 657 910 q 680 906 671 910 q 690 893 689 903 q 705 809 697 850 q 713 738 713 768 q 706 719 713 724 q 693 714 700 714 q 682 718 686 714 q 674 731 678 722 q 656 781 664 758 q 636 815 647 804 q 594 844 618 835 q 542 854 571 854 l 386 854 q 348 841 368 854 q 328 804 328 828 l 328 521 q 336 499 328 507 q 356 490 344 490 l 488 490 q 543 508 528 490 q 568 564 558 526 q 594 592 578 592 q 607 585 601 592 q 613 567 613 579 q 611 539 613 558 q 608 499 610 519 q 607 465 607 478 q 608 428 607 450 q 610 386 608 407 q 611 356 611 365 q 609 335 613 343 q 599 328 606 328 q 565 368 576 328 q 542 422 557 404 q 500 440 528 440 l 371 440 q 338 433 349 440 q 328 404 328 426 l 328 139 q 349 72 328 90 q 413 53 369 53 l 522 53 q 590 58 561 53 q 640 79 619 64 q 682 122 664 96 q 719 188 700 149 q 731 201 725 196 q 743 204 736 206 q 755 198 751 204 q 758 182 758 192 q 751 136 758 167 q 734 72 744 106 q 715 15 724 39 q 706 -1 711 6 q 692 -7 700 -7 q 588 -6 642 -7 q 476 -3 533 -4 q 363 0 419 -1 q 250 1 306 1 q 194 -1 221 1 q 141 -5 168 -3 q 79 -7 114 -7 z "},"É":{"ha":789,"x_min":43,"x_max":758,"o":"m 79 -7 q 53 -3 63 -7 q 43 10 43 1 q 83 36 43 28 q 158 67 135 47 q 181 136 181 88 l 181 764 q 161 832 181 811 q 90 863 142 853 q 60 874 69 867 q 50 890 50 881 q 60 903 50 899 q 86 908 69 908 q 169 907 132 908 q 241 904 206 906 q 318 903 276 903 q 435 903 374 903 q 547 906 497 904 q 626 908 594 906 q 663 910 657 910 q 680 906 671 910 q 690 893 689 903 q 705 809 697 850 q 713 738 713 768 q 706 719 713 724 q 693 714 700 714 q 682 718 686 714 q 674 731 678 722 q 656 781 664 758 q 636 815 647 804 q 594 844 618 835 q 542 854 571 854 l 386 854 q 348 841 368 854 q 328 804 328 828 l 328 521 q 336 499 328 507 q 356 490 344 490 l 488 490 q 543 508 528 490 q 568 564 558 526 q 594 592 578 592 q 607 585 601 592 q 613 567 613 579 q 611 539 613 558 q 608 499 610 519 q 607 465 607 478 q 608 428 607 450 q 610 386 608 407 q 611 356 611 365 q 609 335 613 343 q 599 328 606 328 q 565 368 576 328 q 542 422 557 404 q 500 440 528 440 l 371 440 q 338 433 349 440 q 328 404 328 426 l 328 139 q 349 72 328 90 q 413 53 369 53 l 522 53 q 590 58 561 53 q 640 79 619 64 q 682 122 664 96 q 719 188 700 149 q 731 201 725 196 q 743 204 736 206 q 755 198 751 204 q 758 182 758 192 q 751 136 758 167 q 734 72 744 106 q 715 15 724 39 q 706 -1 711 6 q 692 -7 700 -7 q 588 -6 642 -7 q 476 -3 533 -4 q 363 0 419 -1 q 250 1 306 1 q 194 -1 221 1 q 141 -5 168 -3 q 79 -7 114 -7 m 361 950 q 350 960 350 951 q 360 983 350 969 q 419 1069 389 1026 q 482 1151 449 1111 q 522 1169 496 1171 q 553 1163 532 1168 q 592 1149 575 1157 q 610 1131 610 1140 q 589 1103 608 1118 q 490 1031 543 1067 q 390 963 436 994 q 372 953 379 956 q 361 950 365 950 z "},"Ĕ":{"ha":789,"x_min":43,"x_max":758,"o":"m 79 -7 q 53 -3 63 -7 q 43 10 43 1 q 83 36 43 28 q 158 67 135 47 q 181 136 181 88 l 181 764 q 161 832 181 811 q 90 863 142 853 q 60 874 69 867 q 50 890 50 881 q 60 903 50 899 q 86 908 69 908 q 169 907 132 908 q 241 904 206 906 q 318 903 276 903 q 435 903 374 903 q 547 906 497 904 q 626 908 594 906 q 663 910 657 910 q 680 906 671 910 q 690 893 689 903 q 705 809 697 850 q 713 738 713 768 q 706 719 713 724 q 693 714 700 714 q 682 718 686 714 q 674 731 678 722 q 656 781 664 758 q 636 815 647 804 q 594 844 618 835 q 542 854 571 854 l 386 854 q 348 841 368 854 q 328 804 328 828 l 328 521 q 336 499 328 507 q 356 490 344 490 l 488 490 q 543 508 528 490 q 568 564 558 526 q 594 592 578 592 q 607 585 601 592 q 613 567 613 579 q 611 539 613 558 q 608 499 610 519 q 607 465 607 478 q 608 428 607 450 q 610 386 608 407 q 611 356 611 365 q 609 335 613 343 q 599 328 606 328 q 565 368 576 328 q 542 422 557 404 q 500 440 528 440 l 371 440 q 338 433 349 440 q 328 404 328 426 l 328 139 q 349 72 328 90 q 413 53 369 53 l 522 53 q 590 58 561 53 q 640 79 619 64 q 682 122 664 96 q 719 188 700 149 q 731 201 725 196 q 743 204 736 206 q 755 198 751 204 q 758 182 758 192 q 751 136 758 167 q 734 72 744 106 q 715 15 724 39 q 706 -1 711 6 q 692 -7 700 -7 q 588 -6 642 -7 q 476 -3 533 -4 q 363 0 419 -1 q 250 1 306 1 q 194 -1 221 1 q 141 -5 168 -3 q 79 -7 114 -7 m 414 958 q 308 985 351 958 q 242 1047 265 1011 q 219 1113 219 1083 q 224 1138 219 1128 q 235 1147 228 1147 q 256 1138 247 1147 q 271 1118 264 1128 q 334 1068 300 1083 q 414 1053 368 1053 q 494 1068 460 1053 q 557 1118 528 1083 q 574 1138 565 1128 q 593 1147 582 1147 q 606 1138 604 1147 q 608 1113 608 1128 q 585 1047 608 1083 q 520 985 563 1011 q 414 958 478 958 z "},"Ě":{"ha":789,"x_min":43,"x_max":758,"o":"m 79 -7 q 53 -3 63 -7 q 43 10 43 1 q 83 36 43 28 q 158 67 135 47 q 181 136 181 88 l 181 764 q 161 832 181 811 q 90 863 142 853 q 60 874 69 867 q 50 890 50 881 q 60 903 50 899 q 86 908 69 908 q 169 907 132 908 q 241 904 206 906 q 318 903 276 903 q 435 903 374 903 q 547 906 497 904 q 626 908 594 906 q 663 910 657 910 q 680 906 671 910 q 690 893 689 903 q 705 809 697 850 q 713 738 713 768 q 706 719 713 724 q 693 714 700 714 q 682 718 686 714 q 674 731 678 722 q 656 781 664 758 q 636 815 647 804 q 594 844 618 835 q 542 854 571 854 l 386 854 q 348 841 368 854 q 328 804 328 828 l 328 521 q 336 499 328 507 q 356 490 344 490 l 488 490 q 543 508 528 490 q 568 564 558 526 q 594 592 578 592 q 607 585 601 592 q 613 567 613 579 q 611 539 613 558 q 608 499 610 519 q 607 465 607 478 q 608 428 607 450 q 610 386 608 407 q 611 356 611 365 q 609 335 613 343 q 599 328 606 328 q 565 368 576 328 q 542 422 557 404 q 500 440 528 440 l 371 440 q 338 433 349 440 q 328 404 328 426 l 328 139 q 349 72 328 90 q 413 53 369 53 l 522 53 q 590 58 561 53 q 640 79 619 64 q 682 122 664 96 q 719 188 700 149 q 731 201 725 196 q 743 204 736 206 q 755 198 751 204 q 758 182 758 192 q 751 136 758 167 q 734 72 744 106 q 715 15 724 39 q 706 -1 711 6 q 692 -7 700 -7 q 588 -6 642 -7 q 476 -3 533 -4 q 363 0 419 -1 q 250 1 306 1 q 194 -1 221 1 q 141 -5 168 -3 q 79 -7 114 -7 m 226 1154 q 257 1146 235 1154 q 306 1126 279 1138 q 360 1101 333 1114 q 400 1081 386 1089 q 415 1075 410 1075 q 431 1081 421 1075 q 472 1101 446 1089 q 525 1126 497 1114 q 575 1147 553 1139 q 604 1156 597 1156 q 625 1139 625 1156 q 617 1121 625 1128 l 476 1006 q 444 979 456 988 q 415 971 432 971 q 388 979 399 971 q 354 1006 376 988 l 214 1121 q 204 1139 204 1131 q 226 1154 204 1154 z "},"Ê":{"ha":789,"x_min":43,"x_max":758,"o":"m 79 -7 q 53 -3 63 -7 q 43 10 43 1 q 83 36 43 28 q 158 67 135 47 q 181 136 181 88 l 181 764 q 161 832 181 811 q 90 863 142 853 q 60 874 69 867 q 50 890 50 881 q 60 903 50 899 q 86 908 69 908 q 169 907 132 908 q 241 904 206 906 q 318 903 276 903 q 435 903 374 903 q 547 906 497 904 q 626 908 594 906 q 663 910 657 910 q 680 906 671 910 q 690 893 689 903 q 705 809 697 850 q 713 738 713 768 q 706 719 713 724 q 693 714 700 714 q 682 718 686 714 q 674 731 678 722 q 656 781 664 758 q 636 815 647 804 q 594 844 618 835 q 542 854 571 854 l 386 854 q 348 841 368 854 q 328 804 328 828 l 328 521 q 336 499 328 507 q 356 490 344 490 l 488 490 q 543 508 528 490 q 568 564 558 526 q 594 592 578 592 q 607 585 601 592 q 613 567 613 579 q 611 539 613 558 q 608 499 610 519 q 607 465 607 478 q 608 428 607 450 q 610 386 608 407 q 611 356 611 365 q 609 335 613 343 q 599 328 606 328 q 565 368 576 328 q 542 422 557 404 q 500 440 528 440 l 371 440 q 338 433 349 440 q 328 404 328 426 l 328 139 q 349 72 328 90 q 413 53 369 53 l 522 53 q 590 58 561 53 q 640 79 619 64 q 682 122 664 96 q 719 188 700 149 q 731 201 725 196 q 743 204 736 206 q 755 198 751 204 q 758 182 758 192 q 751 136 758 167 q 734 72 744 106 q 715 15 724 39 q 706 -1 711 6 q 692 -7 700 -7 q 588 -6 642 -7 q 476 -3 533 -4 q 363 0 419 -1 q 250 1 306 1 q 194 -1 221 1 q 141 -5 168 -3 q 79 -7 114 -7 m 225 965 q 203 981 203 965 q 213 999 203 990 l 353 1119 q 385 1145 374 1138 q 414 1153 397 1153 q 442 1145 431 1153 q 475 1119 454 1138 l 615 999 q 624 981 624 992 q 603 964 624 964 q 574 972 596 964 q 524 993 551 981 q 470 1018 496 1006 q 429 1039 444 1031 q 414 1044 419 1044 q 399 1039 408 1044 q 358 1018 385 1031 q 305 994 332 1006 q 256 974 278 982 q 225 965 233 965 z "},"Ë":{"ha":789,"x_min":43,"x_max":758,"o":"m 79 -7 q 53 -3 63 -7 q 43 10 43 1 q 83 36 43 28 q 158 67 135 47 q 181 136 181 88 l 181 764 q 161 832 181 811 q 90 863 142 853 q 60 874 69 867 q 50 890 50 881 q 60 903 50 899 q 86 908 69 908 q 169 907 132 908 q 241 904 206 906 q 318 903 276 903 q 435 903 374 903 q 547 906 497 904 q 626 908 594 906 q 663 910 657 910 q 680 906 671 910 q 690 893 689 903 q 705 809 697 850 q 713 738 713 768 q 706 719 713 724 q 693 714 700 714 q 682 718 686 714 q 674 731 678 722 q 656 781 664 758 q 636 815 647 804 q 594 844 618 835 q 542 854 571 854 l 386 854 q 348 841 368 854 q 328 804 328 828 l 328 521 q 336 499 328 507 q 356 490 344 490 l 488 490 q 543 508 528 490 q 568 564 558 526 q 594 592 578 592 q 607 585 601 592 q 613 567 613 579 q 611 539 613 558 q 608 499 610 519 q 607 465 607 478 q 608 428 607 450 q 610 386 608 407 q 611 356 611 365 q 609 335 613 343 q 599 328 606 328 q 565 368 576 328 q 542 422 557 404 q 500 440 528 440 l 371 440 q 338 433 349 440 q 328 404 328 426 l 328 139 q 349 72 328 90 q 413 53 369 53 l 522 53 q 590 58 561 53 q 640 79 619 64 q 682 122 664 96 q 719 188 700 149 q 731 201 725 196 q 743 204 736 206 q 755 198 751 204 q 758 182 758 192 q 751 136 758 167 q 734 72 744 106 q 715 15 724 39 q 706 -1 711 6 q 692 -7 700 -7 q 588 -6 642 -7 q 476 -3 533 -4 q 363 0 419 -1 q 250 1 306 1 q 194 -1 221 1 q 141 -5 168 -3 q 79 -7 114 -7 m 551 961 q 494 985 518 961 q 471 1042 471 1008 q 494 1099 471 1075 q 551 1122 518 1122 q 608 1099 585 1122 q 632 1042 632 1075 q 608 985 632 1008 q 551 961 585 961 m 279 961 q 222 985 246 961 q 199 1042 199 1008 q 222 1099 199 1075 q 279 1122 246 1122 q 338 1099 314 1122 q 361 1042 361 1075 q 338 985 361 1008 q 279 961 314 961 z "},"Ė":{"ha":789,"x_min":43,"x_max":758,"o":"m 79 -7 q 53 -3 63 -7 q 43 10 43 1 q 83 36 43 28 q 158 67 135 47 q 181 136 181 88 l 181 764 q 161 832 181 811 q 90 863 142 853 q 60 874 69 867 q 50 890 50 881 q 60 903 50 899 q 86 908 69 908 q 169 907 132 908 q 241 904 206 906 q 318 903 276 903 q 435 903 374 903 q 547 906 497 904 q 626 908 594 906 q 663 910 657 910 q 680 906 671 910 q 690 893 689 903 q 705 809 697 850 q 713 738 713 768 q 706 719 713 724 q 693 714 700 714 q 682 718 686 714 q 674 731 678 722 q 656 781 664 758 q 636 815 647 804 q 594 844 618 835 q 542 854 571 854 l 386 854 q 348 841 368 854 q 328 804 328 828 l 328 521 q 336 499 328 507 q 356 490 344 490 l 488 490 q 543 508 528 490 q 568 564 558 526 q 594 592 578 592 q 607 585 601 592 q 613 567 613 579 q 611 539 613 558 q 608 499 610 519 q 607 465 607 478 q 608 428 607 450 q 610 386 608 407 q 611 356 611 365 q 609 335 613 343 q 599 328 606 328 q 565 368 576 328 q 542 422 557 404 q 500 440 528 440 l 371 440 q 338 433 349 440 q 328 404 328 426 l 328 139 q 349 72 328 90 q 413 53 369 53 l 522 53 q 590 58 561 53 q 640 79 619 64 q 682 122 664 96 q 719 188 700 149 q 731 201 725 196 q 743 204 736 206 q 755 198 751 204 q 758 182 758 192 q 751 136 758 167 q 734 72 744 106 q 715 15 724 39 q 706 -1 711 6 q 692 -7 700 -7 q 588 -6 642 -7 q 476 -3 533 -4 q 363 0 419 -1 q 250 1 306 1 q 194 -1 221 1 q 141 -5 168 -3 q 79 -7 114 -7 m 414 964 q 351 990 378 964 q 325 1050 325 1015 q 351 1113 325 1088 q 414 1138 378 1138 q 479 1113 453 1138 q 506 1050 506 1088 q 479 990 506 1015 q 414 964 453 964 z "},"È":{"ha":789,"x_min":43,"x_max":758,"o":"m 457 950 q 447 953 454 950 q 428 963 439 956 q 329 1031 383 994 q 231 1103 275 1067 q 210 1131 211 1118 q 226 1149 208 1140 q 265 1163 243 1157 q 296 1169 286 1168 q 338 1151 322 1171 q 399 1069 369 1111 q 458 983 429 1026 q 468 960 468 969 q 457 950 468 951 m 79 -7 q 53 -3 63 -7 q 43 10 43 1 q 83 36 43 28 q 158 67 135 47 q 181 136 181 88 l 181 764 q 161 832 181 811 q 90 863 142 853 q 60 874 69 867 q 50 890 50 881 q 60 903 50 899 q 86 908 69 908 q 169 907 132 908 q 241 904 206 906 q 318 903 276 903 q 435 903 374 903 q 547 906 497 904 q 626 908 594 906 q 663 910 657 910 q 680 906 671 910 q 690 893 689 903 q 705 809 697 850 q 713 738 713 768 q 706 719 713 724 q 693 714 700 714 q 682 718 686 714 q 674 731 678 722 q 656 781 664 758 q 636 815 647 804 q 594 844 618 835 q 542 854 571 854 l 386 854 q 348 841 368 854 q 328 804 328 828 l 328 521 q 336 499 328 507 q 356 490 344 490 l 488 490 q 543 508 528 490 q 568 564 558 526 q 594 592 578 592 q 607 585 601 592 q 613 567 613 579 q 611 539 613 558 q 608 499 610 519 q 607 465 607 478 q 608 428 607 450 q 610 386 608 407 q 611 356 611 365 q 609 335 613 343 q 599 328 606 328 q 565 368 576 328 q 542 422 557 404 q 500 440 528 440 l 371 440 q 338 433 349 440 q 328 404 328 426 l 328 139 q 349 72 328 90 q 413 53 369 53 l 522 53 q 590 58 561 53 q 640 79 619 64 q 682 122 664 96 q 719 188 700 149 q 731 201 725 196 q 743 204 736 206 q 755 198 751 204 q 758 182 758 192 q 751 136 758 167 q 734 72 744 106 q 715 15 724 39 q 706 -1 711 6 q 692 -7 700 -7 q 588 -6 642 -7 q 476 -3 533 -4 q 363 0 419 -1 q 250 1 306 1 q 194 -1 221 1 q 141 -5 168 -3 q 79 -7 114 -7 z "},"Ē":{"ha":789,"x_min":43,"x_max":758,"o":"m 79 -7 q 53 -3 63 -7 q 43 10 43 1 q 83 36 43 28 q 158 67 135 47 q 181 136 181 88 l 181 764 q 161 832 181 811 q 90 863 142 853 q 60 874 69 867 q 50 890 50 881 q 60 903 50 899 q 86 908 69 908 q 169 907 132 908 q 241 904 206 906 q 318 903 276 903 q 435 903 374 903 q 547 906 497 904 q 626 908 594 906 q 663 910 657 910 q 680 906 671 910 q 690 893 689 903 q 705 809 697 850 q 713 738 713 768 q 706 719 713 724 q 693 714 700 714 q 682 718 686 714 q 674 731 678 722 q 656 781 664 758 q 636 815 647 804 q 594 844 618 835 q 542 854 571 854 l 386 854 q 348 841 368 854 q 328 804 328 828 l 328 521 q 336 499 328 507 q 356 490 344 490 l 488 490 q 543 508 528 490 q 568 564 558 526 q 594 592 578 592 q 607 585 601 592 q 613 567 613 579 q 611 539 613 558 q 608 499 610 519 q 607 465 607 478 q 608 428 607 450 q 610 386 608 407 q 611 356 611 365 q 609 335 613 343 q 599 328 606 328 q 565 368 576 328 q 542 422 557 404 q 500 440 528 440 l 371 440 q 338 433 349 440 q 328 404 328 426 l 328 139 q 349 72 328 90 q 413 53 369 53 l 522 53 q 590 58 561 53 q 640 79 619 64 q 682 122 664 96 q 719 188 700 149 q 731 201 725 196 q 743 204 736 206 q 755 198 751 204 q 758 182 758 192 q 751 136 758 167 q 734 72 744 106 q 715 15 724 39 q 706 -1 711 6 q 692 -7 700 -7 q 588 -6 642 -7 q 476 -3 533 -4 q 363 0 419 -1 q 250 1 306 1 q 194 -1 221 1 q 141 -5 168 -3 q 79 -7 114 -7 m 226 1001 q 210 1008 217 1001 q 204 1021 204 1014 q 208 1049 204 1033 q 222 1077 213 1065 q 243 1089 231 1089 l 611 1089 q 626 1083 621 1089 q 632 1069 632 1078 q 617 1023 632 1044 q 585 1001 603 1001 l 226 1001 z "},"Ę":{"ha":757,"x_min":43,"x_max":758,"o":"m 79 -7 q 53 -3 63 -7 q 43 10 43 1 q 83 36 43 28 q 158 67 135 47 q 181 136 181 88 l 181 764 q 161 832 181 811 q 90 863 142 853 q 60 874 69 867 q 50 890 50 881 q 60 903 50 899 q 86 908 69 908 q 169 907 132 908 q 241 904 206 906 q 318 903 276 903 q 435 903 374 903 q 547 906 497 904 q 626 908 594 906 q 663 910 657 910 q 680 906 671 910 q 690 893 689 903 q 705 809 697 850 q 713 738 713 768 q 706 719 713 724 q 693 714 700 714 q 682 718 686 714 q 674 731 678 722 q 656 781 664 758 q 636 815 647 804 q 594 844 618 835 q 542 854 571 854 l 386 854 q 348 841 368 854 q 328 804 328 828 l 328 521 q 336 499 328 507 q 356 490 344 490 l 488 490 q 543 508 528 490 q 568 564 558 526 q 594 592 578 592 q 607 585 601 592 q 613 567 613 579 q 611 539 613 558 q 608 499 610 519 q 607 465 607 478 q 608 428 607 450 q 610 386 608 407 q 611 356 611 365 q 609 335 613 343 q 599 328 606 328 q 565 368 576 328 q 542 422 557 404 q 500 440 528 440 l 371 440 q 338 433 349 440 q 328 404 328 426 l 328 139 q 349 72 328 90 q 413 53 369 53 l 522 53 q 590 58 561 53 q 640 79 619 64 q 682 122 664 96 q 719 188 700 149 q 731 201 725 196 q 743 204 736 206 q 755 198 751 204 q 758 182 758 192 q 751 136 758 167 q 734 72 744 106 q 715 15 724 39 q 706 -1 711 6 q 692 -7 700 -7 q 588 -6 642 -7 q 476 -3 533 -4 q 363 0 419 -1 q 250 1 306 1 q 194 -1 221 1 q 141 -5 168 -3 q 79 -7 114 -7 m 539 -399 q 424 -354 469 -399 q 378 -242 378 -310 q 399 -165 378 -201 q 452 -96 421 -128 q 517 -38 483 -64 q 578 3 551 -12 q 615 25 606 19 l 658 25 q 626 -3 650 17 q 574 -54 601 -24 q 528 -124 547 -85 q 508 -211 508 -164 q 534 -270 508 -247 q 594 -293 560 -293 q 640 -283 618 -293 q 677 -260 661 -272 q 701 -242 693 -247 q 715 -239 707 -237 q 724 -254 724 -240 q 707 -302 724 -276 q 663 -350 690 -328 q 602 -385 635 -372 q 539 -399 569 -399 z "},"F":{"ha":728,"x_min":36,"x_max":694,"o":"m 71 -6 q 46 -2 56 -6 q 36 11 36 1 q 76 38 36 29 q 149 68 129 47 q 168 138 168 89 l 168 736 q 152 824 168 794 q 85 863 136 853 q 53 874 63 867 q 43 890 43 881 q 53 903 43 899 q 79 908 64 908 q 160 907 125 908 q 231 904 196 906 q 307 903 265 903 q 406 903 353 903 q 507 903 458 903 q 594 910 556 903 q 658 917 632 917 q 676 913 667 917 q 688 900 686 910 q 692 847 690 879 q 694 786 693 815 q 694 743 694 757 q 681 714 694 714 q 667 719 674 714 q 657 733 660 725 q 641 781 650 760 q 619 815 632 801 q 576 844 600 836 q 524 851 553 851 l 372 851 q 328 832 339 851 q 315 783 317 813 q 315 722 315 758 q 315 653 315 685 q 315 583 315 619 q 315 519 315 547 q 320 498 315 507 q 336 489 325 489 q 419 490 376 489 q 488 492 461 492 q 541 510 521 492 q 571 554 561 528 q 583 569 575 561 q 597 578 592 578 q 610 571 604 578 q 615 553 617 564 q 612 506 614 526 q 610 468 610 486 q 611 424 610 444 q 615 374 613 404 q 613 352 615 360 q 601 344 610 344 q 581 356 589 344 q 569 378 572 368 q 541 425 560 413 q 503 438 522 438 q 469 438 486 438 q 435 439 451 439 q 391 439 413 439 q 347 438 369 439 q 324 428 333 436 q 315 403 315 421 q 316 274 315 340 q 319 139 317 207 q 341 71 321 94 q 415 38 361 47 q 446 28 436 33 q 456 11 456 22 q 446 -1 456 3 q 421 -6 436 -6 q 358 -3 385 -6 q 307 1 331 -1 q 256 3 283 3 q 196 1 225 3 q 137 -3 167 -1 q 71 -6 107 -6 z "},"G":{"ha":1008,"x_min":54,"x_max":963,"o":"m 538 -19 q 353 14 440 -19 q 199 108 267 47 q 93 253 132 169 q 54 433 54 336 q 93 622 54 533 q 203 778 132 711 q 367 883 274 844 q 571 921 461 921 q 635 917 596 921 q 718 906 675 913 q 797 890 761 899 q 849 874 832 882 q 861 866 857 871 q 867 851 865 861 q 876 767 872 808 q 881 699 881 726 q 874 679 881 688 q 860 671 868 671 q 838 682 844 671 q 825 706 831 693 q 804 749 815 729 q 774 790 793 769 q 737 820 763 804 q 670 849 711 836 q 569 861 629 861 q 426 828 490 861 q 318 739 363 796 q 250 610 274 682 q 226 458 226 538 q 252 283 226 361 q 323 151 278 206 q 429 69 368 97 q 558 40 490 40 q 656 57 624 40 q 701 85 689 74 q 728 126 717 99 q 740 186 740 153 q 741 215 740 199 q 742 249 742 232 q 743 279 743 267 q 740 306 743 294 q 728 324 736 317 q 692 344 715 336 q 645 356 668 351 q 608 361 622 360 q 589 369 600 361 q 578 388 578 376 q 589 403 578 397 q 607 410 600 410 q 670 408 640 410 q 731 406 700 407 q 796 404 761 404 q 865 407 832 404 q 936 410 897 410 q 953 405 943 410 q 963 388 963 400 q 952 369 963 376 q 935 361 942 363 q 888 336 901 351 q 871 293 875 321 q 865 239 867 263 q 864 189 864 215 l 864 149 q 867 137 864 142 q 875 125 871 132 q 885 112 879 118 q 892 99 892 106 q 888 84 892 93 q 869 72 885 75 q 831 56 860 71 q 760 24 803 42 q 662 -6 718 7 q 538 -19 606 -19 z "},"Ğ":{"ha":1008,"x_min":54,"x_max":963,"o":"m 538 -19 q 353 14 440 -19 q 199 108 267 47 q 93 253 132 169 q 54 433 54 336 q 93 622 54 533 q 203 778 132 711 q 367 883 274 844 q 571 921 461 921 q 635 917 596 921 q 718 906 675 913 q 797 890 761 899 q 849 874 832 882 q 861 866 857 871 q 867 851 865 861 q 876 767 872 808 q 881 699 881 726 q 874 679 881 688 q 860 671 868 671 q 838 682 844 671 q 825 706 831 693 q 804 749 815 729 q 774 790 793 769 q 737 820 763 804 q 670 849 711 836 q 569 861 629 861 q 426 828 490 861 q 318 739 363 796 q 250 610 274 682 q 226 458 226 538 q 252 283 226 361 q 323 151 278 206 q 429 69 368 97 q 558 40 490 40 q 656 57 624 40 q 701 85 689 74 q 728 126 717 99 q 740 186 740 153 q 741 215 740 199 q 742 249 742 232 q 743 279 743 267 q 740 306 743 294 q 728 324 736 317 q 692 344 715 336 q 645 356 668 351 q 608 361 622 360 q 589 369 600 361 q 578 388 578 376 q 589 403 578 397 q 607 410 600 410 q 670 408 640 410 q 731 406 700 407 q 796 404 761 404 q 865 407 832 404 q 936 410 897 410 q 953 405 943 410 q 963 388 963 400 q 952 369 963 376 q 935 361 942 363 q 888 336 901 351 q 871 293 875 321 q 865 239 867 263 q 864 189 864 215 l 864 149 q 867 137 864 142 q 875 125 871 132 q 885 112 879 118 q 892 99 892 106 q 888 84 892 93 q 869 72 885 75 q 831 56 860 71 q 760 24 803 42 q 662 -6 718 7 q 538 -19 606 -19 m 574 958 q 468 985 511 958 q 402 1047 425 1011 q 379 1113 379 1083 q 383 1138 379 1128 q 394 1147 388 1147 q 415 1138 407 1147 q 431 1118 424 1128 q 494 1068 460 1083 q 574 1053 528 1053 q 653 1068 619 1053 q 717 1118 688 1083 q 733 1138 725 1128 q 753 1147 742 1147 q 766 1138 764 1147 q 768 1113 768 1128 q 745 1047 768 1083 q 680 985 722 1011 q 574 958 638 958 z "},"Ǧ":{"ha":1008,"x_min":54,"x_max":963,"o":"m 538 -19 q 353 14 440 -19 q 199 108 267 47 q 93 253 132 169 q 54 433 54 336 q 93 622 54 533 q 203 778 132 711 q 367 883 274 844 q 571 921 461 921 q 635 917 596 921 q 718 906 675 913 q 797 890 761 899 q 849 874 832 882 q 861 866 857 871 q 867 851 865 861 q 876 767 872 808 q 881 699 881 726 q 874 679 881 688 q 860 671 868 671 q 838 682 844 671 q 825 706 831 693 q 804 749 815 729 q 774 790 793 769 q 737 820 763 804 q 670 849 711 836 q 569 861 629 861 q 426 828 490 861 q 318 739 363 796 q 250 610 274 682 q 226 458 226 538 q 252 283 226 361 q 323 151 278 206 q 429 69 368 97 q 558 40 490 40 q 656 57 624 40 q 701 85 689 74 q 728 126 717 99 q 740 186 740 153 q 741 215 740 199 q 742 249 742 232 q 743 279 743 267 q 740 306 743 294 q 728 324 736 317 q 692 344 715 336 q 645 356 668 351 q 608 361 622 360 q 589 369 600 361 q 578 388 578 376 q 589 403 578 397 q 607 410 600 410 q 670 408 640 410 q 731 406 700 407 q 796 404 761 404 q 865 407 832 404 q 936 410 897 410 q 953 405 943 410 q 963 388 963 400 q 952 369 963 376 q 935 361 942 363 q 888 336 901 351 q 871 293 875 321 q 865 239 867 263 q 864 189 864 215 l 864 149 q 867 137 864 142 q 875 125 871 132 q 885 112 879 118 q 892 99 892 106 q 888 84 892 93 q 869 72 885 75 q 831 56 860 71 q 760 24 803 42 q 662 -6 718 7 q 538 -19 606 -19 m 386 1154 q 417 1146 394 1154 q 466 1126 439 1138 q 519 1101 493 1114 q 560 1081 546 1089 q 575 1075 569 1075 q 590 1081 581 1075 q 631 1101 606 1089 q 685 1126 657 1114 q 735 1147 713 1139 q 764 1156 757 1156 q 785 1139 785 1156 q 776 1121 785 1128 l 636 1006 q 603 979 615 988 q 575 971 592 971 q 547 979 558 971 q 514 1006 536 988 l 374 1121 q 364 1139 364 1131 q 386 1154 364 1154 z "},"Ĝ":{"ha":1008,"x_min":54,"x_max":963,"o":"m 538 -19 q 353 14 440 -19 q 199 108 267 47 q 93 253 132 169 q 54 433 54 336 q 93 622 54 533 q 203 778 132 711 q 367 883 274 844 q 571 921 461 921 q 635 917 596 921 q 718 906 675 913 q 797 890 761 899 q 849 874 832 882 q 861 866 857 871 q 867 851 865 861 q 876 767 872 808 q 881 699 881 726 q 874 679 881 688 q 860 671 868 671 q 838 682 844 671 q 825 706 831 693 q 804 749 815 729 q 774 790 793 769 q 737 820 763 804 q 670 849 711 836 q 569 861 629 861 q 426 828 490 861 q 318 739 363 796 q 250 610 274 682 q 226 458 226 538 q 252 283 226 361 q 323 151 278 206 q 429 69 368 97 q 558 40 490 40 q 656 57 624 40 q 701 85 689 74 q 728 126 717 99 q 740 186 740 153 q 741 215 740 199 q 742 249 742 232 q 743 279 743 267 q 740 306 743 294 q 728 324 736 317 q 692 344 715 336 q 645 356 668 351 q 608 361 622 360 q 589 369 600 361 q 578 388 578 376 q 589 403 578 397 q 607 410 600 410 q 670 408 640 410 q 731 406 700 407 q 796 404 761 404 q 865 407 832 404 q 936 410 897 410 q 953 405 943 410 q 963 388 963 400 q 952 369 963 376 q 935 361 942 363 q 888 336 901 351 q 871 293 875 321 q 865 239 867 263 q 864 189 864 215 l 864 149 q 867 137 864 142 q 875 125 871 132 q 885 112 879 118 q 892 99 892 106 q 888 84 892 93 q 869 72 885 75 q 831 56 860 71 q 760 24 803 42 q 662 -6 718 7 q 538 -19 606 -19 m 385 965 q 363 981 363 965 q 372 999 363 990 l 513 1119 q 545 1145 533 1138 q 574 1153 557 1153 q 602 1145 590 1153 q 635 1119 614 1138 l 775 999 q 783 981 783 992 q 763 964 783 964 q 733 972 756 964 q 683 993 711 981 q 630 1018 656 1006 q 589 1039 604 1031 q 574 1044 579 1044 q 558 1039 568 1044 q 518 1018 544 1031 q 465 994 492 1006 q 415 974 438 982 q 385 965 393 965 z "},"Ġ":{"ha":1008,"x_min":54,"x_max":963,"o":"m 538 -19 q 353 14 440 -19 q 199 108 267 47 q 93 253 132 169 q 54 433 54 336 q 93 622 54 533 q 203 778 132 711 q 367 883 274 844 q 571 921 461 921 q 635 917 596 921 q 718 906 675 913 q 797 890 761 899 q 849 874 832 882 q 861 866 857 871 q 867 851 865 861 q 876 767 872 808 q 881 699 881 726 q 874 679 881 688 q 860 671 868 671 q 838 682 844 671 q 825 706 831 693 q 804 749 815 729 q 774 790 793 769 q 737 820 763 804 q 670 849 711 836 q 569 861 629 861 q 426 828 490 861 q 318 739 363 796 q 250 610 274 682 q 226 458 226 538 q 252 283 226 361 q 323 151 278 206 q 429 69 368 97 q 558 40 490 40 q 656 57 624 40 q 701 85 689 74 q 728 126 717 99 q 740 186 740 153 q 741 215 740 199 q 742 249 742 232 q 743 279 743 267 q 740 306 743 294 q 728 324 736 317 q 692 344 715 336 q 645 356 668 351 q 608 361 622 360 q 589 369 600 361 q 578 388 578 376 q 589 403 578 397 q 607 410 600 410 q 670 408 640 410 q 731 406 700 407 q 796 404 761 404 q 865 407 832 404 q 936 410 897 410 q 953 405 943 410 q 963 388 963 400 q 952 369 963 376 q 935 361 942 363 q 888 336 901 351 q 871 293 875 321 q 865 239 867 263 q 864 189 864 215 l 864 149 q 867 137 864 142 q 875 125 871 132 q 885 112 879 118 q 892 99 892 106 q 888 84 892 93 q 869 72 885 75 q 831 56 860 71 q 760 24 803 42 q 662 -6 718 7 q 538 -19 606 -19 m 574 964 q 511 990 538 964 q 485 1050 485 1015 q 511 1113 485 1088 q 574 1138 538 1138 q 639 1113 613 1138 q 665 1050 665 1088 q 639 990 665 1015 q 574 964 613 964 z "},"Ɂ":{"ha":658,"x_min":40,"x_max":617,"o":"m 129 -6 q 103 -2 114 -6 q 93 11 93 1 q 133 38 93 29 q 211 68 186 47 q 236 135 236 89 l 236 326 q 258 400 236 369 q 306 451 279 431 q 347 482 333 471 q 394 524 369 500 q 437 585 419 547 q 454 679 454 622 q 433 775 454 732 q 375 844 413 818 q 288 871 338 871 q 210 856 242 871 q 159 819 179 842 q 128 772 139 797 q 108 726 117 747 q 90 693 101 711 q 68 665 79 675 q 58 663 64 660 q 46 676 51 667 q 40 696 40 685 q 42 734 40 710 q 48 785 44 758 q 56 833 51 813 q 65 857 60 853 q 131 879 88 864 q 228 908 175 894 q 329 922 281 922 q 478 894 413 922 q 580 815 543 865 q 617 697 617 765 q 598 599 617 640 q 551 527 579 557 q 494 475 524 497 q 440 438 464 453 q 392 386 400 408 q 385 326 385 364 l 385 135 q 410 69 385 90 q 486 38 435 49 q 517 28 507 33 q 528 11 528 22 q 519 -1 528 3 q 493 -6 510 -6 q 429 -3 458 -6 q 373 0 400 -1 q 315 1 346 1 q 254 0 283 1 q 194 -3 225 -1 q 129 -6 164 -6 z "},"Ȝ":{"ha":743,"x_min":-17,"x_max":717,"o":"m 157 -278 q 32 -267 81 -278 q -17 -232 -17 -257 q 0 -176 -17 -203 q 36 -149 17 -149 q 64 -162 49 -149 q 101 -190 79 -175 q 144 -210 119 -201 q 200 -219 168 -219 q 355 -187 289 -219 q 465 -101 421 -156 q 532 16 510 -47 q 554 139 554 79 q 534 248 554 199 q 473 327 514 297 q 368 357 432 357 q 292 345 325 357 q 236 321 258 333 q 203 308 214 308 q 183 315 192 308 q 171 331 175 322 q 168 347 167 340 q 188 374 169 358 q 219 394 207 389 q 338 457 286 422 q 422 546 390 492 q 453 683 453 600 q 434 773 453 731 q 382 842 415 815 q 301 869 349 869 q 218 856 253 869 q 158 815 183 842 q 124 762 139 793 q 99 692 108 731 q 83 668 96 676 q 63 660 71 660 q 50 670 56 660 q 44 692 44 681 q 49 759 44 726 q 58 831 53 792 q 65 851 61 843 q 79 861 69 858 q 153 885 111 871 q 240 911 194 900 q 328 922 286 922 q 469 896 404 922 q 573 821 533 869 q 613 706 613 772 q 567 555 613 621 q 463 453 522 489 q 456 443 454 449 q 464 436 457 438 q 605 397 549 432 q 689 306 661 363 q 717 182 717 250 q 681 25 717 106 q 574 -125 644 -56 q 398 -236 503 -194 q 157 -278 293 -278 z "},"H":{"ha":1121,"x_min":43,"x_max":1075,"o":"m 78 -6 q 53 -1 63 -6 q 43 13 43 4 q 82 38 43 29 q 150 68 133 47 q 167 136 167 89 l 167 765 q 154 832 167 813 q 90 863 142 851 q 50 889 50 871 q 59 903 50 897 q 85 908 68 908 q 146 907 121 908 q 194 904 171 906 q 244 903 217 903 q 298 903 274 903 q 349 906 322 904 q 411 907 376 907 q 447 889 447 907 q 437 872 447 878 q 407 863 426 867 q 334 828 354 850 q 314 765 314 806 l 314 500 q 320 488 314 490 q 333 485 326 485 l 797 485 q 810 503 810 485 l 810 765 q 791 827 810 804 q 718 863 772 850 q 688 872 697 867 q 678 889 678 878 q 713 907 678 907 q 776 906 747 907 q 833 903 806 904 q 889 903 860 903 q 935 904 915 903 q 978 907 956 906 q 1038 908 1001 908 q 1064 903 1054 908 q 1074 889 1074 897 q 1033 863 1074 871 q 969 830 982 851 q 957 767 957 808 l 957 138 q 972 68 957 89 q 1036 38 986 47 q 1075 13 1075 29 q 1065 -1 1075 4 q 1039 -6 1054 -6 q 980 -3 1006 -6 q 931 0 954 -1 q 879 1 907 1 q 826 0 850 1 q 774 -3 801 -1 q 711 -6 746 -6 q 685 -1 694 -6 q 676 13 676 4 q 685 28 676 24 q 715 38 694 33 q 786 69 763 47 q 810 135 810 92 l 810 403 q 808 417 810 411 q 799 424 807 424 l 325 424 q 314 407 314 424 l 314 144 q 342 75 314 103 q 418 38 369 47 q 449 28 439 33 q 458 13 458 24 q 449 -1 458 4 q 422 -6 439 -6 q 358 -3 388 -6 q 302 0 329 -1 q 244 1 275 1 q 192 0 217 1 q 140 -3 167 -1 q 78 -6 113 -6 z "},"Ħ":{"ha":1121,"x_min":43,"x_max":1075,"o":"m 85 629 q 67 638 75 629 q 58 660 58 647 q 69 682 58 674 q 94 690 79 690 l 1040 690 q 1056 685 1050 690 q 1063 671 1063 679 q 1048 644 1063 658 q 1015 629 1033 629 l 85 629 m 78 -6 q 53 -1 63 -6 q 43 13 43 4 q 82 38 43 29 q 150 68 133 47 q 167 136 167 89 l 167 765 q 154 832 167 813 q 90 863 142 851 q 50 889 50 871 q 59 903 50 897 q 85 908 68 908 q 146 907 121 908 q 194 904 171 906 q 244 903 217 903 q 298 903 274 903 q 349 906 322 904 q 411 907 376 907 q 447 889 447 907 q 437 872 447 878 q 407 863 426 867 q 334 828 354 850 q 314 765 314 806 l 314 500 q 320 488 314 490 q 333 485 326 485 l 797 485 q 810 503 810 485 l 810 765 q 791 827 810 804 q 718 863 772 850 q 688 872 697 867 q 678 889 678 878 q 713 907 678 907 q 776 906 747 907 q 833 903 806 904 q 889 903 860 903 q 935 904 915 903 q 978 907 956 906 q 1038 908 1001 908 q 1064 903 1054 908 q 1074 889 1074 897 q 1033 863 1074 871 q 969 830 982 851 q 957 767 957 808 l 957 138 q 972 68 957 89 q 1036 38 986 47 q 1075 13 1075 29 q 1065 -1 1075 4 q 1039 -6 1054 -6 q 980 -3 1006 -6 q 931 0 954 -1 q 879 1 907 1 q 826 0 850 1 q 774 -3 801 -1 q 711 -6 746 -6 q 685 -1 694 -6 q 676 13 676 4 q 685 28 676 24 q 715 38 694 33 q 786 69 763 47 q 810 135 810 92 l 810 403 q 808 417 810 411 q 799 424 807 424 l 325 424 q 314 407 314 424 l 314 144 q 342 75 314 103 q 418 38 369 47 q 449 28 439 33 q 458 13 458 24 q 449 -1 458 4 q 422 -6 439 -6 q 358 -3 388 -6 q 302 0 329 -1 q 244 1 275 1 q 192 0 217 1 q 140 -3 167 -1 q 78 -6 113 -6 z "},"Ĥ":{"ha":1121,"x_min":43,"x_max":1075,"o":"m 78 -6 q 53 -1 63 -6 q 43 13 43 4 q 82 38 43 29 q 150 68 133 47 q 167 136 167 89 l 167 765 q 154 832 167 813 q 90 863 142 851 q 50 889 50 871 q 59 903 50 897 q 85 908 68 908 q 146 907 121 908 q 194 904 171 906 q 244 903 217 903 q 298 903 274 903 q 349 906 322 904 q 411 907 376 907 q 447 889 447 907 q 437 872 447 878 q 407 863 426 867 q 334 828 354 850 q 314 765 314 806 l 314 500 q 320 488 314 490 q 333 485 326 485 l 797 485 q 810 503 810 485 l 810 765 q 791 827 810 804 q 718 863 772 850 q 688 872 697 867 q 678 889 678 878 q 713 907 678 907 q 776 906 747 907 q 833 903 806 904 q 889 903 860 903 q 935 904 915 903 q 978 907 956 906 q 1038 908 1001 908 q 1064 903 1054 908 q 1074 889 1074 897 q 1033 863 1074 871 q 969 830 982 851 q 957 767 957 808 l 957 138 q 972 68 957 89 q 1036 38 986 47 q 1075 13 1075 29 q 1065 -1 1075 4 q 1039 -6 1054 -6 q 980 -3 1006 -6 q 931 0 954 -1 q 879 1 907 1 q 826 0 850 1 q 774 -3 801 -1 q 711 -6 746 -6 q 685 -1 694 -6 q 676 13 676 4 q 685 28 676 24 q 715 38 694 33 q 786 69 763 47 q 810 135 810 92 l 810 403 q 808 417 810 411 q 799 424 807 424 l 325 424 q 314 407 314 424 l 314 144 q 342 75 314 103 q 418 38 369 47 q 449 28 439 33 q 458 13 458 24 q 449 -1 458 4 q 422 -6 439 -6 q 358 -3 388 -6 q 302 0 329 -1 q 244 1 275 1 q 192 0 217 1 q 140 -3 167 -1 q 78 -6 113 -6 m 372 965 q 350 981 350 965 q 360 999 350 990 l 500 1119 q 533 1145 521 1138 q 561 1153 544 1153 q 590 1145 578 1153 q 622 1119 601 1138 l 763 999 q 771 981 771 992 q 750 964 771 964 q 721 972 743 964 q 671 993 699 981 q 617 1018 643 1006 q 576 1039 592 1031 q 561 1044 567 1044 q 546 1039 556 1044 q 506 1018 532 1031 q 452 994 479 1006 q 403 974 425 982 q 372 965 381 965 z "},"I":{"ha":483,"x_min":25,"x_max":460,"o":"m 61 -6 q 35 -2 46 -6 q 25 11 25 1 q 65 38 25 29 q 143 68 118 47 q 168 136 168 89 l 168 764 q 149 831 168 811 q 76 863 129 851 q 36 890 36 871 q 46 904 36 900 q 71 908 56 908 q 135 907 107 908 q 190 904 164 906 q 247 903 217 903 q 302 903 276 903 q 355 906 328 904 q 417 907 382 907 q 443 903 433 907 q 453 890 453 900 q 442 873 453 879 q 413 863 432 867 q 337 831 358 850 q 315 764 315 811 l 315 136 q 342 69 315 90 q 419 38 368 49 q 450 28 440 33 q 460 11 460 22 q 451 -1 460 3 q 425 -6 442 -6 q 361 -3 390 -6 q 305 0 332 -1 q 247 1 278 1 q 185 0 214 1 q 126 -3 157 -1 q 61 -6 96 -6 z "},"Ĳ":{"ha":971,"x_min":25,"x_max":931,"o":"m 61 -6 q 35 -2 46 -6 q 25 11 25 1 q 65 38 25 29 q 143 68 118 47 q 168 136 168 89 l 168 764 q 149 831 168 811 q 76 863 129 851 q 36 890 36 871 q 46 904 36 900 q 71 908 56 908 q 135 907 107 908 q 190 904 164 906 q 247 903 217 903 q 302 903 276 903 q 355 906 328 904 q 417 907 382 907 q 443 903 433 907 q 453 890 453 900 q 442 873 453 879 q 413 863 432 867 q 337 831 358 850 q 315 764 315 811 l 315 136 q 342 69 315 90 q 419 38 368 49 q 450 28 440 33 q 460 11 460 22 q 451 -1 460 3 q 425 -6 442 -6 q 361 -3 390 -6 q 305 0 332 -1 q 247 1 278 1 q 185 0 214 1 q 126 -3 157 -1 q 61 -6 96 -6 m 542 -278 q 381 -206 381 -278 q 402 -158 381 -181 q 442 -135 424 -135 q 474 -142 458 -135 q 504 -168 490 -150 q 539 -208 525 -194 q 571 -221 553 -221 q 639 -163 617 -221 q 661 3 661 -106 l 661 765 q 641 832 661 813 q 569 863 621 851 q 529 890 529 871 q 540 904 529 900 q 565 908 550 908 q 628 907 600 908 q 683 904 657 906 q 740 903 710 903 q 789 903 767 903 q 836 906 811 904 q 896 907 861 907 q 921 903 911 907 q 931 890 931 900 q 921 873 931 879 q 890 863 911 867 q 823 831 838 850 q 808 765 808 811 l 808 85 q 792 -16 808 33 q 749 -108 775 -65 q 697 -183 724 -151 q 626 -251 665 -224 q 542 -278 586 -278 z "},"Í":{"ha":483,"x_min":25,"x_max":460,"o":"m 61 -6 q 35 -2 46 -6 q 25 11 25 1 q 65 38 25 29 q 143 68 118 47 q 168 136 168 89 l 168 764 q 149 831 168 811 q 76 863 129 851 q 36 890 36 871 q 46 904 36 900 q 71 908 56 908 q 135 907 107 908 q 190 904 164 906 q 247 903 217 903 q 302 903 276 903 q 355 906 328 904 q 417 907 382 907 q 443 903 433 907 q 453 890 453 900 q 442 873 453 879 q 413 863 432 867 q 337 831 358 850 q 315 764 315 811 l 315 136 q 342 69 315 90 q 419 38 368 49 q 450 28 440 33 q 460 11 460 22 q 451 -1 460 3 q 425 -6 442 -6 q 361 -3 390 -6 q 305 0 332 -1 q 247 1 278 1 q 185 0 214 1 q 126 -3 157 -1 q 61 -6 96 -6 m 190 950 q 179 960 179 951 q 189 983 179 969 q 248 1069 218 1026 q 311 1151 278 1111 q 351 1169 325 1171 q 383 1163 361 1168 q 422 1149 404 1157 q 439 1131 439 1140 q 418 1103 438 1118 q 319 1031 372 1067 q 219 963 265 994 q 201 953 208 956 q 190 950 194 950 z "},"Ĭ":{"ha":483,"x_min":25,"x_max":460,"o":"m 61 -6 q 35 -2 46 -6 q 25 11 25 1 q 65 38 25 29 q 143 68 118 47 q 168 136 168 89 l 168 764 q 149 831 168 811 q 76 863 129 851 q 36 890 36 871 q 46 904 36 900 q 71 908 56 908 q 135 907 107 908 q 190 904 164 906 q 247 903 217 903 q 302 903 276 903 q 355 906 328 904 q 417 907 382 907 q 443 903 433 907 q 453 890 453 900 q 442 873 453 879 q 413 863 432 867 q 337 831 358 850 q 315 764 315 811 l 315 136 q 342 69 315 90 q 419 38 368 49 q 450 28 440 33 q 460 11 460 22 q 451 -1 460 3 q 425 -6 442 -6 q 361 -3 390 -6 q 305 0 332 -1 q 247 1 278 1 q 185 0 214 1 q 126 -3 157 -1 q 61 -6 96 -6 m 243 958 q 138 985 181 958 q 72 1047 94 1011 q 49 1113 49 1083 q 53 1138 49 1128 q 64 1147 57 1147 q 85 1138 76 1147 q 100 1118 93 1128 q 163 1068 129 1083 q 243 1053 197 1053 q 323 1068 289 1053 q 386 1118 357 1083 q 403 1138 394 1128 q 422 1147 411 1147 q 435 1138 433 1147 q 438 1113 438 1128 q 415 1047 438 1083 q 349 985 392 1011 q 243 958 307 958 z "},"Î":{"ha":483,"x_min":25,"x_max":460,"o":"m 61 -6 q 35 -2 46 -6 q 25 11 25 1 q 65 38 25 29 q 143 68 118 47 q 168 136 168 89 l 168 764 q 149 831 168 811 q 76 863 129 851 q 36 890 36 871 q 46 904 36 900 q 71 908 56 908 q 135 907 107 908 q 190 904 164 906 q 247 903 217 903 q 302 903 276 903 q 355 906 328 904 q 417 907 382 907 q 443 903 433 907 q 453 890 453 900 q 442 873 453 879 q 413 863 432 867 q 337 831 358 850 q 315 764 315 811 l 315 136 q 342 69 315 90 q 419 38 368 49 q 450 28 440 33 q 460 11 460 22 q 451 -1 460 3 q 425 -6 442 -6 q 361 -3 390 -6 q 305 0 332 -1 q 247 1 278 1 q 185 0 214 1 q 126 -3 157 -1 q 61 -6 96 -6 m 54 965 q 32 981 32 965 q 42 999 32 990 l 182 1119 q 215 1145 203 1138 q 243 1153 226 1153 q 272 1145 260 1153 q 304 1119 283 1138 l 444 999 q 453 981 453 992 q 432 964 453 964 q 403 972 425 964 q 353 993 381 981 q 299 1018 325 1006 q 258 1039 274 1031 q 243 1044 249 1044 q 228 1039 238 1044 q 188 1018 214 1031 q 134 994 161 1006 q 85 974 107 982 q 54 965 63 965 z "},"Ï":{"ha":483,"x_min":25,"x_max":461,"o":"m 61 -6 q 35 -2 46 -6 q 25 11 25 1 q 65 38 25 29 q 143 68 118 47 q 168 136 168 89 l 168 764 q 149 831 168 811 q 76 863 129 851 q 36 890 36 871 q 46 904 36 900 q 71 908 56 908 q 135 907 107 908 q 190 904 164 906 q 247 903 217 903 q 302 903 276 903 q 355 906 328 904 q 417 907 382 907 q 443 903 433 907 q 453 890 453 900 q 442 873 453 879 q 413 863 432 867 q 337 831 358 850 q 315 764 315 811 l 315 136 q 342 69 315 90 q 419 38 368 49 q 450 28 440 33 q 460 11 460 22 q 451 -1 460 3 q 425 -6 442 -6 q 361 -3 390 -6 q 305 0 332 -1 q 247 1 278 1 q 185 0 214 1 q 126 -3 157 -1 q 61 -6 96 -6 m 381 961 q 324 985 347 961 q 300 1042 300 1008 q 324 1099 300 1075 q 381 1122 347 1122 q 438 1099 414 1122 q 461 1042 461 1075 q 438 985 461 1008 q 381 961 414 961 m 108 961 q 51 985 75 961 q 28 1042 28 1008 q 51 1099 28 1075 q 108 1122 75 1122 q 167 1099 143 1122 q 190 1042 190 1075 q 167 985 190 1008 q 108 961 143 961 z "},"İ":{"ha":483,"x_min":25,"x_max":460,"o":"m 61 -6 q 35 -2 46 -6 q 25 11 25 1 q 65 38 25 29 q 143 68 118 47 q 168 136 168 89 l 168 764 q 149 831 168 811 q 76 863 129 851 q 36 890 36 871 q 46 904 36 900 q 71 908 56 908 q 135 907 107 908 q 190 904 164 906 q 247 903 217 903 q 302 903 276 903 q 355 906 328 904 q 417 907 382 907 q 443 903 433 907 q 453 890 453 900 q 442 873 453 879 q 413 863 432 867 q 337 831 358 850 q 315 764 315 811 l 315 136 q 342 69 315 90 q 419 38 368 49 q 450 28 440 33 q 460 11 460 22 q 451 -1 460 3 q 425 -6 442 -6 q 361 -3 390 -6 q 305 0 332 -1 q 247 1 278 1 q 185 0 214 1 q 126 -3 157 -1 q 61 -6 96 -6 m 243 964 q 181 990 207 964 q 154 1050 154 1015 q 181 1113 154 1088 q 243 1138 207 1138 q 308 1113 282 1138 q 335 1050 335 1088 q 308 990 335 1015 q 243 964 282 964 z "},"Ì":{"ha":483,"x_min":25,"x_max":460,"o":"m 286 950 q 275 953 282 950 q 257 963 268 956 q 158 1031 213 994 q 60 1103 104 1067 q 39 1131 40 1118 q 55 1149 38 1140 q 94 1163 72 1157 q 125 1169 115 1168 q 167 1151 151 1171 q 228 1069 199 1111 q 288 983 258 1026 q 297 960 297 969 q 286 950 297 951 m 61 -6 q 35 -2 46 -6 q 25 11 25 1 q 65 38 25 29 q 143 68 118 47 q 168 136 168 89 l 168 764 q 149 831 168 811 q 76 863 129 851 q 36 890 36 871 q 46 904 36 900 q 71 908 56 908 q 135 907 107 908 q 190 904 164 906 q 247 903 217 903 q 302 903 276 903 q 355 906 328 904 q 417 907 382 907 q 443 903 433 907 q 453 890 453 900 q 442 873 453 879 q 413 863 432 867 q 337 831 358 850 q 315 764 315 811 l 315 136 q 342 69 315 90 q 419 38 368 49 q 450 28 440 33 q 460 11 460 22 q 451 -1 460 3 q 425 -6 442 -6 q 361 -3 390 -6 q 305 0 332 -1 q 247 1 278 1 q 185 0 214 1 q 126 -3 157 -1 q 61 -6 96 -6 z "},"Ī":{"ha":483,"x_min":25,"x_max":461,"o":"m 61 -6 q 35 -2 46 -6 q 25 11 25 1 q 65 38 25 29 q 143 68 118 47 q 168 136 168 89 l 168 764 q 149 831 168 811 q 76 863 129 851 q 36 890 36 871 q 46 904 36 900 q 71 908 56 908 q 135 907 107 908 q 190 904 164 906 q 247 903 217 903 q 302 903 276 903 q 355 906 328 904 q 417 907 382 907 q 443 903 433 907 q 453 890 453 900 q 442 873 453 879 q 413 863 432 867 q 337 831 358 850 q 315 764 315 811 l 315 136 q 342 69 315 90 q 419 38 368 49 q 450 28 440 33 q 460 11 460 22 q 451 -1 460 3 q 425 -6 442 -6 q 361 -3 390 -6 q 305 0 332 -1 q 247 1 278 1 q 185 0 214 1 q 126 -3 157 -1 q 61 -6 96 -6 m 56 1001 q 40 1008 46 1001 q 33 1021 33 1014 q 38 1049 33 1033 q 51 1077 42 1065 q 72 1089 60 1089 l 440 1089 q 456 1083 450 1089 q 461 1069 461 1078 q 447 1023 461 1044 q 414 1001 432 1001 l 56 1001 z "},"Į":{"ha":483,"x_min":25,"x_max":460,"o":"m 61 -6 q 35 -2 46 -6 q 25 11 25 1 q 65 38 25 29 q 143 68 118 47 q 168 136 168 89 l 168 764 q 149 831 168 811 q 76 863 129 851 q 36 890 36 871 q 46 904 36 900 q 71 908 56 908 q 135 907 107 908 q 190 904 164 906 q 247 903 217 903 q 302 903 276 903 q 355 906 328 904 q 417 907 382 907 q 443 903 433 907 q 453 890 453 900 q 442 873 453 879 q 413 863 432 867 q 337 831 358 850 q 315 764 315 811 l 315 136 q 342 69 315 90 q 419 38 368 49 q 450 28 440 33 q 460 11 460 22 q 451 -1 460 3 q 425 -6 442 -6 q 361 -3 390 -6 q 305 0 332 -1 q 247 1 278 1 q 185 0 214 1 q 126 -3 157 -1 q 61 -6 96 -6 m 264 -399 q 149 -354 194 -399 q 103 -242 103 -310 q 124 -165 103 -201 q 177 -96 146 -128 q 242 -38 208 -64 q 303 3 276 -12 q 340 25 331 19 l 383 25 q 351 -3 375 17 q 299 -54 326 -24 q 253 -124 272 -85 q 233 -211 233 -164 q 259 -270 233 -247 q 319 -293 285 -293 q 365 -283 343 -293 q 402 -260 386 -272 q 426 -242 418 -247 q 440 -239 432 -237 q 449 -254 449 -240 q 432 -302 449 -276 q 388 -350 415 -328 q 327 -385 360 -372 q 264 -399 294 -399 z "},"Ĩ":{"ha":483,"x_min":25,"x_max":472,"o":"m 61 -6 q 35 -2 46 -6 q 25 11 25 1 q 65 38 25 29 q 143 68 118 47 q 168 136 168 89 l 168 764 q 149 831 168 811 q 76 863 129 851 q 36 890 36 871 q 46 904 36 900 q 71 908 56 908 q 135 907 107 908 q 190 904 164 906 q 247 903 217 903 q 302 903 276 903 q 355 906 328 904 q 417 907 382 907 q 443 903 433 907 q 453 890 453 900 q 442 873 453 879 q 413 863 432 867 q 337 831 358 850 q 315 764 315 811 l 315 136 q 342 69 315 90 q 419 38 368 49 q 450 28 440 33 q 460 11 460 22 q 451 -1 460 3 q 425 -6 442 -6 q 361 -3 390 -6 q 305 0 332 -1 q 247 1 278 1 q 185 0 214 1 q 126 -3 157 -1 q 61 -6 96 -6 m 75 961 q 60 969 68 961 q 51 983 51 976 q 64 1008 51 989 q 95 1051 76 1028 q 133 1091 114 1074 q 163 1108 151 1108 q 215 1107 188 1108 q 265 1103 242 1106 q 315 1100 289 1101 q 364 1099 340 1099 q 392 1107 379 1099 q 415 1125 406 1115 q 433 1144 426 1135 q 443 1153 439 1153 q 463 1146 453 1153 q 472 1129 472 1139 q 466 1117 472 1125 q 450 1099 460 1108 q 418 1058 435 1081 q 389 1019 401 1036 q 367 1004 381 1008 q 347 1000 353 1000 q 312 1001 338 1000 q 253 1006 286 1003 q 192 1010 221 1008 q 147 1013 163 1013 q 124 1006 138 1013 q 103 992 111 1000 q 85 972 92 982 q 75 961 78 961 z "},"J":{"ha":486,"x_min":-103,"x_max":447,"o":"m 58 -278 q -103 -206 -103 -278 q -81 -158 -103 -181 q -42 -135 -60 -135 q -9 -142 -25 -135 q 21 -168 7 -150 q 56 -208 42 -194 q 88 -221 69 -221 q 156 -163 133 -221 q 178 3 178 -106 l 178 765 q 158 832 178 813 q 86 863 138 851 q 46 890 46 871 q 56 904 46 900 q 82 908 67 908 q 145 907 117 908 q 200 904 174 906 q 257 903 226 903 q 306 903 283 903 q 353 906 328 904 q 413 907 378 907 q 438 903 428 907 q 447 890 447 900 q 438 873 447 879 q 407 863 428 867 q 340 831 354 850 q 325 765 325 811 l 325 85 q 308 -16 325 33 q 266 -108 292 -65 q 214 -183 240 -151 q 142 -251 182 -224 q 58 -278 103 -278 z "},"Ĵ":{"ha":486,"x_min":-103,"x_max":454,"o":"m 58 -278 q -103 -206 -103 -278 q -81 -158 -103 -181 q -42 -135 -60 -135 q -9 -142 -25 -135 q 21 -168 7 -150 q 56 -208 42 -194 q 88 -221 69 -221 q 156 -163 133 -221 q 178 3 178 -106 l 178 765 q 158 832 178 813 q 86 863 138 851 q 46 890 46 871 q 56 904 46 900 q 82 908 67 908 q 145 907 117 908 q 200 904 174 906 q 257 903 226 903 q 306 903 283 903 q 353 906 328 904 q 413 907 378 907 q 438 903 428 907 q 447 890 447 900 q 438 873 447 879 q 407 863 428 867 q 340 831 354 850 q 325 765 325 811 l 325 85 q 308 -16 325 33 q 266 -108 292 -65 q 214 -183 240 -151 q 142 -251 182 -224 q 58 -278 103 -278 m 56 965 q 33 981 33 965 q 43 999 33 990 l 183 1119 q 216 1145 204 1138 q 244 1153 228 1153 q 273 1145 261 1153 q 306 1119 285 1138 l 446 999 q 454 981 454 992 q 433 964 454 964 q 404 972 426 964 q 354 993 382 981 q 301 1018 326 1006 q 260 1039 275 1031 q 244 1044 250 1044 q 229 1039 239 1044 q 189 1018 215 1031 q 135 994 163 1006 q 86 974 108 982 q 56 965 64 965 z "},"K":{"ha":986,"x_min":36,"x_max":997,"o":"m 76 -7 q 48 -3 60 -7 q 36 11 36 1 q 79 38 36 29 q 151 69 132 47 q 169 139 169 90 l 169 765 q 150 832 169 813 q 76 863 131 851 q 36 890 36 871 q 47 904 36 900 q 72 908 57 908 q 135 907 108 908 q 188 905 163 906 q 243 904 214 904 q 292 905 269 904 q 341 906 315 906 q 401 907 367 907 q 427 903 418 907 q 436 890 436 900 q 426 873 436 879 q 396 863 417 867 q 330 828 343 850 q 317 765 317 806 l 317 497 q 319 481 317 490 q 326 472 321 472 q 344 480 333 472 q 363 496 354 488 l 636 781 q 653 803 647 793 q 660 824 660 814 q 622 858 660 850 q 592 870 601 864 q 583 888 583 876 q 594 900 583 896 q 619 904 604 904 l 701 904 q 792 906 744 904 q 881 908 839 907 q 944 910 922 910 q 967 905 958 910 q 976 893 976 900 q 965 875 976 882 q 932 864 953 868 q 821 833 875 854 q 721 775 767 811 q 632 697 674 736 q 550 617 590 658 q 463 526 510 576 q 468 496 450 515 l 803 133 q 848 87 829 104 q 890 58 867 69 q 951 38 914 46 q 985 27 972 32 q 997 11 997 22 q 985 -2 997 3 q 951 -7 972 -7 q 878 -5 911 -7 q 813 -1 844 -3 q 739 1 781 1 q 679 -1 706 1 q 606 -3 653 -3 q 580 1 590 -3 q 569 15 569 6 q 604 40 569 32 q 649 72 649 50 q 642 90 649 81 q 628 110 636 99 l 357 414 q 340 429 349 422 q 325 436 331 436 q 318 427 319 436 q 317 410 317 418 q 318 285 317 344 q 322 149 319 225 q 331 97 324 119 q 356 60 338 75 q 408 38 374 46 q 440 28 429 33 q 451 11 451 22 q 440 -2 451 3 q 411 -7 428 -7 q 348 -4 372 -7 q 303 1 324 -1 q 257 4 283 4 q 199 1 225 4 q 145 -4 174 -1 q 76 -7 117 -7 z "},"L":{"ha":813,"x_min":35,"x_max":801,"o":"m 69 -7 q 44 -1 54 -7 q 35 11 35 4 q 46 28 35 22 q 64 36 57 35 q 142 68 117 49 q 168 133 168 88 l 168 774 q 161 823 168 807 q 135 847 154 839 q 82 863 117 856 q 42 890 42 871 q 52 904 42 900 q 78 908 63 908 q 140 907 113 908 q 193 904 168 906 q 249 903 218 903 q 310 903 281 903 q 369 906 339 904 q 435 907 400 907 q 460 903 451 907 q 469 890 469 900 q 460 873 469 879 q 429 863 450 867 q 346 835 376 850 q 315 781 315 821 l 315 138 q 334 76 315 94 q 411 57 353 57 l 572 57 q 635 68 608 57 q 678 93 663 79 q 719 138 704 117 q 750 196 733 160 q 765 225 757 211 q 783 239 774 239 q 797 230 793 239 q 801 213 801 221 q 800 206 801 210 q 799 197 799 201 q 781 131 789 160 q 767 75 772 101 q 760 18 763 49 q 754 1 758 8 q 739 -7 750 -7 q 624 -6 685 -7 q 500 -3 563 -4 q 377 -1 438 -3 q 261 0 317 0 q 187 -1 228 0 q 112 -5 146 -3 q 69 -7 78 -7 z "},"Ĺ":{"ha":813,"x_min":35,"x_max":801,"o":"m 69 -7 q 44 -1 54 -7 q 35 11 35 4 q 46 28 35 22 q 64 36 57 35 q 142 68 117 49 q 168 133 168 88 l 168 774 q 161 823 168 807 q 135 847 154 839 q 82 863 117 856 q 42 890 42 871 q 52 904 42 900 q 78 908 63 908 q 140 907 113 908 q 193 904 168 906 q 249 903 218 903 q 310 903 281 903 q 369 906 339 904 q 435 907 400 907 q 460 903 451 907 q 469 890 469 900 q 460 873 469 879 q 429 863 450 867 q 346 835 376 850 q 315 781 315 821 l 315 138 q 334 76 315 94 q 411 57 353 57 l 572 57 q 635 68 608 57 q 678 93 663 79 q 719 138 704 117 q 750 196 733 160 q 765 225 757 211 q 783 239 774 239 q 797 230 793 239 q 801 213 801 221 q 800 206 801 210 q 799 197 799 201 q 781 131 789 160 q 767 75 772 101 q 760 18 763 49 q 754 1 758 8 q 739 -7 750 -7 q 624 -6 685 -7 q 500 -3 563 -4 q 377 -1 438 -3 q 261 0 317 0 q 187 -1 228 0 q 112 -5 146 -3 q 69 -7 78 -7 m 207 950 q 196 960 196 951 q 206 983 196 969 q 265 1069 235 1026 q 328 1151 294 1111 q 368 1169 342 1171 q 399 1163 378 1168 q 438 1149 421 1157 q 456 1131 456 1140 q 435 1103 454 1118 q 335 1031 389 1067 q 236 963 282 994 q 218 953 225 956 q 207 950 211 950 z "},"Ľ":{"ha":813,"x_min":35,"x_max":801,"o":"m 69 -7 q 44 -1 54 -7 q 35 11 35 4 q 46 28 35 22 q 64 36 57 35 q 142 68 117 49 q 168 133 168 88 l 168 774 q 161 823 168 807 q 135 847 154 839 q 82 863 117 856 q 42 890 42 871 q 52 904 42 900 q 78 908 63 908 q 140 907 113 908 q 193 904 168 906 q 249 903 218 903 q 310 903 281 903 q 369 906 339 904 q 435 907 400 907 q 460 903 451 907 q 469 890 469 900 q 460 873 469 879 q 429 863 450 867 q 346 835 376 850 q 315 781 315 821 l 315 138 q 334 76 315 94 q 411 57 353 57 l 572 57 q 635 68 608 57 q 678 93 663 79 q 719 138 704 117 q 750 196 733 160 q 765 225 757 211 q 783 239 774 239 q 797 230 793 239 q 801 213 801 221 q 800 206 801 210 q 799 197 799 201 q 781 131 789 160 q 767 75 772 101 q 760 18 763 49 q 754 1 758 8 q 739 -7 750 -7 q 624 -6 685 -7 q 500 -3 563 -4 q 377 -1 438 -3 q 261 0 317 0 q 187 -1 228 0 q 112 -5 146 -3 q 69 -7 78 -7 m 579 640 q 570 650 574 640 q 567 674 567 660 q 568 692 567 678 q 571 724 569 707 q 572 753 572 742 q 568 819 572 794 q 564 860 564 843 q 577 893 564 876 q 610 921 590 910 q 647 932 631 932 q 666 919 663 932 q 669 888 669 906 q 661 822 669 861 q 640 744 653 782 q 614 678 628 706 q 579 640 594 640 z "},"Ŀ":{"ha":813,"x_min":35,"x_max":801,"o":"m 69 -7 q 44 -1 54 -7 q 35 11 35 4 q 46 28 35 22 q 64 36 57 35 q 142 68 117 49 q 168 133 168 88 l 168 774 q 161 823 168 807 q 135 847 154 839 q 82 863 117 856 q 42 890 42 871 q 52 904 42 900 q 78 908 63 908 q 140 907 113 908 q 193 904 168 906 q 249 903 218 903 q 310 903 281 903 q 369 906 339 904 q 435 907 400 907 q 460 903 451 907 q 469 890 469 900 q 460 873 469 879 q 429 863 450 867 q 346 835 376 850 q 315 781 315 821 l 315 138 q 334 76 315 94 q 411 57 353 57 l 572 57 q 635 68 608 57 q 678 93 663 79 q 719 138 704 117 q 750 196 733 160 q 765 225 757 211 q 783 239 774 239 q 797 230 793 239 q 801 213 801 221 q 800 206 801 210 q 799 197 799 201 q 781 131 789 160 q 767 75 772 101 q 760 18 763 49 q 754 1 758 8 q 739 -7 750 -7 q 624 -6 685 -7 q 500 -3 563 -4 q 377 -1 438 -3 q 261 0 317 0 q 187 -1 228 0 q 112 -5 146 -3 q 69 -7 78 -7 m 640 417 q 581 441 606 417 q 557 500 557 465 q 581 560 557 536 q 640 585 606 585 q 701 560 676 585 q 726 500 726 536 q 701 441 726 465 q 640 417 676 417 z "},"Ł":{"ha":813,"x_min":35,"x_max":801,"o":"m 83 354 q 61 353 72 351 q 50 365 50 356 q 56 399 50 383 q 74 418 61 414 l 200 464 l 263 478 l 519 571 q 538 572 528 575 q 549 558 549 568 q 540 521 549 536 q 517 501 532 506 l 263 410 l 201 397 l 83 354 m 69 -7 q 44 -1 54 -7 q 35 11 35 4 q 46 28 35 22 q 64 36 57 35 q 142 68 117 49 q 168 133 168 88 l 168 774 q 161 823 168 807 q 135 847 154 839 q 82 863 117 856 q 42 890 42 871 q 52 904 42 900 q 78 908 63 908 q 140 907 113 908 q 193 904 168 906 q 249 903 218 903 q 310 903 281 903 q 369 906 339 904 q 435 907 400 907 q 460 903 451 907 q 469 890 469 900 q 460 873 469 879 q 429 863 450 867 q 346 835 376 850 q 315 781 315 821 l 315 138 q 334 76 315 94 q 411 57 353 57 l 572 57 q 635 68 608 57 q 678 93 663 79 q 719 138 704 117 q 750 196 733 160 q 765 225 757 211 q 783 239 774 239 q 797 230 793 239 q 801 213 801 221 q 800 206 801 210 q 799 197 799 201 q 781 131 789 160 q 767 75 772 101 q 760 18 763 49 q 754 1 758 8 q 739 -7 750 -7 q 624 -6 685 -7 q 500 -3 563 -4 q 377 -1 438 -3 q 261 0 317 0 q 187 -1 228 0 q 112 -5 146 -3 q 69 -7 78 -7 z "},"M":{"ha":1260,"x_min":26,"x_max":1215,"o":"m 65 -6 q 37 -2 47 -6 q 26 11 26 1 q 38 26 26 21 q 71 36 50 31 q 127 71 104 44 q 157 144 150 97 q 182 355 171 249 q 201 558 193 461 q 213 729 210 654 q 213 751 213 739 q 211 775 213 764 q 206 803 211 790 q 186 826 201 817 q 142 852 164 844 q 92 865 119 860 q 67 876 76 868 q 58 893 58 883 q 71 908 58 906 q 103 911 83 911 q 149 910 119 911 q 213 906 178 908 q 278 903 247 904 q 331 901 310 901 q 349 895 340 901 q 360 878 357 889 q 374 826 367 853 q 392 772 382 800 l 606 240 q 619 231 610 232 q 632 238 628 229 l 879 769 q 894 831 888 801 q 906 882 900 861 q 922 900 910 900 l 975 900 q 1075 906 1022 900 q 1156 913 1128 913 q 1176 909 1165 913 q 1188 896 1188 906 q 1179 879 1188 885 q 1153 867 1171 874 q 1119 854 1138 861 q 1086 840 1101 847 q 1051 815 1064 831 q 1040 772 1039 799 q 1044 592 1040 674 q 1052 438 1049 511 q 1061 290 1056 364 q 1071 133 1067 217 q 1100 70 1074 93 q 1175 38 1126 47 q 1205 28 1194 33 q 1215 11 1215 22 q 1206 -1 1215 3 q 1179 -6 1196 -6 q 1115 -3 1144 -6 q 1058 0 1086 -1 q 999 1 1029 1 q 947 0 971 1 q 897 -3 924 -1 q 835 -6 871 -6 q 809 -2 819 -6 q 799 11 799 1 q 809 28 799 21 q 839 38 819 35 q 900 66 883 44 q 917 133 917 88 q 913 311 915 229 q 907 473 911 393 q 899 642 903 553 q 892 653 899 654 q 879 640 886 653 l 579 -4 q 564 -15 575 -15 q 550 -4 553 -14 q 424 316 490 158 q 286 646 358 474 q 274 653 282 654 q 265 642 267 651 q 248 472 256 554 q 237 310 240 390 q 233 143 233 229 q 258 76 233 104 q 328 38 282 47 q 360 28 349 33 q 372 11 372 22 q 361 -1 372 3 q 333 -6 350 -6 q 276 -3 296 -6 q 242 -1 257 -1 q 199 0 226 0 q 152 -1 172 0 q 112 -4 132 -3 q 65 -6 92 -6 z "},"N":{"ha":1108,"x_min":15,"x_max":1094,"o":"m 933 -25 q 881 -3 919 -25 q 807 67 843 18 q 760 120 792 83 q 687 206 729 157 q 597 310 644 254 q 501 420 549 365 q 410 524 453 475 q 335 610 368 572 q 286 664 303 647 q 273 679 279 674 q 261 685 267 685 q 253 674 256 685 q 250 656 250 664 q 249 501 249 589 q 248 322 249 414 q 247 149 247 229 q 269 78 247 108 q 344 38 292 49 q 376 28 364 33 q 388 11 388 22 q 376 -1 388 3 q 349 -6 365 -6 q 291 -3 311 -6 q 254 -1 271 -1 q 210 0 238 0 q 165 -1 183 0 q 128 -4 146 -3 q 83 -6 110 -6 q 56 -2 68 -6 q 44 11 44 1 q 56 27 44 21 q 88 39 67 33 q 143 80 125 50 q 164 151 161 110 q 176 290 169 204 q 186 483 182 376 q 190 704 190 590 q 153 810 190 778 q 57 861 115 842 q 33 872 50 864 q 15 893 15 881 q 28 910 15 906 q 49 914 40 914 q 112 912 85 913 q 164 910 139 911 q 217 908 189 908 q 282 907 244 907 q 301 901 294 907 q 314 886 308 894 q 362 829 329 868 q 438 738 394 790 q 532 626 482 685 q 632 507 582 567 q 726 394 682 447 q 803 303 771 342 q 850 249 836 265 q 865 233 856 243 q 881 224 874 224 q 894 250 893 224 q 894 333 894 278 q 895 463 894 389 q 896 617 896 536 q 894 779 896 699 q 865 831 893 810 q 806 860 838 853 q 769 869 786 863 q 753 888 753 876 q 769 900 753 896 q 801 904 786 904 q 838 904 822 904 q 869 904 854 904 q 900 904 885 904 q 951 905 932 904 q 994 907 971 906 q 1057 908 1017 908 q 1084 904 1074 908 q 1094 890 1094 900 q 1051 863 1094 871 q 983 837 1001 853 q 964 785 965 821 q 963 712 964 763 q 960 593 961 661 q 958 450 960 525 q 957 303 957 375 q 957 172 957 231 q 960 108 957 139 q 965 53 963 76 q 967 19 967 31 q 957 -16 967 -7 q 933 -25 947 -25 z "},"Ń":{"ha":1108,"x_min":15,"x_max":1094,"o":"m 933 -25 q 881 -3 919 -25 q 807 67 843 18 q 760 120 792 83 q 687 206 729 157 q 597 310 644 254 q 501 420 549 365 q 410 524 453 475 q 335 610 368 572 q 286 664 303 647 q 273 679 279 674 q 261 685 267 685 q 253 674 256 685 q 250 656 250 664 q 249 501 249 589 q 248 322 249 414 q 247 149 247 229 q 269 78 247 108 q 344 38 292 49 q 376 28 364 33 q 388 11 388 22 q 376 -1 388 3 q 349 -6 365 -6 q 291 -3 311 -6 q 254 -1 271 -1 q 210 0 238 0 q 165 -1 183 0 q 128 -4 146 -3 q 83 -6 110 -6 q 56 -2 68 -6 q 44 11 44 1 q 56 27 44 21 q 88 39 67 33 q 143 80 125 50 q 164 151 161 110 q 176 290 169 204 q 186 483 182 376 q 190 704 190 590 q 153 810 190 778 q 57 861 115 842 q 33 872 50 864 q 15 893 15 881 q 28 910 15 906 q 49 914 40 914 q 112 912 85 913 q 164 910 139 911 q 217 908 189 908 q 282 907 244 907 q 301 901 294 907 q 314 886 308 894 q 362 829 329 868 q 438 738 394 790 q 532 626 482 685 q 632 507 582 567 q 726 394 682 447 q 803 303 771 342 q 850 249 836 265 q 865 233 856 243 q 881 224 874 224 q 894 250 893 224 q 894 333 894 278 q 895 463 894 389 q 896 617 896 536 q 894 779 896 699 q 865 831 893 810 q 806 860 838 853 q 769 869 786 863 q 753 888 753 876 q 769 900 753 896 q 801 904 786 904 q 838 904 822 904 q 869 904 854 904 q 900 904 885 904 q 951 905 932 904 q 994 907 971 906 q 1057 908 1017 908 q 1084 904 1074 908 q 1094 890 1094 900 q 1051 863 1094 871 q 983 837 1001 853 q 964 785 965 821 q 963 712 964 763 q 960 593 961 661 q 958 450 960 525 q 957 303 957 375 q 957 172 957 231 q 960 108 957 139 q 965 53 963 76 q 967 19 967 31 q 957 -16 967 -7 q 933 -25 947 -25 m 519 950 q 508 960 508 951 q 518 983 508 969 q 577 1069 547 1026 q 640 1151 607 1111 q 681 1169 654 1171 q 712 1163 690 1168 q 751 1149 733 1157 q 768 1131 768 1140 q 747 1103 767 1118 q 648 1031 701 1067 q 549 963 594 994 q 531 953 538 956 q 519 950 524 950 z "},"Ň":{"ha":1108,"x_min":15,"x_max":1094,"o":"m 933 -25 q 881 -3 919 -25 q 807 67 843 18 q 760 120 792 83 q 687 206 729 157 q 597 310 644 254 q 501 420 549 365 q 410 524 453 475 q 335 610 368 572 q 286 664 303 647 q 273 679 279 674 q 261 685 267 685 q 253 674 256 685 q 250 656 250 664 q 249 501 249 589 q 248 322 249 414 q 247 149 247 229 q 269 78 247 108 q 344 38 292 49 q 376 28 364 33 q 388 11 388 22 q 376 -1 388 3 q 349 -6 365 -6 q 291 -3 311 -6 q 254 -1 271 -1 q 210 0 238 0 q 165 -1 183 0 q 128 -4 146 -3 q 83 -6 110 -6 q 56 -2 68 -6 q 44 11 44 1 q 56 27 44 21 q 88 39 67 33 q 143 80 125 50 q 164 151 161 110 q 176 290 169 204 q 186 483 182 376 q 190 704 190 590 q 153 810 190 778 q 57 861 115 842 q 33 872 50 864 q 15 893 15 881 q 28 910 15 906 q 49 914 40 914 q 112 912 85 913 q 164 910 139 911 q 217 908 189 908 q 282 907 244 907 q 301 901 294 907 q 314 886 308 894 q 362 829 329 868 q 438 738 394 790 q 532 626 482 685 q 632 507 582 567 q 726 394 682 447 q 803 303 771 342 q 850 249 836 265 q 865 233 856 243 q 881 224 874 224 q 894 250 893 224 q 894 333 894 278 q 895 463 894 389 q 896 617 896 536 q 894 779 896 699 q 865 831 893 810 q 806 860 838 853 q 769 869 786 863 q 753 888 753 876 q 769 900 753 896 q 801 904 786 904 q 838 904 822 904 q 869 904 854 904 q 900 904 885 904 q 951 905 932 904 q 994 907 971 906 q 1057 908 1017 908 q 1084 904 1074 908 q 1094 890 1094 900 q 1051 863 1094 871 q 983 837 1001 853 q 964 785 965 821 q 963 712 964 763 q 960 593 961 661 q 958 450 960 525 q 957 303 957 375 q 957 172 957 231 q 960 108 957 139 q 965 53 963 76 q 967 19 967 31 q 957 -16 967 -7 q 933 -25 947 -25 m 385 1154 q 415 1146 393 1154 q 465 1126 438 1138 q 518 1101 492 1114 q 558 1081 544 1089 q 574 1075 568 1075 q 589 1081 579 1075 q 630 1101 604 1089 q 683 1126 656 1114 q 733 1147 711 1139 q 763 1156 756 1156 q 783 1139 783 1156 q 775 1121 783 1128 l 635 1006 q 602 979 614 988 q 574 971 590 971 q 546 979 557 971 q 513 1006 535 988 l 372 1121 q 363 1139 363 1131 q 385 1154 363 1154 z "},"Ŋ":{"ha":1079,"x_min":21,"x_max":1081,"o":"m 746 -362 q 668 -332 697 -362 q 639 -254 639 -301 q 647 -227 639 -235 q 679 -218 654 -219 q 798 -194 757 -211 q 853 -149 839 -178 q 868 -79 868 -121 q 859 -31 868 -53 q 838 8 850 -8 q 792 63 824 24 q 715 156 760 101 q 620 270 671 210 q 519 392 569 331 q 424 506 468 453 q 347 600 379 560 q 300 657 314 640 q 285 672 292 667 q 274 676 279 676 q 265 666 268 676 q 263 649 263 656 q 260 496 261 582 q 257 319 258 410 q 256 149 256 229 q 278 78 256 108 q 353 38 300 49 q 384 28 372 33 q 396 11 396 22 q 385 -1 396 3 q 358 -6 374 -6 q 300 -3 321 -6 q 263 -1 279 -1 q 218 0 246 0 q 172 -1 192 0 q 133 -4 153 -3 q 88 -6 114 -6 q 61 -2 72 -6 q 50 11 50 1 q 61 27 50 21 q 92 38 72 33 q 133 65 117 43 q 159 113 150 88 q 169 151 168 138 q 181 290 176 204 q 190 484 186 376 q 193 706 193 592 q 157 810 193 779 q 63 861 121 842 q 38 872 54 864 q 21 893 21 881 q 33 910 21 906 q 54 914 44 914 q 117 912 89 913 q 169 910 144 911 q 224 908 194 908 q 290 907 253 907 q 308 901 301 907 q 322 886 315 894 q 367 829 336 868 q 440 738 397 790 q 529 627 482 686 q 624 508 576 568 q 713 397 671 449 q 787 306 756 344 q 832 250 818 268 q 847 235 838 244 q 863 226 856 226 q 875 253 875 226 q 876 319 875 269 q 877 440 876 368 q 878 598 878 513 q 878 776 878 683 q 851 831 878 808 q 792 860 824 853 q 760 869 771 863 q 750 888 750 876 q 760 900 750 896 q 788 904 771 904 q 824 904 808 904 q 856 904 840 904 q 886 904 871 904 q 938 905 918 904 q 980 907 957 906 q 1042 908 1003 908 q 1070 904 1060 908 q 1081 890 1081 900 q 1038 863 1081 871 q 968 837 988 853 q 949 785 949 821 l 947 28 q 933 -117 947 -47 q 891 -242 918 -187 q 827 -330 864 -297 q 746 -362 790 -362 z "},"Ñ":{"ha":1108,"x_min":15,"x_max":1094,"o":"m 933 -25 q 881 -3 919 -25 q 807 67 843 18 q 760 120 792 83 q 687 206 729 157 q 597 310 644 254 q 501 420 549 365 q 410 524 453 475 q 335 610 368 572 q 286 664 303 647 q 273 679 279 674 q 261 685 267 685 q 253 674 256 685 q 250 656 250 664 q 249 501 249 589 q 248 322 249 414 q 247 149 247 229 q 269 78 247 108 q 344 38 292 49 q 376 28 364 33 q 388 11 388 22 q 376 -1 388 3 q 349 -6 365 -6 q 291 -3 311 -6 q 254 -1 271 -1 q 210 0 238 0 q 165 -1 183 0 q 128 -4 146 -3 q 83 -6 110 -6 q 56 -2 68 -6 q 44 11 44 1 q 56 27 44 21 q 88 39 67 33 q 143 80 125 50 q 164 151 161 110 q 176 290 169 204 q 186 483 182 376 q 190 704 190 590 q 153 810 190 778 q 57 861 115 842 q 33 872 50 864 q 15 893 15 881 q 28 910 15 906 q 49 914 40 914 q 112 912 85 913 q 164 910 139 911 q 217 908 189 908 q 282 907 244 907 q 301 901 294 907 q 314 886 308 894 q 362 829 329 868 q 438 738 394 790 q 532 626 482 685 q 632 507 582 567 q 726 394 682 447 q 803 303 771 342 q 850 249 836 265 q 865 233 856 243 q 881 224 874 224 q 894 250 893 224 q 894 333 894 278 q 895 463 894 389 q 896 617 896 536 q 894 779 896 699 q 865 831 893 810 q 806 860 838 853 q 769 869 786 863 q 753 888 753 876 q 769 900 753 896 q 801 904 786 904 q 838 904 822 904 q 869 904 854 904 q 900 904 885 904 q 951 905 932 904 q 994 907 971 906 q 1057 908 1017 908 q 1084 904 1074 908 q 1094 890 1094 900 q 1051 863 1094 871 q 983 837 1001 853 q 964 785 965 821 q 963 712 964 763 q 960 593 961 661 q 958 450 960 525 q 957 303 957 375 q 957 172 957 231 q 960 108 957 139 q 965 53 963 76 q 967 19 967 31 q 957 -16 967 -7 q 933 -25 947 -25 m 406 961 q 390 969 399 961 q 382 983 382 976 q 394 1008 382 989 q 426 1051 407 1028 q 463 1091 444 1074 q 493 1108 482 1108 q 545 1107 518 1108 q 596 1103 572 1106 q 645 1100 619 1101 q 694 1099 671 1099 q 723 1107 710 1099 q 746 1125 736 1115 q 763 1144 757 1135 q 774 1153 769 1153 q 793 1146 783 1153 q 803 1129 803 1139 q 797 1117 803 1125 q 781 1099 790 1108 q 749 1058 765 1081 q 719 1019 732 1036 q 697 1004 711 1008 q 678 1000 683 1000 q 642 1001 668 1000 q 584 1006 617 1003 q 522 1010 551 1008 q 478 1013 493 1013 q 455 1006 468 1013 q 433 992 442 1000 q 415 972 422 982 q 406 961 408 961 z "},"O":{"ha":1058,"x_min":54,"x_max":1004,"o":"m 522 -19 q 345 13 429 -19 q 196 106 261 46 q 92 251 131 167 q 54 438 54 335 q 85 619 54 532 q 177 774 117 706 q 328 882 238 842 q 535 922 418 922 q 713 890 629 922 q 863 797 797 857 q 966 652 928 736 q 1004 465 1004 568 q 973 285 1004 372 q 881 129 942 197 q 731 21 821 61 q 522 -19 640 -19 m 544 39 q 706 84 642 39 q 803 210 771 129 q 836 396 836 290 q 816 572 836 489 q 756 722 796 656 q 654 824 715 788 q 511 861 593 861 q 352 817 417 861 q 255 693 288 772 q 222 508 222 614 q 242 331 222 414 q 301 181 261 247 q 402 77 342 115 q 544 39 463 39 z "},"Ó":{"ha":1058,"x_min":54,"x_max":1004,"o":"m 522 -19 q 345 13 429 -19 q 196 106 261 46 q 92 251 131 167 q 54 438 54 335 q 85 619 54 532 q 177 774 117 706 q 328 882 238 842 q 535 922 418 922 q 713 890 629 922 q 863 797 797 857 q 966 652 928 736 q 1004 465 1004 568 q 973 285 1004 372 q 881 129 942 197 q 731 21 821 61 q 522 -19 640 -19 m 544 39 q 706 84 642 39 q 803 210 771 129 q 836 396 836 290 q 816 572 836 489 q 756 722 796 656 q 654 824 715 788 q 511 861 593 861 q 352 817 417 861 q 255 693 288 772 q 222 508 222 614 q 242 331 222 414 q 301 181 261 247 q 402 77 342 115 q 544 39 463 39 m 490 950 q 479 960 479 951 q 489 983 479 969 q 548 1069 518 1026 q 611 1151 578 1111 q 651 1169 625 1171 q 683 1163 661 1168 q 722 1149 704 1157 q 739 1131 739 1140 q 718 1103 738 1118 q 619 1031 672 1067 q 519 963 565 994 q 501 953 508 956 q 490 950 494 950 z "},"Ŏ":{"ha":1058,"x_min":54,"x_max":1004,"o":"m 522 -19 q 345 13 429 -19 q 196 106 261 46 q 92 251 131 167 q 54 438 54 335 q 85 619 54 532 q 177 774 117 706 q 328 882 238 842 q 535 922 418 922 q 713 890 629 922 q 863 797 797 857 q 966 652 928 736 q 1004 465 1004 568 q 973 285 1004 372 q 881 129 942 197 q 731 21 821 61 q 522 -19 640 -19 m 544 39 q 706 84 642 39 q 803 210 771 129 q 836 396 836 290 q 816 572 836 489 q 756 722 796 656 q 654 824 715 788 q 511 861 593 861 q 352 817 417 861 q 255 693 288 772 q 222 508 222 614 q 242 331 222 414 q 301 181 261 247 q 402 77 342 115 q 544 39 463 39 m 543 958 q 438 985 481 958 q 372 1047 394 1011 q 349 1113 349 1083 q 353 1138 349 1128 q 364 1147 357 1147 q 385 1138 376 1147 q 400 1118 393 1128 q 463 1068 429 1083 q 543 1053 497 1053 q 623 1068 589 1053 q 686 1118 657 1083 q 703 1138 694 1128 q 722 1147 711 1147 q 735 1138 733 1147 q 738 1113 738 1128 q 715 1047 738 1083 q 649 985 692 1011 q 543 958 607 958 z "},"Ô":{"ha":1058,"x_min":54,"x_max":1004,"o":"m 522 -19 q 345 13 429 -19 q 196 106 261 46 q 92 251 131 167 q 54 438 54 335 q 85 619 54 532 q 177 774 117 706 q 328 882 238 842 q 535 922 418 922 q 713 890 629 922 q 863 797 797 857 q 966 652 928 736 q 1004 465 1004 568 q 973 285 1004 372 q 881 129 942 197 q 731 21 821 61 q 522 -19 640 -19 m 544 39 q 706 84 642 39 q 803 210 771 129 q 836 396 836 290 q 816 572 836 489 q 756 722 796 656 q 654 824 715 788 q 511 861 593 861 q 352 817 417 861 q 255 693 288 772 q 222 508 222 614 q 242 331 222 414 q 301 181 261 247 q 402 77 342 115 q 544 39 463 39 m 354 965 q 332 981 332 965 q 342 999 332 990 l 482 1119 q 515 1145 503 1138 q 543 1153 526 1153 q 572 1145 560 1153 q 604 1119 583 1138 l 744 999 q 753 981 753 992 q 732 964 753 964 q 703 972 725 964 q 653 993 681 981 q 599 1018 625 1006 q 558 1039 574 1031 q 543 1044 549 1044 q 528 1039 538 1044 q 488 1018 514 1031 q 434 994 461 1006 q 385 974 407 982 q 354 965 363 965 z "},"Ö":{"ha":1058,"x_min":54,"x_max":1004,"o":"m 522 -19 q 345 13 429 -19 q 196 106 261 46 q 92 251 131 167 q 54 438 54 335 q 85 619 54 532 q 177 774 117 706 q 328 882 238 842 q 535 922 418 922 q 713 890 629 922 q 863 797 797 857 q 966 652 928 736 q 1004 465 1004 568 q 973 285 1004 372 q 881 129 942 197 q 731 21 821 61 q 522 -19 640 -19 m 544 39 q 706 84 642 39 q 803 210 771 129 q 836 396 836 290 q 816 572 836 489 q 756 722 796 656 q 654 824 715 788 q 511 861 593 861 q 352 817 417 861 q 255 693 288 772 q 222 508 222 614 q 242 331 222 414 q 301 181 261 247 q 402 77 342 115 q 544 39 463 39 m 681 961 q 624 985 647 961 q 600 1042 600 1008 q 624 1099 600 1075 q 681 1122 647 1122 q 738 1099 714 1122 q 761 1042 761 1075 q 738 985 761 1008 q 681 961 714 961 m 408 961 q 351 985 375 961 q 328 1042 328 1008 q 351 1099 328 1075 q 408 1122 375 1122 q 467 1099 443 1122 q 490 1042 490 1075 q 467 985 490 1008 q 408 961 443 961 z "},"Ò":{"ha":1058,"x_min":54,"x_max":1004,"o":"m 586 950 q 576 953 583 950 q 557 963 568 956 q 458 1031 513 994 q 360 1103 404 1067 q 339 1131 340 1118 q 355 1149 338 1140 q 394 1163 372 1157 q 425 1169 415 1168 q 467 1151 451 1171 q 528 1069 499 1111 q 588 983 558 1026 q 597 960 597 969 q 586 950 597 951 m 522 -19 q 345 13 429 -19 q 196 106 261 46 q 92 251 131 167 q 54 438 54 335 q 85 619 54 532 q 177 774 117 706 q 328 882 238 842 q 535 922 418 922 q 713 890 629 922 q 863 797 797 857 q 966 652 928 736 q 1004 465 1004 568 q 973 285 1004 372 q 881 129 942 197 q 731 21 821 61 q 522 -19 640 -19 m 544 39 q 706 84 642 39 q 803 210 771 129 q 836 396 836 290 q 816 572 836 489 q 756 722 796 656 q 654 824 715 788 q 511 861 593 861 q 352 817 417 861 q 255 693 288 772 q 222 508 222 614 q 242 331 222 414 q 301 181 261 247 q 402 77 342 115 q 544 39 463 39 z "},"Ơ":{"ha":1058,"x_min":54,"x_max":1086,"o":"m 528 -19 q 349 15 435 -19 q 197 111 264 49 q 92 258 131 174 q 54 443 54 343 q 85 623 54 538 q 177 776 117 708 q 326 883 238 843 q 532 922 415 922 q 693 901 631 922 q 803 858 756 881 q 870 825 838 840 q 938 810 903 810 q 977 822 963 810 q 992 849 992 835 q 984 871 992 863 q 963 886 976 879 q 940 899 950 892 q 929 924 929 906 q 947 961 929 942 q 986 994 964 981 q 1026 1008 1008 1008 q 1055 993 1042 1008 q 1077 956 1068 978 q 1086 914 1086 935 q 1066 835 1086 872 q 1011 775 1046 799 q 933 749 976 751 q 917 742 921 749 q 917 731 914 736 q 982 610 960 671 q 1004 465 1004 550 q 974 285 1004 372 q 883 129 943 197 q 733 21 822 61 q 528 -19 644 -19 m 547 39 q 763 142 692 39 q 835 415 835 244 q 815 590 835 508 q 755 733 794 672 q 656 828 715 794 q 517 863 596 863 q 391 833 446 863 q 299 751 336 803 q 242 634 261 700 q 224 493 224 568 q 246 324 224 406 q 311 179 268 243 q 414 77 354 115 q 547 39 474 39 z "},"Ő":{"ha":1058,"x_min":54,"x_max":1004,"o":"m 522 -19 q 345 13 429 -19 q 196 106 261 46 q 92 251 131 167 q 54 438 54 335 q 85 619 54 532 q 177 774 117 706 q 328 882 238 842 q 535 922 418 922 q 713 890 629 922 q 863 797 797 857 q 966 652 928 736 q 1004 465 1004 568 q 973 285 1004 372 q 881 129 942 197 q 731 21 821 61 q 522 -19 640 -19 m 544 39 q 706 84 642 39 q 803 210 771 129 q 836 396 836 290 q 816 572 836 489 q 756 722 796 656 q 654 824 715 788 q 511 861 593 861 q 352 817 417 861 q 255 693 288 772 q 222 508 222 614 q 242 331 222 414 q 301 181 261 247 q 402 77 342 115 q 544 39 463 39 m 583 950 q 572 960 572 951 q 582 983 572 969 q 641 1069 611 1026 q 704 1151 671 1111 q 744 1169 718 1171 q 776 1163 754 1168 q 815 1149 797 1157 q 832 1131 832 1140 q 811 1103 831 1118 q 712 1031 765 1067 q 613 963 658 994 q 594 953 601 956 q 583 950 588 950 m 386 950 q 375 960 375 951 q 385 983 375 969 q 444 1069 414 1026 q 507 1151 474 1111 q 547 1169 521 1171 q 578 1163 557 1168 q 617 1149 600 1157 q 635 1131 635 1140 q 614 1103 633 1118 q 515 1031 568 1067 q 415 963 461 994 q 397 953 404 956 q 386 950 390 950 z "},"Ō":{"ha":1058,"x_min":54,"x_max":1004,"o":"m 522 -19 q 345 13 429 -19 q 196 106 261 46 q 92 251 131 167 q 54 438 54 335 q 85 619 54 532 q 177 774 117 706 q 328 882 238 842 q 535 922 418 922 q 713 890 629 922 q 863 797 797 857 q 966 652 928 736 q 1004 465 1004 568 q 973 285 1004 372 q 881 129 942 197 q 731 21 821 61 q 522 -19 640 -19 m 544 39 q 706 84 642 39 q 803 210 771 129 q 836 396 836 290 q 816 572 836 489 q 756 722 796 656 q 654 824 715 788 q 511 861 593 861 q 352 817 417 861 q 255 693 288 772 q 222 508 222 614 q 242 331 222 414 q 301 181 261 247 q 402 77 342 115 q 544 39 463 39 m 356 1001 q 340 1008 346 1001 q 333 1021 333 1014 q 338 1049 333 1033 q 351 1077 342 1065 q 372 1089 360 1089 l 740 1089 q 756 1083 750 1089 q 761 1069 761 1078 q 747 1023 761 1044 q 714 1001 732 1001 l 356 1001 z "},"Ø":{"ha":1068,"x_min":53,"x_max":1006,"o":"m 100 -19 q 68 -8 83 -19 q 53 15 53 3 q 69 50 53 33 l 960 913 q 982 920 968 922 q 1000 907 996 918 q 1003 894 1001 901 q 1006 881 1006 888 q 1003 864 1006 872 q 993 849 1000 856 l 117 -14 q 110 -17 114 -15 q 100 -19 106 -19 m 522 -19 q 345 13 429 -19 q 196 106 261 46 q 92 251 131 167 q 54 438 54 335 q 85 619 54 532 q 177 774 117 706 q 328 882 238 842 q 535 922 418 922 q 713 890 629 922 q 863 797 797 857 q 966 652 928 736 q 1004 465 1004 568 q 973 285 1004 372 q 881 129 942 197 q 731 21 821 61 q 522 -19 640 -19 m 544 39 q 706 84 642 39 q 803 210 771 129 q 836 396 836 290 q 816 572 836 489 q 756 722 796 656 q 654 824 715 788 q 511 861 593 861 q 352 817 417 861 q 255 693 288 772 q 222 508 222 614 q 242 331 222 414 q 301 181 261 247 q 402 77 342 115 q 544 39 463 39 z "},"Ǿ":{"ha":1068,"x_min":53,"x_max":1006,"o":"m 100 -19 q 68 -8 83 -19 q 53 15 53 3 q 69 50 53 33 l 960 913 q 982 920 968 922 q 1000 907 996 918 q 1003 894 1001 901 q 1006 881 1006 888 q 1003 864 1006 872 q 993 849 1000 856 l 117 -14 q 110 -17 114 -15 q 100 -19 106 -19 m 522 -19 q 345 13 429 -19 q 196 106 261 46 q 92 251 131 167 q 54 438 54 335 q 85 619 54 532 q 177 774 117 706 q 328 882 238 842 q 535 922 418 922 q 713 890 629 922 q 863 797 797 857 q 966 652 928 736 q 1004 465 1004 568 q 973 285 1004 372 q 881 129 942 197 q 731 21 821 61 q 522 -19 640 -19 m 544 39 q 706 84 642 39 q 803 210 771 129 q 836 396 836 290 q 816 572 836 489 q 756 722 796 656 q 654 824 715 788 q 511 861 593 861 q 352 817 417 861 q 255 693 288 772 q 222 508 222 614 q 242 331 222 414 q 301 181 261 247 q 402 77 342 115 q 544 39 463 39 m 490 950 q 479 960 479 951 q 489 983 479 969 q 548 1069 518 1026 q 611 1151 578 1111 q 651 1169 625 1171 q 683 1163 661 1168 q 722 1149 704 1157 q 739 1131 739 1140 q 718 1103 738 1118 q 619 1031 672 1067 q 519 963 565 994 q 501 953 508 956 q 490 950 494 950 z "},"Õ":{"ha":1058,"x_min":54,"x_max":1004,"o":"m 522 -19 q 345 13 429 -19 q 196 106 261 46 q 92 251 131 167 q 54 438 54 335 q 85 619 54 532 q 177 774 117 706 q 328 882 238 842 q 535 922 418 922 q 713 890 629 922 q 863 797 797 857 q 966 652 928 736 q 1004 465 1004 568 q 973 285 1004 372 q 881 129 942 197 q 731 21 821 61 q 522 -19 640 -19 m 544 39 q 706 84 642 39 q 803 210 771 129 q 836 396 836 290 q 816 572 836 489 q 756 722 796 656 q 654 824 715 788 q 511 861 593 861 q 352 817 417 861 q 255 693 288 772 q 222 508 222 614 q 242 331 222 414 q 301 181 261 247 q 402 77 342 115 q 544 39 463 39 m 375 961 q 360 969 368 961 q 351 983 351 976 q 364 1008 351 989 q 395 1051 376 1028 q 433 1091 414 1074 q 463 1108 451 1108 q 515 1107 488 1108 q 565 1103 542 1106 q 615 1100 589 1101 q 664 1099 640 1099 q 692 1107 679 1099 q 715 1125 706 1115 q 733 1144 726 1135 q 743 1153 739 1153 q 763 1146 753 1153 q 772 1129 772 1139 q 766 1117 772 1125 q 750 1099 760 1108 q 718 1058 735 1081 q 689 1019 701 1036 q 667 1004 681 1008 q 647 1000 653 1000 q 612 1001 638 1000 q 553 1006 586 1003 q 492 1010 521 1008 q 447 1013 463 1013 q 424 1006 438 1013 q 403 992 411 1000 q 385 972 392 982 q 375 961 378 961 z "},"Œ":{"ha":1335,"x_min":54,"x_max":1304,"o":"m 522 -19 q 345 13 429 -19 q 196 106 261 46 q 92 251 131 167 q 54 438 54 335 q 85 619 54 532 q 177 774 117 706 q 328 882 238 842 q 535 922 418 922 q 676 902 608 922 q 801 844 744 882 l 728 706 q 697 803 728 771 q 617 847 665 836 q 514 858 568 858 q 298 756 371 858 q 225 479 225 653 q 261 251 225 350 q 368 98 297 153 q 542 43 439 43 q 678 63 629 43 q 728 151 728 83 l 807 65 q 681 3 751 25 q 522 -19 610 -19 m 625 -7 q 599 -3 608 -7 q 589 10 589 1 q 629 36 589 28 q 703 67 681 47 q 726 136 726 88 l 726 764 q 707 832 726 811 q 636 863 688 853 q 606 874 615 867 q 596 890 596 881 q 606 903 596 899 q 632 908 615 908 q 715 907 678 908 q 787 904 751 906 q 865 903 822 903 q 981 903 919 903 q 1093 906 1043 904 q 1172 908 1140 906 q 1208 910 1203 910 q 1226 906 1217 910 q 1236 893 1235 903 q 1251 809 1243 850 q 1258 738 1258 768 q 1252 719 1258 724 q 1239 714 1246 714 q 1228 718 1232 714 q 1219 731 1224 722 q 1203 781 1211 758 q 1182 815 1194 804 q 1140 844 1164 835 q 1088 854 1117 854 l 932 854 q 894 841 914 854 q 874 804 874 828 l 874 521 q 882 499 874 507 q 903 490 890 490 l 1035 490 q 1089 508 1074 490 q 1115 564 1104 526 q 1140 592 1124 592 q 1153 585 1147 592 q 1158 567 1158 579 q 1157 539 1158 558 q 1155 499 1156 519 q 1154 465 1154 478 q 1155 428 1154 450 q 1156 386 1156 407 q 1157 356 1157 365 q 1156 335 1158 343 q 1144 328 1153 328 q 1113 368 1122 328 q 1088 422 1103 404 q 1046 440 1074 440 l 917 440 q 885 433 896 440 q 874 404 874 426 l 874 139 q 894 72 874 90 q 958 53 915 53 l 1068 53 q 1136 58 1107 53 q 1188 79 1165 64 q 1228 122 1210 96 q 1267 188 1246 149 q 1276 201 1271 196 q 1289 204 1282 206 q 1301 198 1297 204 q 1304 182 1304 192 q 1297 136 1304 167 q 1280 72 1290 106 q 1261 15 1269 39 q 1251 -1 1257 6 q 1238 -7 1246 -7 q 1133 -6 1188 -7 q 1023 -3 1079 -4 q 910 0 967 -1 q 797 1 853 1 q 740 -1 767 1 q 687 -5 714 -3 q 625 -7 660 -7 z "},"P":{"ha":793,"x_min":29,"x_max":758,"o":"m 65 -6 q 40 -2 50 -6 q 29 11 29 1 q 69 38 29 29 q 145 68 122 47 q 168 138 168 89 l 168 736 q 152 824 168 794 q 85 863 136 853 q 53 874 63 867 q 43 890 43 881 q 53 903 43 899 q 79 908 64 908 q 139 908 115 908 q 185 906 163 907 q 235 904 207 904 q 292 907 264 904 q 347 913 319 910 q 401 915 374 915 q 661 847 564 915 q 758 660 758 779 q 724 503 758 575 q 619 387 690 431 q 439 343 549 343 q 390 353 407 343 q 372 372 372 363 q 381 387 372 381 q 396 393 389 393 q 419 391 406 393 q 457 389 432 389 q 570 457 532 389 q 608 642 608 525 q 551 813 608 758 q 401 868 493 868 q 340 853 363 868 q 317 806 317 839 l 315 149 q 338 74 315 101 q 414 38 360 47 q 444 28 433 33 q 454 11 454 22 q 444 -1 454 3 q 418 -6 435 -6 q 356 -3 383 -6 q 305 1 329 -1 q 254 3 281 3 q 191 1 221 3 q 131 -3 161 -1 q 65 -6 101 -6 z "},"Þ":{"ha":792,"x_min":28,"x_max":744,"o":"m 64 -6 q 38 -2 49 -6 q 28 11 28 1 q 68 38 28 29 q 147 68 121 47 q 172 136 172 89 l 172 764 q 158 828 172 804 q 90 863 143 851 q 50 890 50 871 q 60 904 50 900 q 85 908 69 908 q 147 907 121 908 q 197 904 172 906 q 249 903 221 903 q 307 903 279 903 q 364 906 335 904 q 428 907 393 907 q 453 903 444 907 q 463 890 463 900 q 453 873 463 879 q 422 863 443 867 q 346 832 371 851 q 319 767 321 813 l 319 747 q 321 731 319 738 q 328 725 322 725 q 338 727 331 725 q 353 731 346 729 q 360 732 361 732 q 408 740 382 738 q 463 742 435 742 q 605 711 540 742 q 707 622 669 681 q 744 474 744 563 q 694 308 744 374 q 560 211 643 243 q 381 179 478 179 q 353 181 367 179 q 331 183 340 183 q 319 171 319 183 l 319 135 q 346 70 319 92 q 424 38 372 49 q 454 28 444 33 q 464 11 464 22 q 454 -1 464 3 q 429 -6 444 -6 q 365 -3 394 -6 q 309 0 336 -1 q 251 1 282 1 q 189 0 218 1 q 129 -3 160 -1 q 64 -6 99 -6 m 385 224 q 539 290 486 224 q 592 465 592 356 q 574 581 592 529 q 519 665 556 633 q 426 696 482 696 q 362 688 385 696 q 329 656 339 679 q 319 590 319 633 l 319 308 q 340 242 319 260 q 385 224 361 224 z "},"Q":{"ha":1058,"x_min":54,"x_max":1224,"o":"m 1026 -344 q 856 -316 932 -344 q 711 -239 779 -287 q 612 -167 658 -201 q 503 -82 565 -133 q 422 -24 463 -46 q 344 14 382 -1 q 240 73 292 38 q 146 159 188 108 q 79 279 104 210 q 54 438 54 349 q 85 619 54 532 q 177 774 117 706 q 328 882 238 842 q 535 922 418 922 q 713 890 629 922 q 863 797 797 857 q 966 652 928 736 q 1004 465 1004 568 q 967 270 1004 364 q 859 107 931 176 q 682 4 788 38 q 669 -7 669 1 q 676 -19 669 -14 q 753 -93 714 -58 q 843 -167 792 -128 q 972 -238 913 -218 q 1104 -258 1032 -258 q 1144 -256 1126 -258 q 1172 -251 1163 -254 q 1186 -248 1179 -249 q 1200 -247 1193 -247 q 1224 -264 1224 -247 q 1218 -284 1224 -276 q 1197 -301 1213 -292 q 1117 -334 1161 -324 q 1026 -344 1072 -344 m 544 40 q 763 137 690 40 q 836 396 836 233 q 816 573 836 489 q 756 722 796 657 q 654 823 715 786 q 511 860 593 860 q 295 765 368 860 q 222 508 222 669 q 242 330 222 414 q 301 181 261 246 q 402 78 342 115 q 544 40 463 40 z "},"R":{"ha":1014,"x_min":29,"x_max":1021,"o":"m 889 -29 q 799 -19 839 -29 q 728 13 760 -8 q 672 64 697 33 q 610 144 640 106 q 549 233 581 183 q 474 353 517 282 q 422 404 456 388 q 374 422 399 417 q 335 428 350 426 q 320 420 325 428 q 315 400 315 413 l 315 149 q 338 76 315 104 q 414 38 360 47 q 444 28 433 33 q 454 11 454 22 q 444 -1 454 3 q 418 -6 435 -6 q 356 -3 383 -6 q 305 1 329 -1 q 254 3 281 3 q 191 1 221 3 q 131 -3 161 -1 q 65 -6 101 -6 q 40 -2 50 -6 q 29 11 29 1 q 69 38 29 29 q 145 68 122 47 q 168 138 168 89 l 168 740 q 163 812 168 788 q 140 847 157 836 q 85 863 122 857 q 53 873 63 865 q 43 890 43 881 q 53 903 43 899 q 79 908 64 908 q 142 907 119 908 q 184 905 164 906 q 235 904 204 904 q 285 906 263 904 q 335 910 307 908 q 406 913 363 913 q 644 856 561 913 q 726 686 726 800 q 701 579 726 624 q 636 506 675 535 q 558 460 597 476 q 553 453 553 458 q 557 442 554 449 q 640 320 600 378 q 724 209 679 263 q 828 101 769 156 q 909 58 867 65 q 1000 51 951 51 q 1021 32 1021 51 q 999 -5 1021 8 q 947 -24 978 -18 q 889 -29 917 -29 m 382 464 q 484 491 442 464 q 549 563 526 518 q 572 661 572 608 q 557 767 572 721 q 501 838 542 813 q 386 864 461 864 q 333 837 347 864 q 318 735 319 810 q 316 646 317 701 q 315 514 315 590 q 333 472 315 481 q 382 464 351 464 z "},"Ŕ":{"ha":1014,"x_min":29,"x_max":1021,"o":"m 889 -29 q 799 -19 839 -29 q 728 13 760 -8 q 672 64 697 33 q 610 144 640 106 q 549 233 581 183 q 474 353 517 282 q 422 404 456 388 q 374 422 399 417 q 335 428 350 426 q 320 420 325 428 q 315 400 315 413 l 315 149 q 338 76 315 104 q 414 38 360 47 q 444 28 433 33 q 454 11 454 22 q 444 -1 454 3 q 418 -6 435 -6 q 356 -3 383 -6 q 305 1 329 -1 q 254 3 281 3 q 191 1 221 3 q 131 -3 161 -1 q 65 -6 101 -6 q 40 -2 50 -6 q 29 11 29 1 q 69 38 29 29 q 145 68 122 47 q 168 138 168 89 l 168 740 q 163 812 168 788 q 140 847 157 836 q 85 863 122 857 q 53 873 63 865 q 43 890 43 881 q 53 903 43 899 q 79 908 64 908 q 142 907 119 908 q 184 905 164 906 q 235 904 204 904 q 285 906 263 904 q 335 910 307 908 q 406 913 363 913 q 644 856 561 913 q 726 686 726 800 q 701 579 726 624 q 636 506 675 535 q 558 460 597 476 q 553 453 553 458 q 557 442 554 449 q 640 320 600 378 q 724 209 679 263 q 828 101 769 156 q 909 58 867 65 q 1000 51 951 51 q 1021 32 1021 51 q 999 -5 1021 8 q 947 -24 978 -18 q 889 -29 917 -29 m 382 464 q 484 491 442 464 q 549 563 526 518 q 572 661 572 608 q 557 767 572 721 q 501 838 542 813 q 386 864 461 864 q 333 837 347 864 q 318 735 319 810 q 316 646 317 701 q 315 514 315 590 q 333 472 315 481 q 382 464 351 464 m 354 950 q 343 960 343 951 q 353 983 343 969 q 412 1069 382 1026 q 475 1151 442 1111 q 515 1169 489 1171 q 547 1163 525 1168 q 585 1149 568 1157 q 603 1131 603 1140 q 582 1103 601 1118 q 483 1031 536 1067 q 383 963 429 994 q 365 953 372 956 q 354 950 358 950 z "},"Ř":{"ha":1014,"x_min":29,"x_max":1021,"o":"m 889 -29 q 799 -19 839 -29 q 728 13 760 -8 q 672 64 697 33 q 610 144 640 106 q 549 233 581 183 q 474 353 517 282 q 422 404 456 388 q 374 422 399 417 q 335 428 350 426 q 320 420 325 428 q 315 400 315 413 l 315 149 q 338 76 315 104 q 414 38 360 47 q 444 28 433 33 q 454 11 454 22 q 444 -1 454 3 q 418 -6 435 -6 q 356 -3 383 -6 q 305 1 329 -1 q 254 3 281 3 q 191 1 221 3 q 131 -3 161 -1 q 65 -6 101 -6 q 40 -2 50 -6 q 29 11 29 1 q 69 38 29 29 q 145 68 122 47 q 168 138 168 89 l 168 740 q 163 812 168 788 q 140 847 157 836 q 85 863 122 857 q 53 873 63 865 q 43 890 43 881 q 53 903 43 899 q 79 908 64 908 q 142 907 119 908 q 184 905 164 906 q 235 904 204 904 q 285 906 263 904 q 335 910 307 908 q 406 913 363 913 q 644 856 561 913 q 726 686 726 800 q 701 579 726 624 q 636 506 675 535 q 558 460 597 476 q 553 453 553 458 q 557 442 554 449 q 640 320 600 378 q 724 209 679 263 q 828 101 769 156 q 909 58 867 65 q 1000 51 951 51 q 1021 32 1021 51 q 999 -5 1021 8 q 947 -24 978 -18 q 889 -29 917 -29 m 382 464 q 484 491 442 464 q 549 563 526 518 q 572 661 572 608 q 557 767 572 721 q 501 838 542 813 q 386 864 461 864 q 333 837 347 864 q 318 735 319 810 q 316 646 317 701 q 315 514 315 590 q 333 472 315 481 q 382 464 351 464 m 221 1154 q 251 1146 229 1154 q 301 1126 274 1138 q 354 1101 328 1114 q 394 1081 381 1089 q 410 1075 404 1075 q 425 1081 415 1075 q 466 1101 440 1089 q 519 1126 492 1114 q 569 1147 547 1139 q 599 1156 592 1156 q 619 1139 619 1156 q 611 1121 619 1128 l 471 1006 q 438 979 450 988 q 410 971 426 971 q 382 979 393 971 q 349 1006 371 988 l 208 1121 q 199 1139 199 1131 q 221 1154 199 1154 z "},"S":{"ha":660,"x_min":47,"x_max":603,"o":"m 290 -21 q 181 -5 232 -21 q 86 43 129 11 q 74 56 81 49 q 65 72 68 64 q 52 152 56 104 q 47 238 49 200 q 56 252 47 247 q 75 257 64 257 q 91 253 85 257 q 100 240 97 250 q 186 83 129 135 q 310 31 243 31 q 391 51 357 31 q 444 108 425 72 q 464 188 464 143 q 446 274 464 240 q 393 333 428 307 q 307 390 358 360 q 198 460 251 424 q 110 544 144 496 q 75 664 75 593 q 110 797 75 739 q 214 888 146 854 q 378 922 282 922 q 469 912 428 922 q 535 890 510 901 q 555 876 547 886 q 567 853 563 867 q 582 785 574 824 q 590 706 590 746 q 568 690 590 690 q 544 696 556 690 q 531 710 533 701 q 462 828 503 788 q 358 868 421 868 q 283 853 317 868 q 228 806 249 839 q 208 721 208 774 q 234 651 208 683 q 303 588 260 618 q 401 526 347 558 q 504 454 458 492 q 576 369 550 417 q 603 254 603 321 q 564 105 603 167 q 455 11 525 43 q 290 -21 385 -21 z "},"Ś":{"ha":660,"x_min":47,"x_max":603,"o":"m 290 -21 q 181 -5 232 -21 q 86 43 129 11 q 74 56 81 49 q 65 72 68 64 q 52 152 56 104 q 47 238 49 200 q 56 252 47 247 q 75 257 64 257 q 91 253 85 257 q 100 240 97 250 q 186 83 129 135 q 310 31 243 31 q 391 51 357 31 q 444 108 425 72 q 464 188 464 143 q 446 274 464 240 q 393 333 428 307 q 307 390 358 360 q 198 460 251 424 q 110 544 144 496 q 75 664 75 593 q 110 797 75 739 q 214 888 146 854 q 378 922 282 922 q 469 912 428 922 q 535 890 510 901 q 555 876 547 886 q 567 853 563 867 q 582 785 574 824 q 590 706 590 746 q 568 690 590 690 q 544 696 556 690 q 531 710 533 701 q 462 828 503 788 q 358 868 421 868 q 283 853 317 868 q 228 806 249 839 q 208 721 208 774 q 234 651 208 683 q 303 588 260 618 q 401 526 347 558 q 504 454 458 492 q 576 369 550 417 q 603 254 603 321 q 564 105 603 167 q 455 11 525 43 q 290 -21 385 -21 m 322 950 q 311 960 311 951 q 321 983 311 969 q 380 1069 350 1026 q 443 1151 410 1111 q 483 1169 457 1171 q 515 1163 493 1168 q 553 1149 536 1157 q 571 1131 571 1140 q 550 1103 569 1118 q 451 1031 504 1067 q 351 963 397 994 q 333 953 340 956 q 322 950 326 950 z "},"Š":{"ha":660,"x_min":47,"x_max":603,"o":"m 290 -21 q 181 -5 232 -21 q 86 43 129 11 q 74 56 81 49 q 65 72 68 64 q 52 152 56 104 q 47 238 49 200 q 56 252 47 247 q 75 257 64 257 q 91 253 85 257 q 100 240 97 250 q 186 83 129 135 q 310 31 243 31 q 391 51 357 31 q 444 108 425 72 q 464 188 464 143 q 446 274 464 240 q 393 333 428 307 q 307 390 358 360 q 198 460 251 424 q 110 544 144 496 q 75 664 75 593 q 110 797 75 739 q 214 888 146 854 q 378 922 282 922 q 469 912 428 922 q 535 890 510 901 q 555 876 547 886 q 567 853 563 867 q 582 785 574 824 q 590 706 590 746 q 568 690 590 690 q 544 696 556 690 q 531 710 533 701 q 462 828 503 788 q 358 868 421 868 q 283 853 317 868 q 228 806 249 839 q 208 721 208 774 q 234 651 208 683 q 303 588 260 618 q 401 526 347 558 q 504 454 458 492 q 576 369 550 417 q 603 254 603 321 q 564 105 603 167 q 455 11 525 43 q 290 -21 385 -21 m 188 1154 q 218 1146 196 1154 q 267 1126 240 1138 q 321 1101 294 1114 q 361 1081 347 1089 q 376 1075 371 1075 q 392 1081 382 1075 q 433 1101 407 1089 q 486 1126 458 1114 q 536 1147 514 1139 q 565 1156 558 1156 q 586 1139 586 1156 q 578 1121 586 1128 l 438 1006 q 405 979 417 988 q 376 971 393 971 q 349 979 360 971 q 315 1006 338 988 l 175 1121 q 165 1139 165 1131 q 188 1154 165 1154 z "},"Ş":{"ha":656,"x_min":47,"x_max":603,"o":"m 290 -21 q 181 -5 232 -21 q 86 43 129 11 q 74 56 81 49 q 65 72 68 64 q 52 152 56 104 q 47 238 49 200 q 56 252 47 247 q 75 257 64 257 q 91 253 85 257 q 100 240 97 250 q 186 83 129 135 q 310 31 243 31 q 391 51 357 31 q 444 108 425 72 q 464 188 464 143 q 446 274 464 240 q 393 333 428 307 q 307 390 358 360 q 198 460 251 424 q 110 544 144 496 q 75 664 75 593 q 110 797 75 739 q 214 888 146 854 q 378 922 282 922 q 469 912 428 922 q 535 890 510 901 q 555 876 547 886 q 567 853 563 867 q 582 785 574 824 q 590 706 590 746 q 568 690 590 690 q 544 696 556 690 q 531 710 533 701 q 462 828 503 788 q 358 868 421 868 q 283 853 317 868 q 228 806 249 839 q 208 721 208 774 q 234 651 208 683 q 303 588 260 618 q 401 526 347 558 q 504 454 458 492 q 576 369 550 417 q 603 254 603 321 q 564 105 603 167 q 455 11 525 43 q 290 -21 385 -21 m 251 -382 q 202 -371 219 -382 q 185 -332 185 -360 q 193 -297 185 -308 q 210 -286 201 -286 q 233 -295 218 -286 q 296 -304 247 -304 q 340 -290 324 -304 q 356 -250 356 -276 q 338 -199 356 -215 q 289 -182 319 -182 q 271 -185 278 -182 q 254 -187 264 -187 q 226 -178 235 -187 q 217 -161 217 -168 q 219 -149 217 -154 q 225 -139 221 -143 l 342 11 l 393 11 l 342 -62 q 350 -93 326 -83 q 410 -135 381 -104 q 440 -212 440 -165 q 408 -299 440 -261 q 331 -360 375 -337 q 251 -382 288 -382 z "},"Ŝ":{"ha":660,"x_min":47,"x_max":603,"o":"m 290 -21 q 181 -5 232 -21 q 86 43 129 11 q 74 56 81 49 q 65 72 68 64 q 52 152 56 104 q 47 238 49 200 q 56 252 47 247 q 75 257 64 257 q 91 253 85 257 q 100 240 97 250 q 186 83 129 135 q 310 31 243 31 q 391 51 357 31 q 444 108 425 72 q 464 188 464 143 q 446 274 464 240 q 393 333 428 307 q 307 390 358 360 q 198 460 251 424 q 110 544 144 496 q 75 664 75 593 q 110 797 75 739 q 214 888 146 854 q 378 922 282 922 q 469 912 428 922 q 535 890 510 901 q 555 876 547 886 q 567 853 563 867 q 582 785 574 824 q 590 706 590 746 q 568 690 590 690 q 544 696 556 690 q 531 710 533 701 q 462 828 503 788 q 358 868 421 868 q 283 853 317 868 q 228 806 249 839 q 208 721 208 774 q 234 651 208 683 q 303 588 260 618 q 401 526 347 558 q 504 454 458 492 q 576 369 550 417 q 603 254 603 321 q 564 105 603 167 q 455 11 525 43 q 290 -21 385 -21 m 186 965 q 164 981 164 965 q 174 999 164 990 l 314 1119 q 347 1145 335 1138 q 375 1153 358 1153 q 403 1145 392 1153 q 436 1119 415 1138 l 576 999 q 585 981 585 992 q 564 964 585 964 q 535 972 557 964 q 485 993 513 981 q 431 1018 457 1006 q 390 1039 406 1031 q 375 1044 381 1044 q 360 1039 369 1044 q 319 1018 346 1031 q 266 994 293 1006 q 217 974 239 982 q 186 965 194 965 z "},"ẞ":{"ha":1006,"x_min":36,"x_max":947,"o":"m 599 -19 q 541 -14 574 -19 q 472 1 508 -8 q 451 18 457 6 q 435 72 444 36 q 418 146 425 107 q 410 210 411 185 q 419 226 410 219 q 439 233 428 233 q 458 203 443 233 q 483 153 468 182 q 517 98 497 125 q 564 52 538 71 q 625 33 590 33 q 710 65 675 33 q 765 146 746 96 q 785 253 785 196 q 747 378 785 333 q 642 441 708 422 q 490 460 576 460 q 473 462 485 460 q 467 474 461 464 l 689 813 q 669 839 697 826 q 608 859 639 853 q 551 865 578 865 q 435 836 483 865 q 355 756 386 807 q 308 638 324 704 q 293 497 293 572 q 293 363 293 419 q 293 266 293 307 q 294 195 293 225 q 296 140 294 165 q 315 75 296 99 q 357 44 335 51 q 388 33 378 39 q 397 15 397 26 q 388 3 397 7 q 363 -1 378 -1 q 334 -1 354 -1 q 290 1 314 0 q 248 3 267 3 q 221 4 229 4 q 192 3 213 4 q 147 1 172 1 q 101 -1 122 0 q 72 -3 81 -3 q 47 1 57 -3 q 36 14 36 6 q 76 44 36 33 q 128 73 108 53 q 149 142 149 93 l 149 510 q 180 676 149 600 q 270 807 211 751 q 410 892 329 863 q 589 921 490 921 q 725 906 657 921 q 856 868 793 890 q 873 855 867 865 q 872 835 879 844 l 821 765 q 765 684 792 721 q 713 610 738 647 q 657 526 688 574 q 656 517 656 522 q 663 510 657 511 q 802 474 738 506 q 907 389 867 442 q 947 265 947 336 q 905 113 947 178 q 784 15 863 49 q 599 -19 706 -19 z "},"Ə":{"ha":928,"x_min":36,"x_max":872,"o":"m 407 -21 q 262 6 329 -21 q 144 77 194 32 q 65 181 93 122 q 36 307 36 240 q 56 351 36 336 q 104 365 76 365 l 757 365 l 757 314 l 233 313 q 196 297 210 313 q 182 256 182 281 q 201 164 182 204 q 256 94 221 124 q 335 51 290 65 q 431 36 381 36 q 560 72 507 39 q 645 160 613 106 q 692 278 678 214 q 707 407 707 343 q 672 635 707 533 q 569 798 638 738 q 397 858 500 858 q 294 840 339 858 q 215 792 249 821 q 158 730 181 763 q 119 671 135 697 q 105 651 113 660 q 82 642 97 642 q 67 657 68 642 q 69 688 67 672 q 80 735 72 707 q 98 793 88 764 q 119 839 108 822 q 142 853 125 847 q 186 869 160 860 q 285 903 224 885 q 429 921 347 921 q 590 892 511 921 q 732 803 668 863 q 834 658 796 744 q 872 458 872 572 q 838 274 872 361 q 740 122 803 188 q 593 17 678 56 q 407 -21 508 -21 z "},"T":{"ha":943,"x_min":33,"x_max":943,"o":"m 293 -6 q 267 -2 278 -6 q 256 11 256 1 q 267 27 256 21 q 297 38 278 33 q 376 69 350 47 q 403 140 403 92 l 403 690 q 400 783 403 751 q 392 826 397 814 q 376 840 386 838 q 339 845 360 844 q 290 846 318 846 l 236 846 q 165 830 200 846 q 111 785 129 814 q 95 762 106 776 q 72 737 85 747 q 47 726 60 726 q 37 732 40 726 q 33 746 33 738 q 42 776 33 761 q 74 854 64 821 q 89 933 83 888 q 100 961 92 956 q 117 967 108 967 q 135 949 124 967 q 154 921 147 932 q 196 901 165 908 q 253 894 226 894 l 754 896 q 826 901 797 896 q 872 915 854 907 q 903 937 892 925 q 932 949 914 949 q 940 940 938 949 q 943 919 943 931 q 942 903 943 914 q 939 885 940 892 q 928 843 933 858 q 922 815 924 828 q 919 781 919 801 l 919 761 q 914 729 919 744 q 897 714 908 714 q 879 728 886 714 q 865 771 872 743 q 828 826 857 807 q 735 846 800 846 l 618 846 q 575 837 590 846 q 555 795 560 828 q 550 690 550 763 l 550 140 q 577 71 550 93 q 657 38 604 49 q 687 28 676 33 q 697 11 697 22 q 688 -1 697 3 q 661 -6 678 -6 q 597 -3 626 -6 q 540 0 568 -1 q 482 1 513 1 q 419 0 449 1 q 360 -3 390 -1 q 293 -6 329 -6 z "},"Ŧ":{"ha":943,"x_min":33,"x_max":943,"o":"m 243 460 q 226 470 232 460 q 219 489 219 481 q 230 510 219 501 q 254 519 240 519 l 717 519 q 733 513 725 519 q 739 499 740 507 q 721 471 733 482 q 690 460 708 460 l 243 460 m 293 -6 q 267 -2 278 -6 q 256 11 256 1 q 267 27 256 21 q 297 38 278 33 q 376 69 350 47 q 403 140 403 92 l 403 690 q 400 783 403 751 q 392 826 397 814 q 376 840 386 838 q 339 845 360 844 q 290 846 318 846 l 236 846 q 165 830 200 846 q 111 785 129 814 q 95 762 106 776 q 72 737 85 747 q 47 726 60 726 q 37 732 40 726 q 33 746 33 738 q 42 776 33 761 q 74 854 64 821 q 89 933 83 888 q 100 961 92 956 q 117 967 108 967 q 135 949 124 967 q 154 921 147 932 q 196 901 165 908 q 253 894 226 894 l 754 896 q 826 901 797 896 q 872 915 854 907 q 903 937 892 925 q 932 949 914 949 q 940 940 938 949 q 943 919 943 931 q 942 903 943 914 q 939 885 940 892 q 928 843 933 858 q 922 815 924 828 q 919 781 919 801 l 919 761 q 914 729 919 744 q 897 714 908 714 q 879 728 886 714 q 865 771 872 743 q 828 826 857 807 q 735 846 800 846 l 618 846 q 575 837 590 846 q 555 795 560 828 q 550 690 550 763 l 550 140 q 577 71 550 93 q 657 38 604 49 q 687 28 676 33 q 697 11 697 22 q 688 -1 697 3 q 661 -6 678 -6 q 597 -3 626 -6 q 540 0 568 -1 q 482 1 513 1 q 419 0 449 1 q 360 -3 390 -1 q 293 -6 329 -6 z "},"Ť":{"ha":943,"x_min":33,"x_max":943,"o":"m 293 -6 q 267 -2 278 -6 q 256 11 256 1 q 267 27 256 21 q 297 38 278 33 q 376 69 350 47 q 403 140 403 92 l 403 690 q 400 783 403 751 q 392 826 397 814 q 376 840 386 838 q 339 845 360 844 q 290 846 318 846 l 236 846 q 165 830 200 846 q 111 785 129 814 q 95 762 106 776 q 72 737 85 747 q 47 726 60 726 q 37 732 40 726 q 33 746 33 738 q 42 776 33 761 q 74 854 64 821 q 89 933 83 888 q 100 961 92 956 q 117 967 108 967 q 135 949 124 967 q 154 921 147 932 q 196 901 165 908 q 253 894 226 894 l 754 896 q 826 901 797 896 q 872 915 854 907 q 903 937 892 925 q 932 949 914 949 q 940 940 938 949 q 943 919 943 931 q 942 903 943 914 q 939 885 940 892 q 928 843 933 858 q 922 815 924 828 q 919 781 919 801 l 919 761 q 914 729 919 744 q 897 714 908 714 q 879 728 886 714 q 865 771 872 743 q 828 826 857 807 q 735 846 800 846 l 618 846 q 575 837 590 846 q 555 795 560 828 q 550 690 550 763 l 550 140 q 577 71 550 93 q 657 38 604 49 q 687 28 676 33 q 697 11 697 22 q 688 -1 697 3 q 661 -6 678 -6 q 597 -3 626 -6 q 540 0 568 -1 q 482 1 513 1 q 419 0 449 1 q 360 -3 390 -1 q 293 -6 329 -6 m 293 1154 q 324 1146 301 1154 q 373 1126 346 1138 q 426 1101 400 1114 q 467 1081 453 1089 q 482 1075 476 1075 q 497 1081 488 1075 q 538 1101 513 1089 q 592 1126 564 1114 q 642 1147 619 1139 q 671 1156 664 1156 q 692 1139 692 1156 q 683 1121 692 1128 l 543 1006 q 510 979 522 988 q 482 971 499 971 q 454 979 465 971 q 421 1006 443 988 l 281 1121 q 271 1139 271 1131 q 293 1154 271 1154 z "},"U":{"ha":1028,"x_min":26,"x_max":1015,"o":"m 517 -19 q 307 25 392 -19 q 179 151 222 69 q 136 340 136 232 l 136 756 q 117 828 136 801 q 71 860 99 854 q 26 890 26 872 q 38 904 26 900 q 65 908 49 908 q 139 906 101 908 q 215 903 176 903 q 288 905 250 903 q 354 907 325 907 q 383 903 372 907 q 393 889 393 899 q 378 872 393 878 q 340 857 364 865 q 303 824 322 850 q 285 754 285 799 l 285 374 q 319 200 285 268 q 415 100 354 132 q 553 68 476 68 q 755 159 690 68 q 819 410 819 250 q 819 490 819 442 q 819 593 819 539 q 817 696 818 647 q 809 774 815 742 q 789 829 803 807 q 753 858 775 851 q 722 871 739 864 q 704 889 704 878 q 715 901 704 897 q 744 906 726 906 q 806 904 783 906 q 860 903 828 903 q 902 904 883 903 q 939 907 921 906 q 976 908 957 908 q 1004 904 993 908 q 1015 890 1015 900 q 972 863 1015 872 q 916 825 932 853 q 897 751 900 797 q 889 542 890 638 q 885 353 888 447 q 834 160 883 244 q 703 28 785 75 q 517 -19 621 -19 z "},"Ú":{"ha":1028,"x_min":26,"x_max":1015,"o":"m 517 -19 q 307 25 392 -19 q 179 151 222 69 q 136 340 136 232 l 136 756 q 117 828 136 801 q 71 860 99 854 q 26 890 26 872 q 38 904 26 900 q 65 908 49 908 q 139 906 101 908 q 215 903 176 903 q 288 905 250 903 q 354 907 325 907 q 383 903 372 907 q 393 889 393 899 q 378 872 393 878 q 340 857 364 865 q 303 824 322 850 q 285 754 285 799 l 285 374 q 319 200 285 268 q 415 100 354 132 q 553 68 476 68 q 755 159 690 68 q 819 410 819 250 q 819 490 819 442 q 819 593 819 539 q 817 696 818 647 q 809 774 815 742 q 789 829 803 807 q 753 858 775 851 q 722 871 739 864 q 704 889 704 878 q 715 901 704 897 q 744 906 726 906 q 806 904 783 906 q 860 903 828 903 q 902 904 883 903 q 939 907 921 906 q 976 908 957 908 q 1004 904 993 908 q 1015 890 1015 900 q 972 863 1015 872 q 916 825 932 853 q 897 751 900 797 q 889 542 890 638 q 885 353 888 447 q 834 160 883 244 q 703 28 785 75 q 517 -19 621 -19 m 496 950 q 485 960 485 951 q 494 983 485 969 q 553 1069 524 1026 q 617 1151 583 1111 q 657 1169 631 1171 q 688 1163 667 1168 q 727 1149 710 1157 q 744 1131 744 1140 q 724 1103 743 1118 q 624 1031 678 1067 q 525 963 571 994 q 507 953 514 956 q 496 950 500 950 z "},"Ŭ":{"ha":1028,"x_min":26,"x_max":1015,"o":"m 517 -19 q 307 25 392 -19 q 179 151 222 69 q 136 340 136 232 l 136 756 q 117 828 136 801 q 71 860 99 854 q 26 890 26 872 q 38 904 26 900 q 65 908 49 908 q 139 906 101 908 q 215 903 176 903 q 288 905 250 903 q 354 907 325 907 q 383 903 372 907 q 393 889 393 899 q 378 872 393 878 q 340 857 364 865 q 303 824 322 850 q 285 754 285 799 l 285 374 q 319 200 285 268 q 415 100 354 132 q 553 68 476 68 q 755 159 690 68 q 819 410 819 250 q 819 490 819 442 q 819 593 819 539 q 817 696 818 647 q 809 774 815 742 q 789 829 803 807 q 753 858 775 851 q 722 871 739 864 q 704 889 704 878 q 715 901 704 897 q 744 906 726 906 q 806 904 783 906 q 860 903 828 903 q 902 904 883 903 q 939 907 921 906 q 976 908 957 908 q 1004 904 993 908 q 1015 890 1015 900 q 972 863 1015 872 q 916 825 932 853 q 897 751 900 797 q 889 542 890 638 q 885 353 888 447 q 834 160 883 244 q 703 28 785 75 q 517 -19 621 -19 m 550 958 q 444 985 488 958 q 378 1047 401 1011 q 356 1113 356 1083 q 360 1138 356 1128 q 371 1147 364 1147 q 392 1138 383 1147 q 407 1118 400 1128 q 470 1068 436 1083 q 550 1053 504 1053 q 630 1068 596 1053 q 693 1118 664 1083 q 710 1138 701 1128 q 729 1147 718 1147 q 742 1138 740 1147 q 744 1113 744 1128 q 722 1047 744 1083 q 656 985 699 1011 q 550 958 614 958 z "},"Û":{"ha":1028,"x_min":26,"x_max":1015,"o":"m 517 -19 q 307 25 392 -19 q 179 151 222 69 q 136 340 136 232 l 136 756 q 117 828 136 801 q 71 860 99 854 q 26 890 26 872 q 38 904 26 900 q 65 908 49 908 q 139 906 101 908 q 215 903 176 903 q 288 905 250 903 q 354 907 325 907 q 383 903 372 907 q 393 889 393 899 q 378 872 393 878 q 340 857 364 865 q 303 824 322 850 q 285 754 285 799 l 285 374 q 319 200 285 268 q 415 100 354 132 q 553 68 476 68 q 755 159 690 68 q 819 410 819 250 q 819 490 819 442 q 819 593 819 539 q 817 696 818 647 q 809 774 815 742 q 789 829 803 807 q 753 858 775 851 q 722 871 739 864 q 704 889 704 878 q 715 901 704 897 q 744 906 726 906 q 806 904 783 906 q 860 903 828 903 q 902 904 883 903 q 939 907 921 906 q 976 908 957 908 q 1004 904 993 908 q 1015 890 1015 900 q 972 863 1015 872 q 916 825 932 853 q 897 751 900 797 q 889 542 890 638 q 885 353 888 447 q 834 160 883 244 q 703 28 785 75 q 517 -19 621 -19 m 361 965 q 339 981 339 965 q 349 999 339 990 l 489 1119 q 522 1145 510 1138 q 550 1153 533 1153 q 578 1145 567 1153 q 611 1119 590 1138 l 751 999 q 760 981 760 992 q 739 964 760 964 q 710 972 732 964 q 660 993 688 981 q 606 1018 632 1006 q 565 1039 581 1031 q 550 1044 556 1044 q 535 1039 544 1044 q 494 1018 521 1031 q 441 994 468 1006 q 392 974 414 982 q 361 965 369 965 z "},"Ü":{"ha":1028,"x_min":26,"x_max":1015,"o":"m 517 -19 q 307 25 392 -19 q 179 151 222 69 q 136 340 136 232 l 136 756 q 117 828 136 801 q 71 860 99 854 q 26 890 26 872 q 38 904 26 900 q 65 908 49 908 q 139 906 101 908 q 215 903 176 903 q 288 905 250 903 q 354 907 325 907 q 383 903 372 907 q 393 889 393 899 q 378 872 393 878 q 340 857 364 865 q 303 824 322 850 q 285 754 285 799 l 285 374 q 319 200 285 268 q 415 100 354 132 q 553 68 476 68 q 755 159 690 68 q 819 410 819 250 q 819 490 819 442 q 819 593 819 539 q 817 696 818 647 q 809 774 815 742 q 789 829 803 807 q 753 858 775 851 q 722 871 739 864 q 704 889 704 878 q 715 901 704 897 q 744 906 726 906 q 806 904 783 906 q 860 903 828 903 q 902 904 883 903 q 939 907 921 906 q 976 908 957 908 q 1004 904 993 908 q 1015 890 1015 900 q 972 863 1015 872 q 916 825 932 853 q 897 751 900 797 q 889 542 890 638 q 885 353 888 447 q 834 160 883 244 q 703 28 785 75 q 517 -19 621 -19 m 686 961 q 629 985 653 961 q 606 1042 606 1008 q 629 1099 606 1075 q 686 1122 653 1122 q 743 1099 719 1122 q 767 1042 767 1075 q 743 985 767 1008 q 686 961 719 961 m 414 961 q 357 985 381 961 q 333 1042 333 1008 q 357 1099 333 1075 q 414 1122 381 1122 q 472 1099 449 1122 q 496 1042 496 1075 q 472 985 496 1008 q 414 961 449 961 z "},"Ù":{"ha":1028,"x_min":26,"x_max":1015,"o":"m 592 950 q 581 953 589 950 q 564 963 574 956 q 465 1031 519 994 q 365 1103 411 1067 q 344 1131 346 1118 q 362 1149 344 1140 q 401 1163 379 1157 q 432 1169 422 1168 q 472 1151 458 1171 q 535 1069 506 1111 q 593 983 565 1026 q 603 960 603 969 q 592 950 603 951 m 517 -19 q 307 25 392 -19 q 179 151 222 69 q 136 340 136 232 l 136 756 q 117 828 136 801 q 71 860 99 854 q 26 890 26 872 q 38 904 26 900 q 65 908 49 908 q 139 906 101 908 q 215 903 176 903 q 288 905 250 903 q 354 907 325 907 q 383 903 372 907 q 393 889 393 899 q 378 872 393 878 q 340 857 364 865 q 303 824 322 850 q 285 754 285 799 l 285 374 q 319 200 285 268 q 415 100 354 132 q 553 68 476 68 q 755 159 690 68 q 819 410 819 250 q 819 490 819 442 q 819 593 819 539 q 817 696 818 647 q 809 774 815 742 q 789 829 803 807 q 753 858 775 851 q 722 871 739 864 q 704 889 704 878 q 715 901 704 897 q 744 906 726 906 q 806 904 783 906 q 860 903 828 903 q 902 904 883 903 q 939 907 921 906 q 976 908 957 908 q 1004 904 993 908 q 1015 890 1015 900 q 972 863 1015 872 q 916 825 932 853 q 897 751 900 797 q 889 542 890 638 q 885 353 888 447 q 834 160 883 244 q 703 28 785 75 q 517 -19 621 -19 z "},"Ư":{"ha":1028,"x_min":26,"x_max":1097,"o":"m 525 -19 q 306 37 392 -19 q 178 193 221 93 q 136 421 136 293 l 136 756 q 117 828 136 801 q 71 860 99 854 q 26 890 26 872 q 38 904 26 900 q 65 908 49 908 q 139 906 101 908 q 215 903 176 903 q 288 905 250 903 q 354 907 325 907 q 383 903 372 907 q 393 889 393 899 q 378 872 393 878 q 340 857 364 865 q 303 824 322 850 q 285 754 285 799 l 285 400 q 320 233 285 308 q 418 113 356 157 q 563 68 481 68 q 706 110 650 68 q 789 231 761 153 q 817 415 817 310 q 816 494 817 447 q 815 594 815 542 q 813 696 814 646 q 806 774 813 742 q 785 829 799 807 q 750 858 772 851 q 719 871 736 864 q 701 889 701 878 q 713 901 701 897 q 742 906 724 906 q 780 905 764 906 q 811 903 796 904 q 843 903 826 903 l 958 903 q 997 921 985 903 q 1010 949 1010 939 q 999 965 1010 958 q 976 976 989 971 q 953 992 964 983 q 942 1014 942 1000 q 957 1047 942 1029 q 995 1079 972 1065 q 1038 1093 1018 1093 q 1067 1076 1053 1093 q 1089 1037 1081 1060 q 1097 994 1097 1014 q 1076 924 1097 954 q 1022 876 1056 894 q 950 846 988 857 q 910 816 919 836 q 899 756 900 796 q 890 546 892 640 q 886 357 889 451 q 836 163 885 249 q 707 29 788 78 q 525 -19 626 -19 z "},"Ű":{"ha":1028,"x_min":26,"x_max":1015,"o":"m 517 -19 q 307 25 392 -19 q 179 151 222 69 q 136 340 136 232 l 136 756 q 117 828 136 801 q 71 860 99 854 q 26 890 26 872 q 38 904 26 900 q 65 908 49 908 q 139 906 101 908 q 215 903 176 903 q 288 905 250 903 q 354 907 325 907 q 383 903 372 907 q 393 889 393 899 q 378 872 393 878 q 340 857 364 865 q 303 824 322 850 q 285 754 285 799 l 285 374 q 319 200 285 268 q 415 100 354 132 q 553 68 476 68 q 755 159 690 68 q 819 410 819 250 q 819 490 819 442 q 819 593 819 539 q 817 696 818 647 q 809 774 815 742 q 789 829 803 807 q 753 858 775 851 q 722 871 739 864 q 704 889 704 878 q 715 901 704 897 q 744 906 726 906 q 806 904 783 906 q 860 903 828 903 q 902 904 883 903 q 939 907 921 906 q 976 908 957 908 q 1004 904 993 908 q 1015 890 1015 900 q 972 863 1015 872 q 916 825 932 853 q 897 751 900 797 q 889 542 890 638 q 885 353 888 447 q 834 160 883 244 q 703 28 785 75 q 517 -19 621 -19 m 590 950 q 579 960 579 951 q 589 983 579 969 q 648 1069 618 1026 q 711 1151 678 1111 q 751 1169 725 1171 q 783 1163 761 1168 q 822 1149 804 1157 q 839 1131 839 1140 q 818 1103 838 1118 q 719 1031 772 1067 q 619 963 665 994 q 601 953 608 956 q 590 950 594 950 m 392 950 q 381 960 381 951 q 390 983 381 969 q 449 1069 419 1026 q 513 1151 479 1111 q 553 1169 526 1171 q 584 1163 563 1168 q 623 1149 606 1157 q 640 1131 640 1140 q 619 1103 639 1118 q 520 1031 574 1067 q 421 963 467 994 q 403 953 410 956 q 392 950 396 950 z "},"Ū":{"ha":1028,"x_min":26,"x_max":1015,"o":"m 517 -19 q 307 25 392 -19 q 179 151 222 69 q 136 340 136 232 l 136 756 q 117 828 136 801 q 71 860 99 854 q 26 890 26 872 q 38 904 26 900 q 65 908 49 908 q 139 906 101 908 q 215 903 176 903 q 288 905 250 903 q 354 907 325 907 q 383 903 372 907 q 393 889 393 899 q 378 872 393 878 q 340 857 364 865 q 303 824 322 850 q 285 754 285 799 l 285 374 q 319 200 285 268 q 415 100 354 132 q 553 68 476 68 q 755 159 690 68 q 819 410 819 250 q 819 490 819 442 q 819 593 819 539 q 817 696 818 647 q 809 774 815 742 q 789 829 803 807 q 753 858 775 851 q 722 871 739 864 q 704 889 704 878 q 715 901 704 897 q 744 906 726 906 q 806 904 783 906 q 860 903 828 903 q 902 904 883 903 q 939 907 921 906 q 976 908 957 908 q 1004 904 993 908 q 1015 890 1015 900 q 972 863 1015 872 q 916 825 932 853 q 897 751 900 797 q 889 542 890 638 q 885 353 888 447 q 834 160 883 244 q 703 28 785 75 q 517 -19 621 -19 m 363 1001 q 347 1008 353 1001 q 340 1021 340 1014 q 344 1049 340 1033 q 358 1077 349 1065 q 379 1089 367 1089 l 747 1089 q 763 1083 757 1089 q 768 1069 768 1078 q 753 1023 768 1044 q 721 1001 739 1001 l 363 1001 z "},"Ų":{"ha":1028,"x_min":26,"x_max":1015,"o":"m 517 -19 q 307 25 392 -19 q 179 151 222 69 q 136 340 136 232 l 136 756 q 117 828 136 801 q 71 860 99 854 q 26 890 26 872 q 38 904 26 900 q 65 908 49 908 q 139 906 101 908 q 215 903 176 903 q 288 905 250 903 q 354 907 325 907 q 383 903 372 907 q 393 889 393 899 q 378 872 393 878 q 340 857 364 865 q 303 824 322 850 q 285 754 285 799 l 285 374 q 319 200 285 268 q 415 100 354 132 q 553 68 476 68 q 755 159 690 68 q 819 410 819 250 q 819 490 819 442 q 819 593 819 539 q 817 696 818 647 q 809 774 815 742 q 789 829 803 807 q 753 858 775 851 q 722 871 739 864 q 704 889 704 878 q 715 901 704 897 q 744 906 726 906 q 806 904 783 906 q 860 903 828 903 q 902 904 883 903 q 939 907 921 906 q 976 908 957 908 q 1004 904 993 908 q 1015 890 1015 900 q 972 863 1015 872 q 916 825 932 853 q 897 751 900 797 q 889 542 890 638 q 885 353 888 447 q 834 160 883 244 q 703 28 785 75 q 517 -19 621 -19 m 578 -399 q 463 -354 508 -399 q 417 -242 417 -310 q 438 -165 417 -201 q 491 -96 460 -128 q 556 -38 522 -64 q 617 3 590 -12 q 654 25 644 19 l 697 25 q 665 -3 689 17 q 613 -54 640 -24 q 567 -124 586 -85 q 547 -211 547 -164 q 573 -270 547 -247 q 633 -293 599 -293 q 678 -283 657 -293 q 716 -260 700 -272 q 740 -242 732 -247 q 754 -239 746 -237 q 763 -254 763 -240 q 746 -302 763 -276 q 701 -350 729 -328 q 641 -385 674 -372 q 578 -399 608 -399 z "},"Ů":{"ha":1028,"x_min":26,"x_max":1015,"o":"m 517 -19 q 307 25 392 -19 q 179 151 222 69 q 136 340 136 232 l 136 756 q 117 828 136 801 q 71 860 99 854 q 26 890 26 872 q 38 904 26 900 q 65 908 49 908 q 139 906 101 908 q 215 903 176 903 q 288 905 250 903 q 354 907 325 907 q 383 903 372 907 q 393 889 393 899 q 378 872 393 878 q 340 857 364 865 q 303 824 322 850 q 285 754 285 799 l 285 374 q 319 200 285 268 q 415 100 354 132 q 553 68 476 68 q 755 159 690 68 q 819 410 819 250 q 819 490 819 442 q 819 593 819 539 q 817 696 818 647 q 809 774 815 742 q 789 829 803 807 q 753 858 775 851 q 722 871 739 864 q 704 889 704 878 q 715 901 704 897 q 744 906 726 906 q 806 904 783 906 q 860 903 828 903 q 902 904 883 903 q 939 907 921 906 q 976 908 957 908 q 1004 904 993 908 q 1015 890 1015 900 q 972 863 1015 872 q 916 825 932 853 q 897 751 900 797 q 889 542 890 638 q 885 353 888 447 q 834 160 883 244 q 703 28 785 75 q 517 -19 621 -19 m 481 1072 q 501 1022 481 1043 q 551 1001 522 1001 q 594 1024 579 1001 q 608 1072 608 1046 q 589 1121 608 1100 q 540 1142 569 1142 q 497 1121 513 1142 q 481 1072 481 1100 m 551 1178 q 638 1152 600 1178 q 676 1079 676 1126 q 657 1020 676 1046 q 606 981 638 994 q 539 967 575 967 q 451 994 490 967 q 413 1068 413 1021 q 432 1126 413 1101 q 483 1165 451 1151 q 551 1178 515 1178 z "},"Ũ":{"ha":1028,"x_min":26,"x_max":1015,"o":"m 517 -19 q 307 25 392 -19 q 179 151 222 69 q 136 340 136 232 l 136 756 q 117 828 136 801 q 71 860 99 854 q 26 890 26 872 q 38 904 26 900 q 65 908 49 908 q 139 906 101 908 q 215 903 176 903 q 288 905 250 903 q 354 907 325 907 q 383 903 372 907 q 393 889 393 899 q 378 872 393 878 q 340 857 364 865 q 303 824 322 850 q 285 754 285 799 l 285 374 q 319 200 285 268 q 415 100 354 132 q 553 68 476 68 q 755 159 690 68 q 819 410 819 250 q 819 490 819 442 q 819 593 819 539 q 817 696 818 647 q 809 774 815 742 q 789 829 803 807 q 753 858 775 851 q 722 871 739 864 q 704 889 704 878 q 715 901 704 897 q 744 906 726 906 q 806 904 783 906 q 860 903 828 903 q 902 904 883 903 q 939 907 921 906 q 976 908 957 908 q 1004 904 993 908 q 1015 890 1015 900 q 972 863 1015 872 q 916 825 932 853 q 897 751 900 797 q 889 542 890 638 q 885 353 888 447 q 834 160 883 244 q 703 28 785 75 q 517 -19 621 -19 m 382 961 q 367 969 375 961 q 358 983 358 976 q 371 1008 358 989 q 402 1051 383 1028 q 440 1091 421 1074 q 469 1108 458 1108 q 522 1107 494 1108 q 572 1103 549 1106 q 622 1100 596 1101 q 671 1099 647 1099 q 699 1107 686 1099 q 722 1125 713 1115 q 740 1144 733 1135 q 750 1153 746 1153 q 769 1146 760 1153 q 779 1129 779 1139 q 773 1117 779 1125 q 757 1099 767 1108 q 725 1058 742 1081 q 696 1019 708 1036 q 674 1004 688 1008 q 654 1000 660 1000 q 619 1001 644 1000 q 560 1006 593 1003 q 499 1010 528 1008 q 454 1013 469 1013 q 431 1006 444 1013 q 410 992 418 1000 q 392 972 399 982 q 382 961 385 961 z "},"V":{"ha":950,"x_min":0,"x_max":958,"o":"m 457 -19 q 436 -6 443 -19 q 419 42 429 13 q 400 92 408 71 l 140 761 q 103 824 126 799 q 42 860 79 850 q 11 873 22 867 q 0 890 0 879 q 10 903 0 900 q 36 907 21 907 q 91 906 61 907 q 154 903 121 904 q 218 903 188 903 q 277 904 246 903 q 338 906 308 906 q 386 907 367 907 q 413 903 401 907 q 425 890 425 899 q 413 872 425 879 q 382 861 401 864 q 318 843 342 856 q 294 807 294 831 q 299 774 294 789 q 307 749 304 758 l 500 231 q 507 222 503 224 q 515 232 511 221 l 694 706 q 701 816 722 778 q 629 860 679 854 q 597 870 610 863 q 585 889 585 878 q 597 901 585 897 q 625 906 608 906 q 668 905 647 906 q 711 903 689 904 q 761 903 733 903 q 844 906 801 903 q 917 908 886 908 q 947 905 935 908 q 958 890 958 901 q 947 874 958 881 q 915 863 935 868 q 834 817 867 851 q 783 738 801 783 l 540 149 q 519 99 531 126 q 498 44 508 71 q 476 -6 488 17 q 469 -16 474 -12 q 457 -19 464 -19 z "},"Ɣ":{"ha":950,"x_min":0,"x_max":958,"o":"m 447 -397 q 349 -350 382 -397 q 315 -232 315 -303 q 324 -166 315 -204 q 353 -75 333 -128 q 404 46 372 -22 q 410 71 411 61 q 404 93 410 81 l 142 763 q 103 825 128 800 q 42 860 79 850 q 11 873 22 867 q 0 890 0 879 q 10 903 0 900 q 36 907 21 907 q 91 906 61 907 q 154 903 121 904 q 218 903 188 903 q 277 904 246 903 q 338 906 308 906 q 386 907 367 907 q 413 903 401 907 q 425 890 425 899 q 413 872 425 879 q 382 861 401 865 q 322 840 347 854 q 297 804 297 825 q 299 781 297 797 q 307 749 301 765 l 483 265 q 496 237 492 246 q 506 228 500 228 q 525 257 514 228 l 707 738 q 716 771 713 751 q 719 801 719 790 q 709 826 719 815 q 678 847 699 838 q 628 860 658 856 q 597 870 613 863 q 582 889 582 878 q 594 901 582 897 q 622 906 606 906 q 688 904 656 906 q 761 903 721 903 q 844 906 801 903 q 917 908 886 908 q 947 905 935 908 q 958 890 958 901 q 947 874 958 881 q 915 863 935 868 q 835 818 867 851 q 788 749 803 785 l 554 174 q 543 132 543 149 q 551 90 543 115 l 604 -58 q 628 -137 622 -106 q 633 -207 633 -168 q 609 -304 633 -261 q 542 -372 585 -347 q 447 -397 500 -397 m 453 -324 q 495 -301 481 -324 q 510 -239 510 -279 q 496 -156 510 -212 q 463 -47 482 -100 q 453 -39 460 -39 q 444 -47 447 -39 q 410 -129 426 -82 q 393 -221 393 -176 q 410 -297 393 -269 q 453 -324 428 -324 z "},"W":{"ha":1324,"x_min":0,"x_max":1339,"o":"m 482 -22 q 471 -10 476 -22 q 460 15 465 1 l 142 769 q 104 827 126 804 q 44 860 82 850 q 13 873 25 867 q 0 890 0 879 q 12 903 0 900 q 39 907 24 907 q 110 905 74 907 q 183 903 147 903 q 261 905 224 903 q 328 907 299 907 q 357 903 346 907 q 368 890 368 899 q 357 874 368 879 q 324 861 346 868 q 299 844 304 857 q 294 817 294 832 q 299 782 294 799 q 304 764 303 765 q 361 623 335 689 q 414 495 388 557 q 468 369 440 433 q 528 231 496 304 q 540 215 535 215 q 550 229 544 215 l 647 453 q 653 470 651 463 q 656 483 656 478 q 653 499 656 490 q 646 518 650 507 l 544 754 q 492 822 528 794 q 419 860 457 850 q 389 873 400 867 q 378 890 378 879 q 388 903 378 900 q 414 907 399 907 q 465 906 439 907 q 517 903 490 904 q 568 903 543 903 q 635 905 603 903 q 696 907 668 907 q 727 903 715 907 q 739 890 739 899 q 727 873 739 879 q 702 860 715 867 q 683 840 689 853 q 674 829 675 836 q 676 815 674 822 q 688 785 681 807 q 706 737 696 763 q 726 688 717 711 q 740 653 735 664 q 753 636 749 635 q 765 653 758 638 q 788 708 775 676 q 810 769 800 739 q 824 810 819 799 q 826 826 826 817 q 813 853 826 844 q 784 869 799 861 q 769 889 769 876 q 778 901 769 897 q 807 906 788 906 q 851 904 839 906 q 882 903 863 903 q 922 906 904 903 q 971 908 940 908 q 999 904 988 908 q 1011 890 1011 900 q 1000 874 1011 879 q 968 863 989 868 q 908 835 925 853 q 872 789 890 818 q 849 740 864 771 q 819 675 835 710 q 792 610 804 640 q 785 580 786 597 q 788 551 783 563 l 917 226 q 925 220 921 217 q 933 232 929 224 q 1020 471 974 333 q 1113 750 1067 608 q 1122 784 1119 771 q 1124 807 1124 797 q 1113 841 1122 826 q 1082 860 1104 856 q 1053 871 1068 864 q 1038 889 1038 878 q 1049 901 1038 897 q 1078 906 1061 906 q 1132 904 1111 906 q 1176 903 1153 903 q 1236 906 1207 904 q 1296 908 1265 908 q 1326 905 1314 908 q 1339 890 1339 901 q 1326 874 1339 881 q 1294 863 1314 868 q 1240 837 1263 856 q 1206 794 1218 818 q 1183 750 1193 771 l 911 13 q 901 -7 908 4 q 886 -18 894 -18 q 872 -10 879 -18 q 860 8 864 -3 q 806 134 831 75 q 755 258 781 193 q 693 406 729 324 q 685 414 689 415 q 676 400 682 413 q 619 270 646 329 q 567 150 593 211 q 513 17 542 89 q 499 -10 507 3 q 482 -22 492 -22 z "},"Ẃ":{"ha":1324,"x_min":0,"x_max":1339,"o":"m 482 -22 q 471 -10 476 -22 q 460 15 465 1 l 142 769 q 104 827 126 804 q 44 860 82 850 q 13 873 25 867 q 0 890 0 879 q 12 903 0 900 q 39 907 24 907 q 110 905 74 907 q 183 903 147 903 q 261 905 224 903 q 328 907 299 907 q 357 903 346 907 q 368 890 368 899 q 357 874 368 879 q 324 861 346 868 q 299 844 304 857 q 294 817 294 832 q 299 782 294 799 q 304 764 303 765 q 361 623 335 689 q 414 495 388 557 q 468 369 440 433 q 528 231 496 304 q 540 215 535 215 q 550 229 544 215 l 647 453 q 653 470 651 463 q 656 483 656 478 q 653 499 656 490 q 646 518 650 507 l 544 754 q 492 822 528 794 q 419 860 457 850 q 389 873 400 867 q 378 890 378 879 q 388 903 378 900 q 414 907 399 907 q 465 906 439 907 q 517 903 490 904 q 568 903 543 903 q 635 905 603 903 q 696 907 668 907 q 727 903 715 907 q 739 890 739 899 q 727 873 739 879 q 702 860 715 867 q 683 840 689 853 q 674 829 675 836 q 676 815 674 822 q 688 785 681 807 q 706 737 696 763 q 726 688 717 711 q 740 653 735 664 q 753 636 749 635 q 765 653 758 638 q 788 708 775 676 q 810 769 800 739 q 824 810 819 799 q 826 826 826 817 q 813 853 826 844 q 784 869 799 861 q 769 889 769 876 q 778 901 769 897 q 807 906 788 906 q 851 904 839 906 q 882 903 863 903 q 922 906 904 903 q 971 908 940 908 q 999 904 988 908 q 1011 890 1011 900 q 1000 874 1011 879 q 968 863 989 868 q 908 835 925 853 q 872 789 890 818 q 849 740 864 771 q 819 675 835 710 q 792 610 804 640 q 785 580 786 597 q 788 551 783 563 l 917 226 q 925 220 921 217 q 933 232 929 224 q 1020 471 974 333 q 1113 750 1067 608 q 1122 784 1119 771 q 1124 807 1124 797 q 1113 841 1122 826 q 1082 860 1104 856 q 1053 871 1068 864 q 1038 889 1038 878 q 1049 901 1038 897 q 1078 906 1061 906 q 1132 904 1111 906 q 1176 903 1153 903 q 1236 906 1207 904 q 1296 908 1265 908 q 1326 905 1314 908 q 1339 890 1339 901 q 1326 874 1339 881 q 1294 863 1314 868 q 1240 837 1263 856 q 1206 794 1218 818 q 1183 750 1193 771 l 911 13 q 901 -7 908 4 q 886 -18 894 -18 q 872 -10 879 -18 q 860 8 864 -3 q 806 134 831 75 q 755 258 781 193 q 693 406 729 324 q 685 414 689 415 q 676 400 682 413 q 619 270 646 329 q 567 150 593 211 q 513 17 542 89 q 499 -10 507 3 q 482 -22 492 -22 m 690 950 q 679 960 679 951 q 689 983 679 969 q 748 1069 718 1026 q 811 1151 778 1111 q 851 1169 825 1171 q 883 1163 861 1168 q 922 1149 904 1157 q 939 1131 939 1140 q 918 1103 938 1118 q 819 1031 872 1067 q 719 963 765 994 q 701 953 708 956 q 690 950 694 950 z "},"Ŵ":{"ha":1324,"x_min":0,"x_max":1339,"o":"m 482 -22 q 471 -10 476 -22 q 460 15 465 1 l 142 769 q 104 827 126 804 q 44 860 82 850 q 13 873 25 867 q 0 890 0 879 q 12 903 0 900 q 39 907 24 907 q 110 905 74 907 q 183 903 147 903 q 261 905 224 903 q 328 907 299 907 q 357 903 346 907 q 368 890 368 899 q 357 874 368 879 q 324 861 346 868 q 299 844 304 857 q 294 817 294 832 q 299 782 294 799 q 304 764 303 765 q 361 623 335 689 q 414 495 388 557 q 468 369 440 433 q 528 231 496 304 q 540 215 535 215 q 550 229 544 215 l 647 453 q 653 470 651 463 q 656 483 656 478 q 653 499 656 490 q 646 518 650 507 l 544 754 q 492 822 528 794 q 419 860 457 850 q 389 873 400 867 q 378 890 378 879 q 388 903 378 900 q 414 907 399 907 q 465 906 439 907 q 517 903 490 904 q 568 903 543 903 q 635 905 603 903 q 696 907 668 907 q 727 903 715 907 q 739 890 739 899 q 727 873 739 879 q 702 860 715 867 q 683 840 689 853 q 674 829 675 836 q 676 815 674 822 q 688 785 681 807 q 706 737 696 763 q 726 688 717 711 q 740 653 735 664 q 753 636 749 635 q 765 653 758 638 q 788 708 775 676 q 810 769 800 739 q 824 810 819 799 q 826 826 826 817 q 813 853 826 844 q 784 869 799 861 q 769 889 769 876 q 778 901 769 897 q 807 906 788 906 q 851 904 839 906 q 882 903 863 903 q 922 906 904 903 q 971 908 940 908 q 999 904 988 908 q 1011 890 1011 900 q 1000 874 1011 879 q 968 863 989 868 q 908 835 925 853 q 872 789 890 818 q 849 740 864 771 q 819 675 835 710 q 792 610 804 640 q 785 580 786 597 q 788 551 783 563 l 917 226 q 925 220 921 217 q 933 232 929 224 q 1020 471 974 333 q 1113 750 1067 608 q 1122 784 1119 771 q 1124 807 1124 797 q 1113 841 1122 826 q 1082 860 1104 856 q 1053 871 1068 864 q 1038 889 1038 878 q 1049 901 1038 897 q 1078 906 1061 906 q 1132 904 1111 906 q 1176 903 1153 903 q 1236 906 1207 904 q 1296 908 1265 908 q 1326 905 1314 908 q 1339 890 1339 901 q 1326 874 1339 881 q 1294 863 1314 868 q 1240 837 1263 856 q 1206 794 1218 818 q 1183 750 1193 771 l 911 13 q 901 -7 908 4 q 886 -18 894 -18 q 872 -10 879 -18 q 860 8 864 -3 q 806 134 831 75 q 755 258 781 193 q 693 406 729 324 q 685 414 689 415 q 676 400 682 413 q 619 270 646 329 q 567 150 593 211 q 513 17 542 89 q 499 -10 507 3 q 482 -22 492 -22 m 556 965 q 533 981 533 965 q 543 999 533 990 l 683 1119 q 716 1145 704 1138 q 744 1153 728 1153 q 773 1145 761 1153 q 806 1119 785 1138 l 946 999 q 954 981 954 992 q 933 964 954 964 q 904 972 926 964 q 854 993 882 981 q 801 1018 826 1006 q 760 1039 775 1031 q 744 1044 750 1044 q 729 1039 739 1044 q 689 1018 715 1031 q 635 994 663 1006 q 586 974 608 982 q 556 965 564 965 z "},"Ẅ":{"ha":1324,"x_min":0,"x_max":1339,"o":"m 482 -22 q 471 -10 476 -22 q 460 15 465 1 l 142 769 q 104 827 126 804 q 44 860 82 850 q 13 873 25 867 q 0 890 0 879 q 12 903 0 900 q 39 907 24 907 q 110 905 74 907 q 183 903 147 903 q 261 905 224 903 q 328 907 299 907 q 357 903 346 907 q 368 890 368 899 q 357 874 368 879 q 324 861 346 868 q 299 844 304 857 q 294 817 294 832 q 299 782 294 799 q 304 764 303 765 q 361 623 335 689 q 414 495 388 557 q 468 369 440 433 q 528 231 496 304 q 540 215 535 215 q 550 229 544 215 l 647 453 q 653 470 651 463 q 656 483 656 478 q 653 499 656 490 q 646 518 650 507 l 544 754 q 492 822 528 794 q 419 860 457 850 q 389 873 400 867 q 378 890 378 879 q 388 903 378 900 q 414 907 399 907 q 465 906 439 907 q 517 903 490 904 q 568 903 543 903 q 635 905 603 903 q 696 907 668 907 q 727 903 715 907 q 739 890 739 899 q 727 873 739 879 q 702 860 715 867 q 683 840 689 853 q 674 829 675 836 q 676 815 674 822 q 688 785 681 807 q 706 737 696 763 q 726 688 717 711 q 740 653 735 664 q 753 636 749 635 q 765 653 758 638 q 788 708 775 676 q 810 769 800 739 q 824 810 819 799 q 826 826 826 817 q 813 853 826 844 q 784 869 799 861 q 769 889 769 876 q 778 901 769 897 q 807 906 788 906 q 851 904 839 906 q 882 903 863 903 q 922 906 904 903 q 971 908 940 908 q 999 904 988 908 q 1011 890 1011 900 q 1000 874 1011 879 q 968 863 989 868 q 908 835 925 853 q 872 789 890 818 q 849 740 864 771 q 819 675 835 710 q 792 610 804 640 q 785 580 786 597 q 788 551 783 563 l 917 226 q 925 220 921 217 q 933 232 929 224 q 1020 471 974 333 q 1113 750 1067 608 q 1122 784 1119 771 q 1124 807 1124 797 q 1113 841 1122 826 q 1082 860 1104 856 q 1053 871 1068 864 q 1038 889 1038 878 q 1049 901 1038 897 q 1078 906 1061 906 q 1132 904 1111 906 q 1176 903 1153 903 q 1236 906 1207 904 q 1296 908 1265 908 q 1326 905 1314 908 q 1339 890 1339 901 q 1326 874 1339 881 q 1294 863 1314 868 q 1240 837 1263 856 q 1206 794 1218 818 q 1183 750 1193 771 l 911 13 q 901 -7 908 4 q 886 -18 894 -18 q 872 -10 879 -18 q 860 8 864 -3 q 806 134 831 75 q 755 258 781 193 q 693 406 729 324 q 685 414 689 415 q 676 400 682 413 q 619 270 646 329 q 567 150 593 211 q 513 17 542 89 q 499 -10 507 3 q 482 -22 492 -22 m 881 961 q 824 985 847 961 q 800 1042 800 1008 q 824 1099 800 1075 q 881 1122 847 1122 q 938 1099 914 1122 q 961 1042 961 1075 q 938 985 961 1008 q 881 961 914 961 m 608 961 q 551 985 575 961 q 528 1042 528 1008 q 551 1099 528 1075 q 608 1122 575 1122 q 667 1099 643 1122 q 690 1042 690 1075 q 667 985 690 1008 q 608 961 643 961 z "},"Ẁ":{"ha":1324,"x_min":0,"x_max":1339,"o":"m 786 950 q 776 953 783 950 q 757 963 768 956 q 658 1031 713 994 q 560 1103 604 1067 q 539 1131 540 1118 q 556 1149 538 1140 q 594 1163 574 1157 q 626 1169 615 1168 q 667 1151 651 1171 q 728 1069 699 1111 q 788 983 758 1026 q 797 960 797 969 q 786 950 797 951 m 482 -22 q 471 -10 476 -22 q 460 15 465 1 l 142 769 q 104 827 126 804 q 44 860 82 850 q 13 873 25 867 q 0 890 0 879 q 12 903 0 900 q 39 907 24 907 q 110 905 74 907 q 183 903 147 903 q 261 905 224 903 q 328 907 299 907 q 357 903 346 907 q 368 890 368 899 q 357 874 368 879 q 324 861 346 868 q 299 844 304 857 q 294 817 294 832 q 299 782 294 799 q 304 764 303 765 q 361 623 335 689 q 414 495 388 557 q 468 369 440 433 q 528 231 496 304 q 540 215 535 215 q 550 229 544 215 l 647 453 q 653 470 651 463 q 656 483 656 478 q 653 499 656 490 q 646 518 650 507 l 544 754 q 492 822 528 794 q 419 860 457 850 q 389 873 400 867 q 378 890 378 879 q 388 903 378 900 q 414 907 399 907 q 465 906 439 907 q 517 903 490 904 q 568 903 543 903 q 635 905 603 903 q 696 907 668 907 q 727 903 715 907 q 739 890 739 899 q 727 873 739 879 q 702 860 715 867 q 683 840 689 853 q 674 829 675 836 q 676 815 674 822 q 688 785 681 807 q 706 737 696 763 q 726 688 717 711 q 740 653 735 664 q 753 636 749 635 q 765 653 758 638 q 788 708 775 676 q 810 769 800 739 q 824 810 819 799 q 826 826 826 817 q 813 853 826 844 q 784 869 799 861 q 769 889 769 876 q 778 901 769 897 q 807 906 788 906 q 851 904 839 906 q 882 903 863 903 q 922 906 904 903 q 971 908 940 908 q 999 904 988 908 q 1011 890 1011 900 q 1000 874 1011 879 q 968 863 989 868 q 908 835 925 853 q 872 789 890 818 q 849 740 864 771 q 819 675 835 710 q 792 610 804 640 q 785 580 786 597 q 788 551 783 563 l 917 226 q 925 220 921 217 q 933 232 929 224 q 1020 471 974 333 q 1113 750 1067 608 q 1122 784 1119 771 q 1124 807 1124 797 q 1113 841 1122 826 q 1082 860 1104 856 q 1053 871 1068 864 q 1038 889 1038 878 q 1049 901 1038 897 q 1078 906 1061 906 q 1132 904 1111 906 q 1176 903 1153 903 q 1236 906 1207 904 q 1296 908 1265 908 q 1326 905 1314 908 q 1339 890 1339 901 q 1326 874 1339 881 q 1294 863 1314 868 q 1240 837 1263 856 q 1206 794 1218 818 q 1183 750 1193 771 l 911 13 q 901 -7 908 4 q 886 -18 894 -18 q 872 -10 879 -18 q 860 8 864 -3 q 806 134 831 75 q 755 258 781 193 q 693 406 729 324 q 685 414 689 415 q 676 400 682 413 q 619 270 646 329 q 567 150 593 211 q 513 17 542 89 q 499 -10 507 3 q 482 -22 492 -22 z "},"X":{"ha":1003,"x_min":-7,"x_max":993,"o":"m 33 -8 q 5 -4 17 -8 q -7 10 -7 0 q 5 27 -7 21 q 36 40 17 33 q 94 64 61 47 q 160 108 126 81 q 225 172 194 135 l 397 389 q 417 430 413 410 q 401 478 421 450 l 211 744 q 160 808 183 785 q 114 844 136 832 q 67 863 92 856 q 36 875 47 868 q 25 893 25 882 q 35 906 25 901 q 61 910 46 910 q 166 906 106 910 q 282 901 226 901 q 366 904 325 901 q 433 907 407 907 q 462 903 450 907 q 474 890 474 899 q 462 873 474 879 q 429 861 450 867 q 374 842 393 851 q 354 814 354 833 q 393 742 354 793 l 521 563 q 544 542 536 542 q 565 558 553 543 l 701 742 q 727 782 718 764 q 736 814 736 800 q 722 842 736 831 q 675 860 708 854 q 645 871 661 864 q 629 889 629 878 q 641 901 629 897 q 671 906 653 906 q 710 905 692 906 q 747 903 728 904 q 789 903 765 903 q 869 907 829 903 q 940 911 908 911 q 971 908 958 911 q 983 894 983 904 q 971 878 983 883 q 939 867 958 872 q 859 817 903 857 q 778 731 815 776 l 607 525 q 586 492 589 504 q 593 463 583 481 l 815 146 q 878 78 843 106 q 946 40 913 50 q 980 28 967 35 q 993 10 993 21 q 983 -3 993 1 q 954 -7 972 -7 q 885 -5 924 -7 q 806 -1 846 -3 q 731 1 767 1 q 649 0 688 1 q 579 -1 610 -1 q 551 3 563 -1 q 540 17 540 7 q 555 33 540 26 q 583 44 569 40 q 629 66 607 51 q 651 107 651 81 q 648 126 651 117 q 636 147 644 136 l 489 358 q 467 379 476 378 q 447 364 458 381 l 281 142 q 267 116 271 128 q 264 96 264 104 q 282 63 265 76 q 326 43 299 49 q 359 31 347 38 q 371 14 371 25 q 360 1 371 6 q 331 -3 349 -3 q 270 -1 306 -3 q 201 0 235 0 q 113 -4 156 0 q 33 -8 71 -8 z "},"Y":{"ha":840,"x_min":0,"x_max":893,"o":"m 258 -7 q 229 -3 240 -7 q 218 10 218 1 q 230 27 218 21 q 263 38 242 33 q 340 75 315 47 q 365 151 365 103 l 365 351 q 351 419 365 386 q 328 468 338 451 l 160 738 q 130 782 149 756 q 89 831 111 808 q 42 860 67 853 q 11 873 22 867 q 0 890 0 879 q 10 903 0 900 q 36 907 21 907 q 124 904 78 907 q 221 901 169 901 q 291 904 258 901 q 354 907 324 907 q 382 903 371 907 q 393 890 393 899 q 382 873 393 879 q 350 861 371 867 q 310 847 324 854 q 296 821 296 839 q 313 771 296 801 l 446 531 q 481 489 468 489 q 496 499 488 489 q 518 531 504 508 q 578 632 551 583 q 638 743 604 681 q 654 780 649 764 q 660 808 660 796 q 639 847 660 836 q 596 860 618 858 q 567 870 582 863 q 551 889 551 878 q 563 901 551 897 q 592 906 575 906 q 651 904 626 906 q 708 903 676 903 q 787 906 750 903 q 851 908 824 908 q 881 905 869 908 q 893 890 893 901 q 874 873 893 881 q 831 858 854 865 q 766 820 792 849 q 708 743 740 792 q 663 672 683 703 q 626 613 643 640 q 590 556 608 585 q 549 488 572 526 q 526 444 533 463 q 516 406 518 425 q 514 360 514 388 l 514 151 q 540 76 514 103 q 618 38 565 49 q 651 28 639 33 q 663 11 663 22 q 651 -3 663 1 q 622 -7 640 -7 q 559 -5 588 -7 q 503 -1 531 -3 q 444 1 475 1 q 383 -1 413 1 q 324 -5 354 -3 q 258 -7 293 -7 z "},"Ý":{"ha":840,"x_min":0,"x_max":893,"o":"m 258 -7 q 229 -3 240 -7 q 218 10 218 1 q 230 27 218 21 q 263 38 242 33 q 340 75 315 47 q 365 151 365 103 l 365 351 q 351 419 365 386 q 328 468 338 451 l 160 738 q 130 782 149 756 q 89 831 111 808 q 42 860 67 853 q 11 873 22 867 q 0 890 0 879 q 10 903 0 900 q 36 907 21 907 q 124 904 78 907 q 221 901 169 901 q 291 904 258 901 q 354 907 324 907 q 382 903 371 907 q 393 890 393 899 q 382 873 393 879 q 350 861 371 867 q 310 847 324 854 q 296 821 296 839 q 313 771 296 801 l 446 531 q 481 489 468 489 q 496 499 488 489 q 518 531 504 508 q 578 632 551 583 q 638 743 604 681 q 654 780 649 764 q 660 808 660 796 q 639 847 660 836 q 596 860 618 858 q 567 870 582 863 q 551 889 551 878 q 563 901 551 897 q 592 906 575 906 q 651 904 626 906 q 708 903 676 903 q 787 906 750 903 q 851 908 824 908 q 881 905 869 908 q 893 890 893 901 q 874 873 893 881 q 831 858 854 865 q 766 820 792 849 q 708 743 740 792 q 663 672 683 703 q 626 613 643 640 q 590 556 608 585 q 549 488 572 526 q 526 444 533 463 q 516 406 518 425 q 514 360 514 388 l 514 151 q 540 76 514 103 q 618 38 565 49 q 651 28 639 33 q 663 11 663 22 q 651 -3 663 1 q 622 -7 640 -7 q 559 -5 588 -7 q 503 -1 531 -3 q 444 1 475 1 q 383 -1 413 1 q 324 -5 354 -3 q 258 -7 293 -7 m 417 950 q 406 960 406 951 q 415 983 406 969 q 474 1069 444 1026 q 538 1151 504 1111 q 578 1169 551 1171 q 609 1163 588 1168 q 648 1149 631 1157 q 665 1131 665 1140 q 644 1103 664 1118 q 545 1031 599 1067 q 446 963 492 994 q 428 953 435 956 q 417 950 421 950 z "},"Ŷ":{"ha":840,"x_min":0,"x_max":893,"o":"m 258 -7 q 229 -3 240 -7 q 218 10 218 1 q 230 27 218 21 q 263 38 242 33 q 340 75 315 47 q 365 151 365 103 l 365 351 q 351 419 365 386 q 328 468 338 451 l 160 738 q 130 782 149 756 q 89 831 111 808 q 42 860 67 853 q 11 873 22 867 q 0 890 0 879 q 10 903 0 900 q 36 907 21 907 q 124 904 78 907 q 221 901 169 901 q 291 904 258 901 q 354 907 324 907 q 382 903 371 907 q 393 890 393 899 q 382 873 393 879 q 350 861 371 867 q 310 847 324 854 q 296 821 296 839 q 313 771 296 801 l 446 531 q 481 489 468 489 q 496 499 488 489 q 518 531 504 508 q 578 632 551 583 q 638 743 604 681 q 654 780 649 764 q 660 808 660 796 q 639 847 660 836 q 596 860 618 858 q 567 870 582 863 q 551 889 551 878 q 563 901 551 897 q 592 906 575 906 q 651 904 626 906 q 708 903 676 903 q 787 906 750 903 q 851 908 824 908 q 881 905 869 908 q 893 890 893 901 q 874 873 893 881 q 831 858 854 865 q 766 820 792 849 q 708 743 740 792 q 663 672 683 703 q 626 613 643 640 q 590 556 608 585 q 549 488 572 526 q 526 444 533 463 q 516 406 518 425 q 514 360 514 388 l 514 151 q 540 76 514 103 q 618 38 565 49 q 651 28 639 33 q 663 11 663 22 q 651 -3 663 1 q 622 -7 640 -7 q 559 -5 588 -7 q 503 -1 531 -3 q 444 1 475 1 q 383 -1 413 1 q 324 -5 354 -3 q 258 -7 293 -7 m 282 965 q 260 981 260 965 q 269 999 260 990 l 410 1119 q 442 1145 431 1138 q 471 1153 454 1153 q 499 1145 488 1153 q 532 1119 511 1138 l 672 999 q 681 981 681 992 q 660 964 681 964 q 631 972 653 964 q 581 993 608 981 q 527 1018 553 1006 q 486 1039 501 1031 q 471 1044 476 1044 q 456 1039 465 1044 q 415 1018 442 1031 q 362 994 389 1006 q 313 974 335 982 q 282 965 290 965 z "},"Ÿ":{"ha":840,"x_min":0,"x_max":893,"o":"m 258 -7 q 229 -3 240 -7 q 218 10 218 1 q 230 27 218 21 q 263 38 242 33 q 340 75 315 47 q 365 151 365 103 l 365 351 q 351 419 365 386 q 328 468 338 451 l 160 738 q 130 782 149 756 q 89 831 111 808 q 42 860 67 853 q 11 873 22 867 q 0 890 0 879 q 10 903 0 900 q 36 907 21 907 q 124 904 78 907 q 221 901 169 901 q 291 904 258 901 q 354 907 324 907 q 382 903 371 907 q 393 890 393 899 q 382 873 393 879 q 350 861 371 867 q 310 847 324 854 q 296 821 296 839 q 313 771 296 801 l 446 531 q 481 489 468 489 q 496 499 488 489 q 518 531 504 508 q 578 632 551 583 q 638 743 604 681 q 654 780 649 764 q 660 808 660 796 q 639 847 660 836 q 596 860 618 858 q 567 870 582 863 q 551 889 551 878 q 563 901 551 897 q 592 906 575 906 q 651 904 626 906 q 708 903 676 903 q 787 906 750 903 q 851 908 824 908 q 881 905 869 908 q 893 890 893 901 q 874 873 893 881 q 831 858 854 865 q 766 820 792 849 q 708 743 740 792 q 663 672 683 703 q 626 613 643 640 q 590 556 608 585 q 549 488 572 526 q 526 444 533 463 q 516 406 518 425 q 514 360 514 388 l 514 151 q 540 76 514 103 q 618 38 565 49 q 651 28 639 33 q 663 11 663 22 q 651 -3 663 1 q 622 -7 640 -7 q 559 -5 588 -7 q 503 -1 531 -3 q 444 1 475 1 q 383 -1 413 1 q 324 -5 354 -3 q 258 -7 293 -7 m 607 961 q 550 985 574 961 q 526 1042 526 1008 q 550 1099 526 1075 q 607 1122 574 1122 q 664 1099 640 1122 q 688 1042 688 1075 q 664 985 688 1008 q 607 961 640 961 m 335 961 q 278 985 301 961 q 254 1042 254 1008 q 278 1099 254 1075 q 335 1122 301 1122 q 393 1099 369 1122 q 417 1042 417 1075 q 393 985 417 1008 q 335 961 369 961 z "},"Ỳ":{"ha":840,"x_min":0,"x_max":893,"o":"m 513 950 q 502 953 510 950 q 483 963 494 956 q 385 1031 439 994 q 286 1103 332 1067 q 265 1131 267 1118 q 282 1149 264 1140 q 321 1163 300 1157 q 353 1169 342 1168 q 393 1151 379 1171 q 455 1069 425 1111 q 514 983 485 1026 q 524 960 524 969 q 513 950 524 951 m 258 -7 q 229 -3 240 -7 q 218 10 218 1 q 230 27 218 21 q 263 38 242 33 q 340 75 315 47 q 365 151 365 103 l 365 351 q 351 419 365 386 q 328 468 338 451 l 160 738 q 130 782 149 756 q 89 831 111 808 q 42 860 67 853 q 11 873 22 867 q 0 890 0 879 q 10 903 0 900 q 36 907 21 907 q 124 904 78 907 q 221 901 169 901 q 291 904 258 901 q 354 907 324 907 q 382 903 371 907 q 393 890 393 899 q 382 873 393 879 q 350 861 371 867 q 310 847 324 854 q 296 821 296 839 q 313 771 296 801 l 446 531 q 481 489 468 489 q 496 499 488 489 q 518 531 504 508 q 578 632 551 583 q 638 743 604 681 q 654 780 649 764 q 660 808 660 796 q 639 847 660 836 q 596 860 618 858 q 567 870 582 863 q 551 889 551 878 q 563 901 551 897 q 592 906 575 906 q 651 904 626 906 q 708 903 676 903 q 787 906 750 903 q 851 908 824 908 q 881 905 869 908 q 893 890 893 901 q 874 873 893 881 q 831 858 854 865 q 766 820 792 849 q 708 743 740 792 q 663 672 683 703 q 626 613 643 640 q 590 556 608 585 q 549 488 572 526 q 526 444 533 463 q 516 406 518 425 q 514 360 514 388 l 514 151 q 540 76 514 103 q 618 38 565 49 q 651 28 639 33 q 663 11 663 22 q 651 -3 663 1 q 622 -7 640 -7 q 559 -5 588 -7 q 503 -1 531 -3 q 444 1 475 1 q 383 -1 413 1 q 324 -5 354 -3 q 258 -7 293 -7 z "},"Z":{"ha":835,"x_min":35,"x_max":814,"o":"m 735 -7 q 641 -6 690 -7 q 540 -5 592 -6 q 436 -3 489 -4 q 335 -1 383 -1 q 245 -3 290 -3 q 156 -4 200 -4 l 49 -6 q 38 7 42 -6 q 36 22 35 19 q 53 56 40 33 q 85 105 67 79 q 117 151 103 131 q 236 324 179 243 q 347 482 293 404 q 455 641 400 560 q 571 815 510 722 q 575 824 574 819 q 576 831 576 828 q 572 840 576 836 q 551 843 567 843 q 473 845 518 844 q 382 846 428 846 q 315 846 347 846 q 256 843 282 846 q 172 815 215 842 q 106 735 129 788 q 88 706 99 722 q 60 690 76 690 q 49 696 53 690 q 44 708 44 701 q 48 727 44 717 q 54 746 51 738 q 71 794 64 767 q 85 852 78 821 q 93 915 92 883 q 101 938 94 932 q 117 943 108 943 q 140 933 125 943 q 169 918 156 924 q 221 905 188 911 q 289 899 254 899 q 371 899 326 899 q 460 899 415 899 q 538 899 497 899 q 622 901 579 900 q 705 902 664 901 q 779 904 746 903 q 794 893 788 904 q 797 876 801 882 l 708 750 q 592 583 646 661 q 487 429 538 504 q 385 275 436 354 q 276 107 333 196 q 268 83 268 94 q 274 69 268 75 q 289 61 279 63 q 353 57 315 58 q 428 56 390 56 q 526 58 478 56 q 618 68 574 61 q 769 214 719 83 q 781 231 772 222 q 799 239 789 239 q 814 221 814 239 q 808 185 814 211 q 795 126 803 158 q 778 64 788 93 q 764 18 769 35 q 753 1 760 8 q 735 -7 747 -7 z "},"Ź":{"ha":835,"x_min":35,"x_max":814,"o":"m 735 -7 q 641 -6 690 -7 q 540 -5 592 -6 q 436 -3 489 -4 q 335 -1 383 -1 q 245 -3 290 -3 q 156 -4 200 -4 l 49 -6 q 38 7 42 -6 q 36 22 35 19 q 53 56 40 33 q 85 105 67 79 q 117 151 103 131 q 236 324 179 243 q 347 482 293 404 q 455 641 400 560 q 571 815 510 722 q 575 824 574 819 q 576 831 576 828 q 572 840 576 836 q 551 843 567 843 q 473 845 518 844 q 382 846 428 846 q 315 846 347 846 q 256 843 282 846 q 172 815 215 842 q 106 735 129 788 q 88 706 99 722 q 60 690 76 690 q 49 696 53 690 q 44 708 44 701 q 48 727 44 717 q 54 746 51 738 q 71 794 64 767 q 85 852 78 821 q 93 915 92 883 q 101 938 94 932 q 117 943 108 943 q 140 933 125 943 q 169 918 156 924 q 221 905 188 911 q 289 899 254 899 q 371 899 326 899 q 460 899 415 899 q 538 899 497 899 q 622 901 579 900 q 705 902 664 901 q 779 904 746 903 q 794 893 788 904 q 797 876 801 882 l 708 750 q 592 583 646 661 q 487 429 538 504 q 385 275 436 354 q 276 107 333 196 q 268 83 268 94 q 274 69 268 75 q 289 61 279 63 q 353 57 315 58 q 428 56 390 56 q 526 58 478 56 q 618 68 574 61 q 769 214 719 83 q 781 231 772 222 q 799 239 789 239 q 814 221 814 239 q 808 185 814 211 q 795 126 803 158 q 778 64 788 93 q 764 18 769 35 q 753 1 760 8 q 735 -7 747 -7 m 388 950 q 376 960 376 951 q 386 983 376 969 q 445 1069 415 1026 q 508 1151 475 1111 q 549 1169 522 1171 q 580 1163 558 1168 q 619 1149 601 1157 q 636 1131 636 1140 q 615 1103 635 1118 q 516 1031 569 1067 q 417 963 463 994 q 399 953 406 956 q 388 950 392 950 z "},"Ž":{"ha":835,"x_min":35,"x_max":814,"o":"m 735 -7 q 641 -6 690 -7 q 540 -5 592 -6 q 436 -3 489 -4 q 335 -1 383 -1 q 245 -3 290 -3 q 156 -4 200 -4 l 49 -6 q 38 7 42 -6 q 36 22 35 19 q 53 56 40 33 q 85 105 67 79 q 117 151 103 131 q 236 324 179 243 q 347 482 293 404 q 455 641 400 560 q 571 815 510 722 q 575 824 574 819 q 576 831 576 828 q 572 840 576 836 q 551 843 567 843 q 473 845 518 844 q 382 846 428 846 q 315 846 347 846 q 256 843 282 846 q 172 815 215 842 q 106 735 129 788 q 88 706 99 722 q 60 690 76 690 q 49 696 53 690 q 44 708 44 701 q 48 727 44 717 q 54 746 51 738 q 71 794 64 767 q 85 852 78 821 q 93 915 92 883 q 101 938 94 932 q 117 943 108 943 q 140 933 125 943 q 169 918 156 924 q 221 905 188 911 q 289 899 254 899 q 371 899 326 899 q 460 899 415 899 q 538 899 497 899 q 622 901 579 900 q 705 902 664 901 q 779 904 746 903 q 794 893 788 904 q 797 876 801 882 l 708 750 q 592 583 646 661 q 487 429 538 504 q 385 275 436 354 q 276 107 333 196 q 268 83 268 94 q 274 69 268 75 q 289 61 279 63 q 353 57 315 58 q 428 56 390 56 q 526 58 478 56 q 618 68 574 61 q 769 214 719 83 q 781 231 772 222 q 799 239 789 239 q 814 221 814 239 q 808 185 814 211 q 795 126 803 158 q 778 64 788 93 q 764 18 769 35 q 753 1 760 8 q 735 -7 747 -7 m 253 1154 q 283 1146 261 1154 q 333 1126 306 1138 q 386 1101 360 1114 q 426 1081 413 1089 q 442 1075 436 1075 q 457 1081 447 1075 q 498 1101 472 1089 q 551 1126 524 1114 q 601 1147 579 1139 q 631 1156 624 1156 q 651 1139 651 1156 q 643 1121 651 1128 l 503 1006 q 470 979 482 988 q 442 971 458 971 q 414 979 425 971 q 381 1006 403 988 l 240 1121 q 231 1139 231 1131 q 253 1154 231 1154 z "},"Ż":{"ha":835,"x_min":35,"x_max":814,"o":"m 735 -7 q 641 -6 690 -7 q 540 -5 592 -6 q 436 -3 489 -4 q 335 -1 383 -1 q 245 -3 290 -3 q 156 -4 200 -4 l 49 -6 q 38 7 42 -6 q 36 22 35 19 q 53 56 40 33 q 85 105 67 79 q 117 151 103 131 q 236 324 179 243 q 347 482 293 404 q 455 641 400 560 q 571 815 510 722 q 575 824 574 819 q 576 831 576 828 q 572 840 576 836 q 551 843 567 843 q 473 845 518 844 q 382 846 428 846 q 315 846 347 846 q 256 843 282 846 q 172 815 215 842 q 106 735 129 788 q 88 706 99 722 q 60 690 76 690 q 49 696 53 690 q 44 708 44 701 q 48 727 44 717 q 54 746 51 738 q 71 794 64 767 q 85 852 78 821 q 93 915 92 883 q 101 938 94 932 q 117 943 108 943 q 140 933 125 943 q 169 918 156 924 q 221 905 188 911 q 289 899 254 899 q 371 899 326 899 q 460 899 415 899 q 538 899 497 899 q 622 901 579 900 q 705 902 664 901 q 779 904 746 903 q 794 893 788 904 q 797 876 801 882 l 708 750 q 592 583 646 661 q 487 429 538 504 q 385 275 436 354 q 276 107 333 196 q 268 83 268 94 q 274 69 268 75 q 289 61 279 63 q 353 57 315 58 q 428 56 390 56 q 526 58 478 56 q 618 68 574 61 q 769 214 719 83 q 781 231 772 222 q 799 239 789 239 q 814 221 814 239 q 808 185 814 211 q 795 126 803 158 q 778 64 788 93 q 764 18 769 35 q 753 1 760 8 q 735 -7 747 -7 m 440 964 q 378 990 404 964 q 351 1050 351 1015 q 378 1113 351 1088 q 440 1138 404 1138 q 506 1113 479 1138 q 532 1050 532 1088 q 506 990 532 1015 q 440 964 479 964 z "},"Ģ":{"ha":1008,"x_min":54,"x_max":963,"o":"m 538 -19 q 353 14 440 -19 q 199 108 267 47 q 93 253 132 169 q 54 433 54 336 q 93 622 54 533 q 203 778 132 711 q 367 883 274 844 q 571 921 461 921 q 635 917 596 921 q 718 906 675 913 q 797 890 761 899 q 849 874 832 882 q 861 866 857 871 q 867 851 865 861 q 876 767 872 808 q 881 699 881 726 q 874 679 881 688 q 860 671 868 671 q 838 682 844 671 q 825 706 831 693 q 804 749 815 729 q 774 790 793 769 q 737 820 763 804 q 670 849 711 836 q 569 861 629 861 q 426 828 490 861 q 318 739 363 796 q 250 610 274 682 q 226 458 226 538 q 252 283 226 361 q 323 151 278 206 q 429 69 368 97 q 558 40 490 40 q 656 57 624 40 q 701 85 689 74 q 728 126 717 99 q 740 186 740 153 q 741 215 740 199 q 742 249 742 232 q 743 279 743 267 q 740 306 743 294 q 728 324 736 317 q 692 344 715 336 q 645 356 668 351 q 608 361 622 360 q 589 369 600 361 q 578 388 578 376 q 589 403 578 397 q 607 410 600 410 q 670 408 640 410 q 731 406 700 407 q 796 404 761 404 q 865 407 832 404 q 936 410 897 410 q 953 405 943 410 q 963 388 963 400 q 952 369 963 376 q 935 361 942 363 q 888 336 901 351 q 871 293 875 321 q 865 239 867 263 q 864 189 864 215 l 864 149 q 867 137 864 142 q 875 125 871 132 q 885 112 879 118 q 892 99 892 106 q 888 84 892 93 q 869 72 885 75 q 831 56 860 71 q 760 24 803 42 q 662 -6 718 7 q 538 -19 606 -19 m 494 -389 q 472 -375 472 -389 q 493 -356 472 -362 q 547 -316 526 -343 q 568 -260 568 -289 q 553 -217 568 -229 q 507 -199 538 -206 q 468 -178 482 -192 q 454 -135 454 -164 q 474 -93 454 -110 q 525 -76 493 -76 q 615 -115 579 -76 q 651 -217 651 -154 q 634 -290 651 -258 q 590 -344 617 -322 q 538 -378 564 -367 q 494 -389 513 -389 z "},"Ķ":{"ha":986,"x_min":36,"x_max":997,"o":"m 76 -7 q 48 -3 60 -7 q 36 11 36 1 q 79 38 36 29 q 151 69 132 47 q 169 139 169 90 l 169 765 q 150 832 169 813 q 76 863 131 851 q 36 890 36 871 q 47 904 36 900 q 72 908 57 908 q 135 907 108 908 q 188 905 163 906 q 243 904 214 904 q 292 905 269 904 q 341 906 315 906 q 401 907 367 907 q 427 903 418 907 q 436 890 436 900 q 426 873 436 879 q 396 863 417 867 q 330 828 343 850 q 317 765 317 806 l 317 497 q 319 481 317 490 q 326 472 321 472 q 344 480 333 472 q 363 496 354 488 l 636 781 q 653 803 647 793 q 660 824 660 814 q 622 858 660 850 q 592 870 601 864 q 583 888 583 876 q 594 900 583 896 q 619 904 604 904 l 701 904 q 792 906 744 904 q 881 908 839 907 q 944 910 922 910 q 967 905 958 910 q 976 893 976 900 q 965 875 976 882 q 932 864 953 868 q 821 833 875 854 q 721 775 767 811 q 632 697 674 736 q 550 617 590 658 q 463 526 510 576 q 468 496 450 515 l 803 133 q 848 87 829 104 q 890 58 867 69 q 951 38 914 46 q 985 27 972 32 q 997 11 997 22 q 985 -2 997 3 q 951 -7 972 -7 q 878 -5 911 -7 q 813 -1 844 -3 q 739 1 781 1 q 679 -1 706 1 q 606 -3 653 -3 q 580 1 590 -3 q 569 15 569 6 q 604 40 569 32 q 649 72 649 50 q 642 90 649 81 q 628 110 636 99 l 357 414 q 340 429 349 422 q 325 436 331 436 q 318 427 319 436 q 317 410 317 418 q 318 285 317 344 q 322 149 319 225 q 331 97 324 119 q 356 60 338 75 q 408 38 374 46 q 440 28 429 33 q 451 11 451 22 q 440 -2 451 3 q 411 -7 428 -7 q 348 -4 372 -7 q 303 1 324 -1 q 257 4 283 4 q 199 1 225 4 q 145 -4 174 -1 q 76 -7 117 -7 m 444 -389 q 422 -375 422 -389 q 443 -356 422 -362 q 497 -316 476 -343 q 518 -260 518 -289 q 503 -217 518 -229 q 457 -199 488 -206 q 418 -178 432 -192 q 404 -135 404 -164 q 424 -93 404 -110 q 475 -76 443 -76 q 565 -115 529 -76 q 601 -217 601 -154 q 584 -290 601 -258 q 540 -344 567 -322 q 488 -378 514 -367 q 444 -389 463 -389 z "},"Ļ":{"ha":813,"x_min":35,"x_max":801,"o":"m 69 -7 q 44 -1 54 -7 q 35 11 35 4 q 46 28 35 22 q 64 36 57 35 q 142 68 117 49 q 168 133 168 88 l 168 774 q 161 823 168 807 q 135 847 154 839 q 82 863 117 856 q 42 890 42 871 q 52 904 42 900 q 78 908 63 908 q 140 907 113 908 q 193 904 168 906 q 249 903 218 903 q 310 903 281 903 q 369 906 339 904 q 435 907 400 907 q 460 903 451 907 q 469 890 469 900 q 460 873 469 879 q 429 863 450 867 q 346 835 376 850 q 315 781 315 821 l 315 138 q 334 76 315 94 q 411 57 353 57 l 572 57 q 635 68 608 57 q 678 93 663 79 q 719 138 704 117 q 750 196 733 160 q 765 225 757 211 q 783 239 774 239 q 797 230 793 239 q 801 213 801 221 q 800 206 801 210 q 799 197 799 201 q 781 131 789 160 q 767 75 772 101 q 760 18 763 49 q 754 1 758 8 q 739 -7 750 -7 q 624 -6 685 -7 q 500 -3 563 -4 q 377 -1 438 -3 q 261 0 317 0 q 187 -1 228 0 q 112 -5 146 -3 q 69 -7 78 -7 m 369 -389 q 347 -375 347 -389 q 368 -356 347 -362 q 422 -316 401 -343 q 443 -260 443 -289 q 428 -217 443 -229 q 382 -199 413 -206 q 343 -178 357 -192 q 329 -135 329 -164 q 349 -93 329 -110 q 400 -76 368 -76 q 490 -115 454 -76 q 526 -217 526 -154 q 509 -290 526 -258 q 465 -344 492 -322 q 413 -378 439 -367 q 369 -389 388 -389 z "},"Ņ":{"ha":1079,"x_min":15,"x_max":1094,"o":"m 933 -25 q 881 -3 919 -25 q 807 67 843 18 q 760 120 792 83 q 687 206 729 157 q 597 310 644 254 q 501 420 549 365 q 410 524 453 475 q 335 610 368 572 q 286 664 303 647 q 273 679 279 674 q 261 685 267 685 q 253 674 256 685 q 250 656 250 664 q 249 501 249 589 q 248 322 249 414 q 247 149 247 229 q 269 78 247 108 q 344 38 292 49 q 376 28 364 33 q 388 11 388 22 q 376 -1 388 3 q 349 -6 365 -6 q 291 -3 311 -6 q 254 -1 271 -1 q 210 0 238 0 q 165 -1 183 0 q 128 -4 146 -3 q 83 -6 110 -6 q 56 -2 68 -6 q 44 11 44 1 q 56 27 44 21 q 88 39 67 33 q 143 80 125 50 q 164 151 161 110 q 176 290 169 204 q 186 483 182 376 q 190 704 190 590 q 153 810 190 778 q 57 861 115 842 q 33 872 50 864 q 15 893 15 881 q 28 910 15 906 q 49 914 40 914 q 112 912 85 913 q 164 910 139 911 q 217 908 189 908 q 282 907 244 907 q 301 901 294 907 q 314 886 308 894 q 362 829 329 868 q 438 738 394 790 q 532 626 482 685 q 632 507 582 567 q 726 394 682 447 q 803 303 771 342 q 850 249 836 265 q 865 233 856 243 q 881 224 874 224 q 894 250 893 224 q 894 333 894 278 q 895 463 894 389 q 896 617 896 536 q 894 779 896 699 q 865 831 893 810 q 806 860 838 853 q 769 869 786 863 q 753 888 753 876 q 769 900 753 896 q 801 904 786 904 q 838 904 822 904 q 869 904 854 904 q 900 904 885 904 q 951 905 932 904 q 994 907 971 906 q 1057 908 1017 908 q 1084 904 1074 908 q 1094 890 1094 900 q 1051 863 1094 871 q 983 837 1001 853 q 964 785 965 821 q 963 712 964 763 q 960 593 961 661 q 958 450 960 525 q 957 303 957 375 q 957 172 957 231 q 960 108 957 139 q 965 53 963 76 q 967 19 967 31 q 957 -16 967 -7 q 933 -25 947 -25 m 503 -389 q 481 -375 481 -389 q 501 -356 481 -362 q 556 -316 535 -343 q 576 -260 576 -289 q 561 -217 576 -229 q 515 -199 546 -206 q 476 -178 490 -192 q 463 -135 463 -164 q 482 -93 463 -110 q 533 -76 501 -76 q 624 -115 588 -76 q 660 -217 660 -154 q 642 -290 660 -258 q 599 -344 625 -322 q 547 -378 572 -367 q 503 -389 521 -389 z "},"Ŗ":{"ha":1014,"x_min":29,"x_max":1021,"o":"m 889 -29 q 799 -19 839 -29 q 728 13 760 -8 q 672 64 697 33 q 610 144 640 106 q 549 233 581 183 q 474 353 517 282 q 422 404 456 388 q 374 422 399 417 q 335 428 350 426 q 320 420 325 428 q 315 400 315 413 l 315 149 q 338 76 315 104 q 414 38 360 47 q 444 28 433 33 q 454 11 454 22 q 444 -1 454 3 q 418 -6 435 -6 q 356 -3 383 -6 q 305 1 329 -1 q 254 3 281 3 q 191 1 221 3 q 131 -3 161 -1 q 65 -6 101 -6 q 40 -2 50 -6 q 29 11 29 1 q 69 38 29 29 q 145 68 122 47 q 168 138 168 89 l 168 740 q 163 812 168 788 q 140 847 157 836 q 85 863 122 857 q 53 873 63 865 q 43 890 43 881 q 53 903 43 899 q 79 908 64 908 q 142 907 119 908 q 184 905 164 906 q 235 904 204 904 q 285 906 263 904 q 335 910 307 908 q 406 913 363 913 q 644 856 561 913 q 726 686 726 800 q 701 579 726 624 q 636 506 675 535 q 558 460 597 476 q 553 453 553 458 q 557 442 554 449 q 640 320 600 378 q 724 209 679 263 q 828 101 769 156 q 909 58 867 65 q 1000 51 951 51 q 1021 32 1021 51 q 999 -5 1021 8 q 947 -24 978 -18 q 889 -29 917 -29 m 382 464 q 484 491 442 464 q 549 563 526 518 q 572 661 572 608 q 557 767 572 721 q 501 838 542 813 q 386 864 461 864 q 333 837 347 864 q 318 735 319 810 q 316 646 317 701 q 315 514 315 590 q 333 472 315 481 q 382 464 351 464 m 461 -389 q 439 -375 439 -389 q 460 -356 439 -362 q 514 -316 493 -343 q 535 -260 535 -289 q 519 -217 535 -229 q 474 -199 504 -206 q 435 -178 449 -192 q 421 -135 421 -164 q 440 -93 421 -110 q 492 -76 460 -76 q 582 -115 546 -76 q 618 -217 618 -154 q 601 -290 618 -258 q 557 -344 583 -322 q 505 -378 531 -367 q 461 -389 479 -389 z "},"Ţ":{"ha":943,"x_min":33,"x_max":943,"o":"m 293 -6 q 267 -2 278 -6 q 256 11 256 1 q 267 27 256 21 q 297 38 278 33 q 376 69 350 47 q 403 140 403 92 l 403 690 q 400 783 403 751 q 392 826 397 814 q 376 840 386 838 q 339 845 360 844 q 290 846 318 846 l 236 846 q 165 830 200 846 q 111 785 129 814 q 95 762 106 776 q 72 737 85 747 q 47 726 60 726 q 37 732 40 726 q 33 746 33 738 q 42 776 33 761 q 74 854 64 821 q 89 933 83 888 q 100 961 92 956 q 117 967 108 967 q 135 949 124 967 q 154 921 147 932 q 196 901 165 908 q 253 894 226 894 l 754 896 q 826 901 797 896 q 872 915 854 907 q 903 937 892 925 q 932 949 914 949 q 940 940 938 949 q 943 919 943 931 q 942 903 943 914 q 939 885 940 892 q 928 843 933 858 q 922 815 924 828 q 919 781 919 801 l 919 761 q 914 729 919 744 q 897 714 908 714 q 879 728 886 714 q 865 771 872 743 q 828 826 857 807 q 735 846 800 846 l 618 846 q 575 837 590 846 q 555 795 560 828 q 550 690 550 763 l 550 140 q 577 71 550 93 q 657 38 604 49 q 687 28 676 33 q 697 11 697 22 q 688 -1 697 3 q 661 -6 678 -6 q 597 -3 626 -6 q 540 0 568 -1 q 482 1 513 1 q 419 0 449 1 q 360 -3 390 -1 q 293 -6 329 -6 m 390 -382 q 341 -371 358 -382 q 324 -332 324 -360 q 332 -297 324 -308 q 349 -286 340 -286 q 372 -295 357 -286 q 435 -304 386 -304 q 478 -290 463 -304 q 494 -250 494 -276 q 476 -199 494 -215 q 428 -182 458 -182 q 410 -185 417 -182 q 393 -187 403 -187 q 365 -178 374 -187 q 356 -161 356 -168 q 358 -149 356 -154 q 364 -139 360 -143 l 481 11 l 532 11 l 481 -62 q 489 -93 465 -83 q 549 -135 519 -104 q 579 -212 579 -165 q 547 -299 579 -261 q 470 -360 514 -337 q 390 -382 426 -382 z "},"Ɓ":{"ha":943,"x_min":13,"x_max":892,"o":"m 179 -7 q 153 -3 163 -7 q 143 10 143 1 q 183 36 143 28 q 260 67 235 47 q 285 136 285 88 l 285 794 q 276 840 285 824 q 235 856 267 856 q 136 836 178 856 q 94 772 94 817 q 106 740 94 754 q 132 715 118 726 q 153 695 143 706 q 164 672 164 685 q 149 642 164 657 q 118 616 135 626 q 92 606 101 606 q 54 624 72 606 q 24 667 36 642 q 13 717 13 693 q 44 820 13 778 q 146 885 76 863 q 326 906 215 907 q 408 908 374 906 q 473 912 442 910 q 542 914 504 914 q 693 893 626 914 q 799 827 760 872 q 838 706 838 782 q 820 624 838 660 q 782 568 803 588 q 740 535 760 549 q 686 511 719 522 q 681 505 681 510 q 686 497 681 500 q 755 474 719 489 q 822 435 790 460 q 872 370 853 410 q 892 269 892 331 q 867 148 892 193 q 810 79 843 103 q 747 40 776 56 q 647 6 703 18 q 518 -6 592 -6 q 451 -3 490 -6 q 365 0 411 0 q 303 -1 332 0 q 246 -5 275 -3 q 179 -7 217 -7 m 531 58 q 625 85 581 58 q 698 158 669 111 q 726 261 726 204 q 710 348 726 314 q 674 403 694 382 q 635 433 653 424 q 586 456 619 444 q 504 467 553 467 q 449 451 468 467 q 431 418 431 436 l 431 153 q 457 79 431 100 q 531 58 483 58 m 492 514 q 558 522 521 514 q 632 554 596 529 q 667 595 646 563 q 688 686 688 628 q 671 773 688 733 q 615 838 654 813 q 507 863 576 863 q 444 848 457 863 q 431 803 431 833 l 431 565 q 453 523 431 532 q 492 514 475 514 z "},"Ƃ":{"ha":838,"x_min":44,"x_max":785,"o":"m 81 -7 q 54 -3 64 -7 q 44 10 44 1 q 85 36 44 28 q 161 67 136 47 q 186 135 186 88 l 186 764 q 167 831 186 811 q 93 863 147 851 q 53 890 53 871 q 63 904 53 900 q 89 908 74 908 q 153 907 125 908 q 207 904 181 906 q 265 903 233 903 l 625 903 q 653 906 632 903 q 682 910 675 910 q 698 903 693 910 q 703 890 703 896 q 708 806 704 843 q 713 733 713 768 q 706 712 713 719 q 693 704 700 704 q 676 716 686 704 q 661 739 665 728 q 644 792 654 765 q 613 836 635 818 q 547 854 592 854 l 385 854 q 348 837 363 854 q 333 789 333 819 l 333 567 q 339 519 333 535 q 358 503 344 503 q 363 503 361 503 q 368 504 365 503 q 425 517 392 511 q 507 524 458 524 q 710 458 635 524 q 785 271 785 392 q 760 149 785 194 q 703 81 736 104 q 646 42 671 57 q 548 6 603 17 q 424 -6 493 -6 q 386 -3 411 -6 q 325 1 361 -1 q 242 4 289 4 q 190 1 214 4 q 141 -4 167 -1 q 81 -7 115 -7 m 429 60 q 522 87 478 60 q 595 160 567 114 q 624 265 624 207 q 608 352 624 318 q 570 408 592 386 q 531 439 549 429 q 482 461 515 450 q 401 472 449 472 q 353 462 374 472 q 333 424 333 451 l 333 154 q 358 84 333 108 q 429 60 383 60 z "},"Ƅ":{"ha":806,"x_min":15,"x_max":756,"o":"m 51 -7 q 25 -3 35 -7 q 15 10 15 1 q 56 36 15 28 q 132 67 107 47 q 157 135 157 88 l 157 657 q 134 737 157 704 q 67 792 111 769 q 28 828 28 811 q 35 844 28 836 q 60 854 42 851 q 166 878 119 861 q 243 909 213 894 q 285 924 274 924 q 307 916 303 924 q 311 892 311 908 q 310 859 311 881 q 306 817 308 838 q 304 788 304 797 l 304 568 q 310 522 304 538 q 329 506 315 506 q 334 506 332 506 q 339 507 336 506 q 395 520 361 514 q 476 526 429 526 q 680 459 604 526 q 756 272 756 392 q 708 116 756 178 q 580 24 661 54 q 394 -6 499 -6 q 357 -3 382 -6 q 295 1 332 -1 q 213 4 258 4 q 160 1 183 4 q 112 -4 138 -1 q 51 -7 86 -7 m 400 60 q 492 86 449 60 q 565 158 536 113 q 593 264 593 204 q 578 347 593 314 q 542 403 563 381 q 501 436 521 425 q 452 457 485 446 q 372 468 419 468 q 324 458 344 468 q 304 421 304 449 l 304 153 q 329 84 304 108 q 400 60 354 60 z "},"Ɔ":{"ha":986,"x_min":75,"x_max":931,"o":"m 422 924 q 615 890 522 924 q 778 796 707 857 q 890 649 849 735 q 931 457 931 563 q 889 272 931 358 q 773 120 847 185 q 599 19 699 56 q 385 -18 500 -18 q 294 -13 335 -18 q 217 1 254 -8 q 136 22 179 10 q 110 38 118 28 q 99 67 101 49 q 91 142 94 103 q 86 228 88 181 q 97 246 86 240 q 119 249 107 251 q 136 229 131 246 q 165 148 149 183 q 214 88 182 113 q 295 49 246 64 q 406 35 344 35 q 548 67 483 35 q 659 153 613 99 q 731 278 706 208 q 757 422 757 347 q 733 590 757 510 q 661 733 708 671 q 548 833 614 796 q 399 869 482 869 q 233 825 297 869 q 124 694 168 781 q 94 675 113 675 q 75 697 75 675 q 80 735 75 711 q 93 788 85 760 q 110 840 101 817 q 125 865 118 858 q 151 879 132 872 q 275 913 203 901 q 422 924 347 924 z "},"Ƈ":{"ha":960,"x_min":56,"x_max":1089,"o":"m 525 -21 q 341 15 426 -21 q 192 115 256 51 q 92 264 128 179 q 56 446 56 349 q 95 631 56 544 q 206 783 135 718 q 372 884 276 847 q 578 921 467 921 q 672 914 635 921 q 738 899 710 907 q 788 889 765 892 q 799 889 793 888 q 806 900 804 890 q 867 982 824 957 q 956 1007 911 1007 q 1060 984 1032 1007 q 1089 933 1089 961 q 1069 890 1089 910 q 1029 869 1049 869 q 998 881 1011 869 q 972 906 985 892 q 947 933 960 921 q 915 946 933 946 q 877 932 892 946 q 857 893 863 918 q 851 833 851 868 q 856 764 853 804 q 860 674 860 724 q 849 656 860 661 q 826 655 838 651 q 811 668 814 658 q 787 749 803 714 q 756 799 771 785 q 722 826 746 810 q 656 856 697 843 q 557 868 615 868 q 422 836 482 868 q 318 749 361 804 q 251 625 275 694 q 228 481 228 556 q 250 313 228 393 q 315 169 272 232 q 421 70 358 107 q 564 33 483 33 q 688 59 638 33 q 769 125 738 85 q 822 208 801 165 q 840 224 828 219 q 861 226 851 229 q 871 210 871 222 q 865 163 871 194 q 849 99 858 132 q 829 47 839 67 q 809 31 825 38 q 771 15 793 25 q 705 -6 744 1 q 619 -17 665 -14 q 525 -21 572 -21 z "}}}
